<?xml version="1.0" encoding="UTF-8" standalone="no"?>
<svg width="288px" height="414px" viewBox="0 0 288 414" version="1.1" xmlns="http://www.w3.org/2000/svg" xmlns:xlink="http://www.w3.org/1999/xlink" xmlns:sketch="http://www.bohemiancoding.com/sketch/ns">
    <!-- Generator: Sketch 3.3.3 (12072) - http://www.bohemiancoding.com/sketch -->
    <title>bgCard2</title>
    <desc>Created with Sketch.</desc>
    <defs>
        <path d="M280,45.9775785 L280,406.99465 C280,409.759029 277.7666,412 274.99132,412 L5.00867973,412 C2.2424623,412 0,409.758442 0,406.99465 L0,45.9775785 L1.04055653e-13,45.9775785 C2.80325001,45.7249641 5,43.3690213 5,40.5 C5,37.6309787 2.80325001,35.2750359 0,35.0224215 L0,5.00534978 C0,2.24097143 2.23340021,0 5.00867973,0 L274.99132,0 C277.757538,0 280,2.24155778 280,5.00534978 L280,35.0224215 C277.19675,35.2750359 275,37.6309787 275,40.5 C275,43.3690213 277.19675,45.7249641 280,45.9775785 Z" id="path-1"></path>
        <rect id="path-3" x="0" y="38" width="280" height="42"></rect>
        <rect id="path-4" x="0" y="0" width="280" height="40" rx="5"></rect>
    </defs>
    <g id="Page-1" stroke="none" stroke-width="1" fill="none" fill-rule="evenodd" sketch:type="MSPage">
        <g id="Artboard-10" sketch:type="MSArtboardGroup" transform="translate(-313.000000, -886.000000)">
            <g id="node-copy-4" sketch:type="MSLayerGroup" transform="translate(314.000000, 887.000000)">
                <mask id="mask-2" sketch:name="Mask" fill="white">
                    <use xlink:href="#path-1"></use>
                </mask>
                <use id="Mask" stroke="#D9D9D9" fill="#FFFFFF" sketch:type="MSShapeGroup" xlink:href="#path-1"></use>
                <g id="Content-Copy" mask="url(#mask-2)" fill="#F9FAFB" sketch:type="MSShapeGroup">
                    <g transform="translate(0.000000, 79.000000)" id="Rectangle-30">
                        <rect x="0" y="1" width="280" height="333"></rect>
                    </g>
                </g>
                <g id="Node_Title" mask="url(#mask-2)">
                    <g id="Rectangle-8">
                        <use fill="#E5E5E5" fill-rule="evenodd" sketch:type="MSShapeGroup" xlink:href="#path-3"></use>
                        <use fill="none" xlink:href="#path-3"></use>
                    </g>
                    <g id="Rectangle-8-Copy">
                        <use fill="#E5E5E5" fill-rule="evenodd" sketch:type="MSShapeGroup" xlink:href="#path-4"></use>
                        <use fill="none" xlink:href="#path-4"></use>
                    </g>
                    <g id="min" transform="translate(254.000000, 12.000000)" fill="#15C19C" sketch:type="MSShapeGroup">
                        <path d="M2.73369817,7 C2.32839559,7 2,7.33581757 2,7.74999999 C2,8.16418242 2.32839559,8.49999999 2.73369817,8.49999999 L13.2663018,8.5 C13.6716044,8.5 14,8.16418243 14,7.75000001 C14,7.33581758 13.6716044,7 13.2663018,7 L2.73369817,7 Z" id="Shape-Copy-3" transform="translate(8.000000, 7.750000) scale(1, -1) translate(-8.000000, -7.750000) "></path>
                    </g>
                    <g id="delete" transform="translate(10.000000, 12.000000)" fill="#15C19C" sketch:type="MSShapeGroup">
                        <path d="M9.19273928,7.98877888 L12.7412541,11.5372937 C13.0792079,11.8752475 13.0792079,12.3821782 12.7412541,12.720132 C12.4033003,13.0580858 11.8963696,13.0580858 11.5584158,12.720132 L8.00990099,9.17161717 L4.46138614,12.8046205 C4.12343235,13.0580858 3.5320132,13.0580858 3.19405941,12.8046205 C2.94059406,12.4666667 2.94059406,11.8752475 3.19405941,11.5372937 L6.8270627,7.98877888 L3.27854785,4.44026403 C2.94059406,4.10231024 2.94059406,3.59537954 3.27854785,3.25742574 C3.61650164,2.91947195 4.12343234,2.91947195 4.46138614,3.25742574 L8.00990099,6.80594059 L11.5584158,3.25742574 C11.8963696,2.91947195 12.4033003,2.91947195 12.7412541,3.25742574 C13.0792079,3.59537953 13.0792079,4.10231023 12.7412541,4.44026403 L9.19273928,7.98877888 L9.19273928,7.98877888 Z" id="Shape" transform="translate(7.999340, 7.999340) scale(1, -1) translate(-7.999340, -7.999340) "></path>
                    </g>
                </g>
                <circle id="Oval-253-Copy-4" stroke="#858585" stroke-width="2" sketch:type="MSShapeGroup" cx="280.5" cy="40.5" r="5.5"></circle>
            </g>
        </g>
    </g>
</svg>