<?xml version="1.0" encoding="UTF-8" standalone="no"?>
<svg width="287px" height="414px" viewBox="0 0 287 414" version="1.1" xmlns="http://www.w3.org/2000/svg" xmlns:xlink="http://www.w3.org/1999/xlink" xmlns:sketch="http://www.bohemiancoding.com/sketch/ns">
    <!-- Generator: Sketch 3.3.3 (12072) - http://www.bohemiancoding.com/sketch -->
    <title>bgCard</title>
    <desc>Created with Sketch.</desc>
    <defs>
        <path d="M280,45.9775785 L280,406.99465 C280,409.759029 277.7666,412 274.99132,412 L5.00867973,412 C2.2424623,412 0,409.758442 0,406.99465 L0,45.9775785 L1.04055653e-13,45.9775785 C2.80325001,45.7249641 5,43.3690213 5,40.5 C5,37.6309787 2.80325001,35.2750359 0,35.0224215 L0,5.00534978 C0,2.24097143 2.23340021,0 5.00867973,0 L274.99132,0 C277.757538,0 280,2.24155778 280,5.00534978 L280,35.0224215 C277.19675,35.2750359 275,37.6309787 275,40.5 C275,43.3690213 277.19675,45.7249641 280,45.9775785 Z" id="path-1"></path>
        <rect id="path-3" x="0" y="40" width="280" height="40"></rect>
        <rect id="path-4" x="0" y="0" width="280" height="40" rx="5"></rect>
    </defs>
    <g id="Page-1" stroke="none" stroke-width="1" fill="none" fill-rule="evenodd" sketch:type="MSPage">
        <g id="card" sketch:type="MSArtboardGroup" transform="translate(-55.000000, -40.000000)">
            <g id="node" sketch:type="MSLayerGroup" transform="translate(56.000000, 41.000000)">
                <mask id="mask-2" sketch:name="Mask" fill="white">
                    <use xlink:href="#path-1"></use>
                </mask>
                <use id="Mask" stroke="#D9D9D9" fill="#FFFFFF" sketch:type="MSShapeGroup" xlink:href="#path-1"></use>
                <g id="Content-Copy" mask="url(#mask-2)" fill="#F9FAFB" sketch:type="MSShapeGroup">
                    <g transform="translate(0.000000, 79.000000)" id="Rectangle-30">
                        <rect x="0" y="1" width="280" height="333"></rect>
                    </g>
                </g>
                <g id="Node_Title" mask="url(#mask-2)">
                    <g id="Rectangle-8">
                        <use fill="#E5E5E5" fill-rule="evenodd" sketch:type="MSShapeGroup" xlink:href="#path-3"></use>
                        <use fill="none" xlink:href="#path-3"></use>
                    </g>
                    <g id="Rectangle-8-Copy">
                        <use fill="#E5E5E5" fill-rule="evenodd" sketch:type="MSShapeGroup" xlink:href="#path-4"></use>
                        <use fill="none" xlink:href="#path-4"></use>
                    </g>
                </g>
                <circle id="Oval-253-Copy-4" stroke="#858585" stroke-width="2" sketch:type="MSShapeGroup" cx="280.5" cy="40.5" r="5.5"></circle>
            </g>
        </g>
    </g>
</svg>