<?xml version="1.0" encoding="utf-8"?>
<!-- Generator: Adobe Illustrator 23.0.0, SVG Export Plug-In . SVG Version: 6.00 Build 0)  -->
<svg version="1.1" id="图层_1" xmlns:sketch="http://www.bohemiancoding.com/sketch/ns"
	 xmlns="http://www.w3.org/2000/svg" xmlns:xlink="http://www.w3.org/1999/xlink" x="0px" y="0px" viewBox="0 0 207.8 142.4"
	 style="enable-background:new 0 0 207.8 142.4;" xml:space="preserve">
<style type="text/css">
	.st0{fill:#F9FAFB;}
	.st1{fill:#1BBD9C;}
</style>
<title>bgCard2</title>
<desc>Created with Sketch.</desc>
<g>
	<path class="st0" d="M207.6,10.7V5.2c0-2.3-1.8-4.1-4.1-4.1H4.3C2,1.1,0.2,2.9,0.2,5.2v5.5c1.7,0.2,3.1,1.6,3.1,3.4
		s-1.4,3.2-3.1,3.4v119.6c0,2.9,2.3,5.2,5.2,5.2h197.1c2.9,0,5.2-2.3,5.2-5.2V17.6c-1.8-0.1-3.3-1.6-3.3-3.4S205.8,10.8,207.6,10.7z
		"/>
	<path class="st1" d="M207.6,10.7c0.1,0,0.1,0,0.2,0V3.3c0-1.8-1.5-3.3-3.3-3.3H3.3C1.5,0,0,1.5,0,3.3v7.4c1.8,0.1,3.3,1.6,3.3,3.4
		S1.8,17.5,0,17.6v10.7h207.8V17.6c-0.1,0-0.1,0-0.2,0c-1.9,0-3.4-1.5-3.4-3.4S205.7,10.7,207.6,10.7z"/>
</g>
</svg>
