<?xml version="1.0" encoding="UTF-8" standalone="no"?>
<svg width="26px" height="26px" viewBox="0 0 26 26" version="1.1" xmlns="http://www.w3.org/2000/svg" xmlns:xlink="http://www.w3.org/1999/xlink" xmlns:sketch="http://www.bohemiancoding.com/sketch/ns">
    <!-- Generator: Sketch 3.3.3 (12072) - http://www.bohemiancoding.com/sketch -->
    <title>cancel</title>
    <desc>Created with Sketch.</desc>
    <defs></defs>
    <g id="Page-1" stroke="none" stroke-width="1" fill="none" fill-rule="evenodd" sketch:type="MSPage">
        <g id="Artboard-8" sketch:type="MSArtboardGroup" transform="translate(-77.000000, -231.000000)" fill="#FFFFFF">
            <g id="cancel" sketch:type="MSLayerGroup" transform="translate(51.000000, 231.000000)">
                <path d="M38,14 L34,14 C33.4477153,14 33,13.5522847 33,13 C33,12.4477153 33.4477153,12 34,12 L38,12 L38,8 C38,7.44771525 38.4477153,7 39,7 C39.5522847,7 40,7.44771525 40,8 L40,12 L44,12 C44.5522847,12 45,12.4477153 45,13 C45,13.5522847 44.5522847,14 44,14 L40,14 L40,18 C40,18.5522847 39.5522847,19 39,19 C38.4477153,19 38,18.5522847 38,18 L38,14 Z" id="Shape-Copy-7" sketch:type="MSShapeGroup" transform="translate(39.000000, 13.000000) rotate(-45.000000) translate(-39.000000, -13.000000) "></path>
            </g>
        </g>
    </g>
</svg>