<?xml version="1.0" encoding="UTF-8" standalone="no"?>
<svg width="40px" height="40px" viewBox="0 0 40 40" version="1.1" xmlns="http://www.w3.org/2000/svg" xmlns:xlink="http://www.w3.org/1999/xlink" xmlns:sketch="http://www.bohemiancoding.com/sketch/ns">
    <!-- Generator: Sketch 3.3.3 (12072) - http://www.bohemiancoding.com/sketch -->
    <title>card_s_when</title>
    <desc>Created with Sketch.</desc>
    <defs></defs>
    <g id="Page-1" stroke="none" stroke-width="1" fill="none" fill-rule="evenodd" sketch:type="MSPage">
        <g id="Artboard-1" sketch:type="MSArtboardGroup" transform="translate(-80.000000, 0.000000)" fill="#FFFFFF">
            <path d="M99.75,30.5 C105.687061,30.5 110.5,25.6870611 110.5,19.75 C110.5,13.8129389 105.687061,9 99.75,9 C93.8129389,9 89,13.8129389 89,19.75 C89,25.6870611 93.8129389,30.5 99.75,30.5 L99.75,30.5 Z M99.75,29 C94.6413661,29 90.5,24.8586339 90.5,19.75 C90.5,14.6413661 94.6413661,10.5 99.75,10.5 C104.858634,10.5 109,14.6413661 109,19.75 C109,24.8586339 104.858634,29 99.75,29 L99.75,29 Z M98.7782064,19.7947051 C98.7782064,20.1726454 98.9912795,20.5182968 99.3289283,20.6880971 L103.340606,22.7055305 C103.834013,22.95366 104.435147,22.7548234 104.683276,22.2614166 C104.931406,21.7680099 104.732569,21.166876 104.239162,20.9187466 L100.778206,19.1849976 L100.778206,13.75 C100.778206,13.1977152 100.330491,12.75 99.7782064,12.75 C99.2259216,12.75 98.7782064,13.1977152 98.7782064,13.75 L98.7782064,19.7947051 Z" id="Shape" sketch:type="MSShapeGroup"></path>
        </g>
    </g>
</svg>