<?xml version="1.0" encoding="UTF-8" standalone="no"?>
<svg width="40px" height="40px" viewBox="0 0 40 40" version="1.1" xmlns="http://www.w3.org/2000/svg" xmlns:xlink="http://www.w3.org/1999/xlink" xmlns:sketch="http://www.bohemiancoding.com/sketch/ns">
    <!-- Generator: Sketch 3.3.3 (12072) - http://www.bohemiancoding.com/sketch -->
    <title>card_b_what_speed_active</title>
    <desc>Created with Sketch.</desc>
    <defs></defs>
    <g id="Page-1" stroke="none" stroke-width="1" fill="none" fill-rule="evenodd" sketch:type="MSPage">
        <g id="what-copy" sketch:type="MSArtboardGroup">
            <rect id="Rectangle-336-Copy-42" fill="#15C19C" sketch:type="MSShapeGroup" x="0" y="0" width="40" height="40"></rect>
            <path d="M25.7625173,30.2450541 C25.6500228,30.3142102 25.5250038,30.3467197 25.4016803,30.3467197 C25.1708586,30.3467197 24.945847,30.2308793 24.8149953,30.0216928 C24.6158014,29.7008484 24.7158166,29.2792201 25.0408434,29.0800261 C26.2441909,28.3433409 27.2408389,27.3792024 27.9958361,26.2625091 L27.3116679,25.8700217 C26.9816674,25.6808655 26.8691729,25.2625153 27.0600021,24.9350242 C27.2491584,24.6083697 27.6716684,24.4958526 27.9999959,24.6841949 L28.6774949,25.0725225 C29.191678,24.0058368 29.5091539,22.8416679 29.5958308,21.6258411 L28.839997,21.6258411 C28.4591751,21.6258411 28.151669,21.320008 28.151669,20.9416729 C28.151669,20.5633378 28.4600116,20.2575272 28.839997,20.2575272 L29.5883251,20.2575272 C29.4999753,19.0058677 29.1624918,17.8233641 28.634993,16.7500319 L27.9999959,17.1142147 C27.8916612,17.1758878 27.7741478,17.2058878 27.6566571,17.2058878 C27.4183297,17.2058878 27.1874854,17.0833782 27.0600021,16.8642219 C26.8700094,16.5367309 26.9825039,16.1183807 27.3125044,15.9292244 L27.9450147,15.565878 C27.2625194,14.5692075 26.3941685,13.7100352 25.3925243,13.0308632 L25.027505,13.6583773 C24.8999992,13.87837 24.668341,14.0000432 24.4308275,14.0000432 C24.3141506,14.0000432 24.1958234,13.9708796 24.0874886,13.9083701 C23.7574882,13.7192138 23.6449937,13.3008636 23.8349864,12.974209 L24.2016561,12.3425578 C23.1224685,11.8175232 21.9316454,11.4850133 20.6725028,11.3983365 L20.6725028,12.2466798 C20.6725028,12.6250149 20.3649967,12.930848 19.9841748,12.930848 C19.6033529,12.930848 19.2958468,12.6250149 19.2958468,12.2466798 L19.2958468,11.4016824 C18.0650313,11.4908461 16.9000033,11.8158503 15.8400094,12.3233415 L16.219181,12.9766733 C16.4100102,13.3041643 16.2966792,13.7225145 15.9675152,13.9108343 C15.8591805,13.9725073 15.7408306,14.0025074 15.6241764,14.0025074 C15.385849,14.0025074 15.1550273,13.8799978 15.0266624,13.6608415 L14.6466543,13.0058368 C13.6358315,13.682522 12.771663,14.5525006 12.0816621,15.5500076 L12.7441498,15.9300157 C13.0733138,16.1191719 13.1866448,16.5375221 12.9958156,16.8650132 C12.8683097,17.0841921 12.6366516,17.2066791 12.3991606,17.2066791 C12.2824838,17.2066791 12.1641566,17.1775155 12.0558218,17.115006 L11.3841781,16.7308382 C10.8508692,17.8041705 10.503348,18.9833507 10.4116749,20.2374971 L11.1675086,20.2374971 C11.5483305,20.2374971 11.8558366,20.5433302 11.8558366,20.9216653 C11.8558366,21.3000004 11.5483305,21.6058335 11.1675086,21.6058335 L10.4016598,21.6058335 C10.4875002,22.8375082 10.8108088,24.0183387 11.3349844,25.0983176 L12.0549853,24.6849862 C12.3833128,24.49583 12.8041725,24.607488 12.9949791,24.9358155 C13.1849718,25.2633065 13.0724773,25.6816568 12.7433133,25.870813 L12.0191526,26.2866538 C12.7583247,27.3733245 13.7283185,28.3141547 14.8916509,29.0399884 C15.2133092,29.2399962 15.3108376,29.6624836 15.1082977,29.9824916 C14.9057579,30.3024996 14.4816202,30.4008192 14.1599845,30.1983246 C10.9291586,28.1833708 9,24.7191912 9,20.9316804 C9,14.9041589 13.9341816,10 20,10 C26.0658184,10 31,14.9041589 31,20.9316804 C31,24.7558379 29.0424917,28.2375382 25.7624947,30.2450089 L25.7625173,30.2450541 Z M20.6508675,19.7600737 L24.3900437,17.6142455 C24.7192077,17.4250893 25.1400447,17.5375838 25.3300374,17.864261 C25.5200302,18.1909381 25.4075357,18.6101022 25.0783717,18.798422 L21.3508835,20.9376035 C21.3508835,21.6951102 20.7367079,22.3067765 19.9775508,22.3067765 C19.2183938,22.3067765 18.6042181,21.6959241 18.6042181,20.9417859 C18.6050546,20.1901119 19.2200894,19.5784231 19.9784325,19.5784231 C20.2241977,19.5784005 20.4516962,19.6475565 20.6508675,19.7600737 Z" id="Shape" fill="#FFFFFF" sketch:type="MSShapeGroup"></path>
        </g>
    </g>
</svg>