<?xml version="1.0" encoding="UTF-8" standalone="no"?>
<svg width="40px" height="45px" viewBox="0 0 40 45" version="1.1" xmlns="http://www.w3.org/2000/svg" xmlns:xlink="http://www.w3.org/1999/xlink" xmlns:sketch="http://www.bohemiancoding.com/sketch/ns">
    <!-- Generator: Sketch 3.3.3 (12072) - http://www.bohemiancoding.com/sketch -->
    <title>card_s_blog</title>
    <desc>Created with Sketch.</desc>
    <defs></defs>
    <g id="Page-1" stroke="none" stroke-width="1" fill="none" fill-rule="evenodd" sketch:type="MSPage">
        <g id="Artboard-8" sketch:type="MSArtboardGroup" transform="translate(-59.000000, -202.000000)" stroke="#15c19c" stroke-width="0.6" stroke-linecap="round" fill="#15c19c" stroke-linejoin="round">
            <g id="card_s" sketch:type="MSLayerGroup" transform="translate(19.000000, 157.000000)">
                <g id="iconfont-info" transform="translate(50.000000, 58.000000)" sketch:type="MSShapeGroup">
                    <path d="M10.0010199,0.00498878319 C4.48254695,0.00498878319 0.0086160177,3.89511447 0.0086160177,8.69401303 C0.0086160177,11.5033734 1.54212639,14.0010782 3.92067938,15.5893762 L3.91866447,19.2574988 L7.18491296,17.0330303 C8.07810985,17.2607612 9.02312861,17.3830599 10.0009973,17.3830599 C15.5194929,17.3830599 19.9933785,13.4929116 19.9933785,8.69401301 C19.9934012,3.89511447 15.5195156,0.00498878319 10.0010199,0.00498878319 L10.0010199,0.00498878319 Z M10.0010199,16.5141552 C8.91436836,16.5141552 7.87218082,16.3512186 6.90565451,16.0524223 L6.12323279,16.704463 C6.13833334,16.7099871 6.15350181,16.71533 6.16864765,16.7208314 L4.80156038,17.6910932 L4.78756916,15.9099518 L4.78756916,15.1123616 C2.42402615,13.6992029 0.877498053,11.3515075 0.877498053,8.69403566 C0.877498053,4.37495905 4.96236887,0.873893473 10.0009973,0.873893473 C15.0396257,0.873893473 19.1244965,4.37495905 19.1244965,8.69403566 C19.1245192,13.0131123 15.0396257,16.5141552 10.0010199,16.5141552 L10.0010199,16.5141552 Z M14.0096133,8.28249333 C14.0096133,8.83477808 14.4573285,9.28249333 15.0096133,9.28249333 C15.561898,9.28249333 16.0096133,8.83477808 16.0096133,8.28249333 C16.0096133,7.73020858 15.561898,7.28249333 15.0096133,7.28249333 C14.4573285,7.28249333 14.0096133,7.73020858 14.0096133,8.28249333 L14.0096133,8.28249333 Z M9.00099728,8.28249333 C9.00099728,8.83477808 9.44871253,9.28249333 10.0009973,9.28249333 C10.553282,9.28249333 11.0009973,8.83477808 11.0009973,8.28249333 C11.0009973,7.73020858 10.553282,7.28249333 10.0009973,7.28249333 C9.44871253,7.28249333 9.00099728,7.73020858 9.00099728,8.28249333 L9.00099728,8.28249333 Z M3.99238126,8.28249333 C3.99238126,8.83477808 4.44009651,9.28249333 4.99238126,9.28249333 C5.54466601,9.28249333 5.99238126,8.83477808 5.99238126,8.28249333 C5.99238126,7.73020858 5.54466601,7.28249333 4.99238126,7.28249333 C4.44009651,7.28249333 3.99238126,7.73020858 3.99238126,8.28249333 L3.99238126,8.28249333 Z" id="Shape"></path>
                </g>
            </g>
        </g>
    </g>
</svg>