<?xml version="1.0" encoding="UTF-8" standalone="no"?>
<svg width="40px" height="40px" viewBox="0 0 40 40" version="1.1" xmlns="http://www.w3.org/2000/svg" xmlns:xlink="http://www.w3.org/1999/xlink" xmlns:sketch="http://www.bohemiancoding.com/sketch/ns">
    <!-- Generator: Sketch 3.3.3 (12072) - http://www.bohemiancoding.com/sketch -->
    <title>card_s_what_disabled</title>
    <desc>Created with Sketch.</desc>
    <defs></defs>
    <g id="Page-1" stroke="none" stroke-width="1" fill="none" fill-rule="evenodd" sketch:type="MSPage">
        <g id="Artboard-1" sketch:type="MSArtboardGroup" transform="translate(-120.000000, -40.000000)" fill="#1FB293">
            <path d="M145,52.49496 C145,51.9979038 145.402944,51.59496 145.9,51.59496 C146.397056,51.59496 146.8,51.9979037 146.8,52.49496 L146.8,67.50504 C146.8,68.0020962 146.397056,68.40504 145.9,68.40504 C145.402944,68.40504 145,68.0020963 145,67.50504 L145,52.49496 Z M133,52.49496 C133,51.9979038 133.402944,51.59496 133.9,51.59496 C134.397056,51.59496 134.8,51.9979037 134.8,52.49496 L134.8,67.50504 C134.8,68.0020962 134.397056,68.40504 133.9,68.40504 C133.402944,68.40504 133,68.0020963 133,67.50504 L133,52.49496 Z M139,48.9 C139,48.4029437 139.402944,48 139.9,48 C140.397056,48 140.8,48.4029437 140.8,48.9 L140.8,70.9 C140.8,71.3970563 140.397056,71.8 139.9,71.8 C139.402944,71.8 139,71.3970563 139,70.9 L139,48.9 Z" id="Shape-Copy-10" sketch:type="MSShapeGroup"></path>
        </g>
    </g>
</svg>