<?xml version="1.0" encoding="UTF-8" standalone="no"?>
<svg width="40px" height="40px" viewBox="0 0 40 40" version="1.1" xmlns="http://www.w3.org/2000/svg" xmlns:xlink="http://www.w3.org/1999/xlink" xmlns:sketch="http://www.bohemiancoding.com/sketch/ns">
    <!-- Generator: Sketch 3.3.3 (12072) - http://www.bohemiancoding.com/sketch -->
    <title>card_b_what_isPassager_active</title>
    <desc>Created with Sketch.</desc>
    <defs></defs>
    <g id="Page-1" stroke="none" stroke-width="1" fill="none" fill-rule="evenodd" sketch:type="MSPage">
        <g id="what-copy" sketch:type="MSArtboardGroup" transform="translate(-80.000000, 0.000000)">
            <rect id="Rectangle-336-Copy-43" fill="#15C19C" sketch:type="MSShapeGroup" x="80" y="0" width="40" height="40"></rect>
            <path d="M100.376015,10 C100.327921,10 100.279919,10.0006325 100.232006,10.0018298 C100.221638,10.0021008 100.211314,10.0026656 100.200946,10.0029592 C100.163131,10.0041113 100.125361,10.0053763 100.087682,10.0072512 C100.079436,10.0076804 100.071214,10.008313 100.062946,10.0087647 C100.022917,10.0109333 99.9828436,10.013373 99.9429505,10.0163774 C99.9390651,10.0166711 99.9352249,10.0170551 99.9313169,10.0173714 C98.6354001,10.1176463 97.4274696,10.6551644 96.4802676,11.5588138 C96.4592142,11.5788959 96.4385222,11.5994072 96.4177398,11.6198282 C96.4060836,11.6312811 96.3942241,11.6424855 96.3826582,11.6540513 C96.3712731,11.6654364 96.3602268,11.6771152 96.348932,11.6885907 C96.3283304,11.7095312 96.307661,11.730404 96.287353,11.7516607 C95.3835455,12.6990209 94.8460273,13.907132 94.7458879,15.2032973 C94.7455942,15.2069568 94.7452328,15.2105711 94.7449392,15.214208 C94.7419122,15.254327 94.7394725,15.2945816 94.7373039,15.3348813 C94.7368521,15.3429232 94.7362422,15.3509199 94.7358356,15.3589618 C94.733938,15.3968219 94.7326504,15.4348175 94.7314984,15.4728131 C94.7311821,15.483001 94.73064,15.4931211 94.7303915,15.503309 C94.7291942,15.5512214 94.7285617,15.5992241 94.7285617,15.6473173 L94.7285617,15.6478594 C94.7285617,15.6957718 94.7291942,15.7435713 94.7303689,15.7912804 C94.73064,15.8018523 94.7312047,15.812379 94.731521,15.8229284 C94.732673,15.8605399 94.733938,15.8981064 94.7357904,15.9355824 C94.7362196,15.9440535 94.7368747,15.9524342 94.7373265,15.9609053 C94.7394951,16.0007758 94.7419122,16.0405786 94.744894,16.080291 C94.7452102,16.0843797 94.7456168,16.0884458 94.7459331,16.0925345 C94.8428648,17.3434755 95.3472215,18.5123035 96.1950069,19.4438283 C96.2010383,19.4504471 96.2072279,19.4568851 96.2132819,19.4634587 C96.2374527,19.4897981 96.2616912,19.5160471 96.2863816,19.5420025 C96.3497227,19.6084835 96.4146902,19.6734284 96.4811712,19.7368147 C96.507104,19.7615728 96.5334208,19.7857888 96.5597602,19.809937 C96.5663338,19.815991 96.5727718,19.822158 96.5793679,19.8281894 C96.940394,20.1567542 97.3371567,20.4335213 97.7604395,20.6551924 C97.2922938,20.767214 96.8333421,20.9180669 96.3858433,21.1073673 C95.3357008,21.5515002 94.3926101,22.187328 93.582888,22.9970049 C92.8047461,23.7751468 92.1877354,24.6767405 91.7465617,25.6778638 C91.6495848,25.8856423 91.5615534,26.0968771 91.4826029,26.3109582 C91.1622155,27.1193701 91,27.7383009 91,28.7305239 C91,28.9681884 91.1925758,29.1607416 91.4301726,29.1607416 L91.4956823,29.1607416 L91.4956823,29.1639042 L109.560041,29.1639042 C109.80577,29.1611257 110.002705,28.9597173 109.999972,28.7139205 C109.99961,28.6763767 109.998842,28.6393751 109.997984,28.6025089 L109.99812,28.6023508 C109.998074,28.602012 109.998029,28.6016957 109.997984,28.6013569 C109.965591,27.2200517 109.626815,26.3694877 108.979399,25.1268145 C108.345537,23.9101193 107.427001,22.83305 106.323185,22.0121913 C106.310016,22.0023874 106.296417,21.9935775 106.282569,21.9854227 C105.426245,21.3469293 104.398444,20.8441765 103.172441,20.5563858 C103.528091,20.3530348 103.863365,20.1096325 104.172458,19.8283475 C104.180455,19.8210511 104.188293,19.8135514 104.196312,19.8062323 C104.221206,19.783304 104.246055,19.7604659 104.270609,19.7370632 C104.337249,19.6735414 104.402352,19.6084609 104.465873,19.5417766 C104.487108,19.5195033 104.507845,19.4968686 104.528672,19.4743016 C104.538205,19.4640008 104.547896,19.4539033 104.557316,19.4435347 C105.404785,18.5121679 105.909006,17.3436562 106.006028,16.0930541 C106.006367,16.0888072 106.006774,16.084583 106.007113,16.0803362 C106.010117,16.0406915 106.012489,16.0009339 106.014703,15.9611312 C106.015177,15.9526375 106.01581,15.944189 106.016216,15.9356953 C106.018091,15.8982193 106.019356,15.8606529 106.020463,15.8230413 C106.020824,15.8124694 106.021344,15.8019653 106.021638,15.7913934 C106.022835,15.7436843 106.023422,15.6958622 106.023467,15.6479724 L106.023467,15.6474302 C106.023467,15.5993371 106.022835,15.5513343 106.021638,15.5034219 C106.021389,15.493234 106.020847,15.4831365 106.020508,15.4729712 C106.019356,15.434953 106.018114,15.3969574 106.016216,15.3590747 C106.015787,15.3510103 106.015177,15.3430136 106.014748,15.3349717 C106.012557,15.2946946 106.010162,15.2544852 106.007113,15.2143887 C106.006819,15.2106163 106.006457,15.206889 106.006141,15.2031391 C105.90939,13.951769 105.404875,12.7824892 104.556751,11.8506933 C104.553182,11.8467853 104.549522,11.8429676 104.545931,11.8390371 C104.519343,11.8100095 104.492642,11.7810949 104.465399,11.7525417 C104.402216,11.6862188 104.337452,11.6214546 104.271129,11.5582717 C104.241514,11.5300347 104.211515,11.5022948 104.181426,11.4747581 C104.178602,11.4721829 104.175824,11.4695174 104.173,11.4669196 C103.241294,10.6187953 102.072082,10.1142805 100.82078,10.0174391 C100.816895,10.0171229 100.813054,10.0167388 100.809169,10.0164452 C100.769253,10.0134408 100.729225,10.0110011 100.689173,10.0088325 C100.680928,10.0083807 100.672706,10.0077482 100.664438,10.007319 C100.626758,10.0054441 100.588989,10.0041565 100.551174,10.003027 C100.540805,10.0027107 100.530482,10.002146 100.520091,10.0018975 C100.472133,10.0006325 100.42413,10 100.376015,10 L100.376015,10 L100.376015,10 Z M100.376015,10.9035816 C100.416021,10.9035816 100.45632,10.9041012 100.495852,10.9051629 L100.500212,10.905321 C100.50787,10.9056373 100.515528,10.9059535 100.52427,10.9062246 C100.552168,10.9070604 100.584742,10.9080995 100.616187,10.9096356 L100.618739,10.9097937 C100.625719,10.9102455 100.632722,10.9106973 100.640131,10.9111039 C100.677811,10.913137 100.708691,10.9150797 100.736882,10.9171579 C100.741084,10.9175419 100.745263,10.9178808 100.749465,10.9182196 C100.749962,10.9182422 100.750481,10.9182874 100.750956,10.9183326 C101.80521,10.999926 102.776673,11.4194138 103.560665,12.1314812 C103.56437,12.13496 103.568052,12.1383711 103.571395,12.1413755 C103.603066,12.1703578 103.626491,12.1922019 103.64768,12.212397 C103.703386,12.2654598 103.758346,12.3204427 103.811522,12.3762389 C103.835241,12.4010874 103.859141,12.427088 103.879562,12.4493613 C103.88338,12.4535403 103.887242,12.4576742 103.891105,12.4617855 C104.60385,13.2460943 105.023654,14.2180319 105.105203,15.2727827 C105.105316,15.2741607 105.105428,15.2755386 105.105541,15.2769166 L105.106309,15.2858846 C105.108365,15.3131954 105.110263,15.3436235 105.112476,15.3846461 C105.11286,15.3914456 105.113267,15.398245 105.113719,15.4050445 L105.113854,15.4071679 C105.1153,15.4369409 105.116362,15.4694021 105.117288,15.5001238 C105.117333,15.5009822 105.117356,15.5018406 105.117378,15.502699 C105.117604,15.5095211 105.117853,15.5163431 105.118169,15.5231652 L105.118327,15.5271635 C105.119344,15.5681635 105.119841,15.6086214 105.119841,15.6471366 C105.119795,15.6875267 105.119321,15.7277586 105.11835,15.7667708 L105.118079,15.7732314 C105.117808,15.7798049 105.117582,15.7863559 105.117356,15.7929295 C105.117311,15.7939686 105.117288,15.7949851 105.117243,15.7960242 C105.116362,15.8261135 105.1153,15.8580777 105.113787,15.889319 L105.113583,15.8922105 C105.113177,15.8986937 105.112793,15.9051995 105.112431,15.9111405 C105.110827,15.9404843 105.108839,15.9747753 105.106332,16.0082078 C105.105925,16.0128612 105.105541,16.0175598 105.10509,16.023162 C105.023203,17.0785228 104.602676,18.0510025 103.888598,18.8357631 C103.88609,18.838519 103.883492,18.8412072 103.880962,18.8439405 C103.875767,18.849475 103.870594,18.8550094 103.865421,18.8605664 C103.865105,18.8608827 103.864811,18.8611989 103.864517,18.8615378 L103.854759,18.8721097 C103.840527,18.8875383 103.826364,18.9029896 103.811567,18.9185086 C103.75855,18.9741466 103.703205,19.0295136 103.647025,19.083096 C103.629518,19.0997897 103.609527,19.1182001 103.58836,19.1376723 L103.585198,19.1405638 C103.579234,19.146053 103.573315,19.1515649 103.567397,19.1570767 L103.56306,19.1611203 C103.305584,19.395306 103.02326,19.6008031 102.723904,19.7719866 C102.401551,19.9562721 102.224765,20.3189923 102.278212,20.6864112 C102.331659,21.0538301 102.604428,21.3512214 102.965883,21.4360677 C104.000371,21.6789052 104.934516,22.107474 105.742386,22.7098241 C105.761496,22.7240781 105.781149,22.7375414 105.801299,22.7502368 C106.788507,23.4885081 107.610111,24.4542787 108.177967,25.5442918 C108.474387,26.1132771 108.703355,26.5926498 108.857122,27.0826621 C108.975356,27.4594556 109.045903,27.8333577 109.07737,28.2603226 L91.9194846,28.2603226 C91.9634891,27.6535449 92.0986197,27.2091183 92.3226402,26.6438603 C92.3253057,26.6371286 92.3278809,26.6303743 92.3303884,26.6235974 C92.4004837,26.433529 92.4795471,26.2438899 92.5653874,26.0599884 C92.5681433,26.0540925 92.5708089,26.0481967 92.5734292,26.042233 C92.9696724,25.1431016 93.5242682,24.3334924 94.2218106,23.6359726 C94.9489001,22.9089057 95.7953979,22.338181 96.7378787,21.9395433 C97.137194,21.7706188 97.5519832,21.6341779 97.9707029,21.5339933 C98.3370601,21.4463233 98.6105742,21.1405739 98.6570861,20.7667848 C98.7035979,20.3929505 98.5133262,20.0295299 98.1796336,19.8547547 C97.8230351,19.6679844 97.4898619,19.4347925 97.1893759,19.1616172 L97.1867103,19.1591098 C97.1816051,19.1543434 97.1764998,19.149577 97.171372,19.1448332 C97.1710784,19.1445621 97.1707847,19.144291 97.170491,19.14402 C97.1474045,19.122831 97.1250183,19.1022519 97.1045973,19.0827571 C97.0485753,19.0293555 96.9934116,18.9741918 96.940665,18.9188248 C96.9221642,18.8993978 96.9026017,18.8782314 96.8783857,18.8518469 C96.8735741,18.8466287 96.8687399,18.8414331 96.8638606,18.8362601 L96.8619405,18.8341818 C96.1487209,18.0498956 95.7285555,17.0777773 95.6467362,16.0218519 C95.6463973,16.017605 95.6460359,16.0133808 95.6456293,16.0085692 C95.6435285,15.9801516 95.6416084,15.9493394 95.6395979,15.9122926 C95.6391913,15.904838 95.6387395,15.8974061 95.6382425,15.8899967 L95.638107,15.8879862 C95.6366612,15.8578292 95.6355995,15.8255939 95.6346734,15.7951658 L95.6346734,15.7951658 C95.6344475,15.7872369 95.6341312,15.779308 95.633815,15.7713564 L95.6336343,15.7666578 C95.6326629,15.7259515 95.6321659,15.6859906 95.6321659,15.6473173 C95.6321659,15.60826 95.6326629,15.5680732 95.6336794,15.5275701 L95.6338601,15.5231878 C95.6341764,15.5154847 95.6344701,15.5077591 95.634696,15.5003045 C95.6356447,15.4696505 95.6367064,15.4370764 95.6382199,15.406445 L95.6383781,15.4040279 C95.6387847,15.3978836 95.6391687,15.3917392 95.6395075,15.3855723 C95.6395527,15.3847816 95.6395979,15.3840136 95.6396431,15.383223 C95.6416084,15.346515 95.6435962,15.3147767 95.6456971,15.2863816 L95.6465555,15.2765777 C95.6466458,15.2753353 95.6467588,15.2741155 95.6468491,15.2728731 C95.6887301,14.730566 95.8211952,14.2063531 96.0404945,13.7148273 C96.2603585,13.2220365 96.5633971,12.7713751 96.9409813,12.3756064 C96.9548287,12.3611039 96.9689246,12.3468499 96.9829978,12.3325507 L96.9928695,12.3225436 C96.9993527,12.3159474 97.0057907,12.3093287 97.0122061,12.30271 C97.0153912,12.2994119 97.0185538,12.2961138 97.0218744,12.2927931 C97.0250596,12.2896306 97.0282899,12.2865358 97.0315202,12.2834185 C97.0381389,12.2770031 97.0447802,12.2705876 97.0510601,12.2643981 L97.0637554,12.2519287 C97.0771736,12.2387364 97.0905692,12.2254989 97.1040778,12.2126003 C97.5000272,11.834858 97.9506434,11.5318419 98.4433438,11.3119779 C98.9348019,11.0926786 99.4589244,10.9602136 100.001141,10.9182648 C100.002225,10.9181745 100.003332,10.9180841 100.004394,10.9179937 L100.013543,10.9172031 C100.042073,10.9150797 100.073382,10.9130918 100.112462,10.910991 C100.119623,10.910607 100.126784,10.9101552 100.133945,10.9096808 L100.136136,10.9095452 C100.163244,10.9082351 100.192339,10.9072411 100.227285,10.9061794 C100.235937,10.9059309 100.244543,10.9055921 100.25315,10.9052306 L100.257126,10.9050725 C100.297132,10.9040786 100.337161,10.9035816 100.376015,10.9035816 L100.376015,10.9035816 L100.376015,10.9035816 Z" id="Path-Copy-7" stroke="#FFFFFF" stroke-width="0.6" fill="#FFFFFF" sketch:type="MSShapeGroup"></path>
        </g>
    </g>
</svg>