<?xml version="1.0" encoding="UTF-8" standalone="no"?>
<svg width="40px" height="40px" viewBox="0 0 40 40" version="1.1" xmlns="http://www.w3.org/2000/svg" xmlns:xlink="http://www.w3.org/1999/xlink" xmlns:sketch="http://www.bohemiancoding.com/sketch/ns">
    <!-- Generator: Sketch 3.3.3 (12072) - http://www.bohemiancoding.com/sketch -->
    <title>card_s_what</title>
    <desc>Created with Sketch.</desc>
    <defs></defs>
    <g id="Page-1" stroke="none" stroke-width="1" fill="none" fill-rule="evenodd" sketch:type="MSPage">
        <g id="Artboard-1" sketch:type="MSArtboardGroup" transform="translate(-120.000000, 0.000000)" fill="#FFFFFF">
            <path d="M145,12.49496 C145,11.9979038 145.402944,11.59496 145.9,11.59496 C146.397056,11.59496 146.8,11.9979037 146.8,12.49496 L146.8,27.50504 C146.8,28.0020962 146.397056,28.40504 145.9,28.40504 C145.402944,28.40504 145,28.0020963 145,27.50504 L145,12.49496 Z M133,12.49496 C133,11.9979038 133.402944,11.59496 133.9,11.59496 C134.397056,11.59496 134.8,11.9979037 134.8,12.49496 L134.8,27.50504 C134.8,28.0020962 134.397056,28.40504 133.9,28.40504 C133.402944,28.40504 133,28.0020963 133,27.50504 L133,12.49496 Z M139,8.9 C139,8.40294373 139.402944,8 139.9,8 C140.397056,8 140.8,8.40294373 140.8,8.9 L140.8,30.9 C140.8,31.3970563 140.397056,31.8 139.9,31.8 C139.402944,31.8 139,31.3970563 139,30.9 L139,8.9 Z" id="Shape" sketch:type="MSShapeGroup"></path>
        </g>
    </g>
</svg>