<?xml version="1.0" encoding="UTF-8" standalone="no"?>
<svg width="40px" height="40px" viewBox="0 0 40 40" version="1.1" xmlns="http://www.w3.org/2000/svg" xmlns:xlink="http://www.w3.org/1999/xlink" xmlns:sketch="http://www.bohemiancoding.com/sketch/ns">
    <!-- Generator: Sketch 3.3.3 (12072) - http://www.bohemiancoding.com/sketch -->
    <title>card_s_which_disabled</title>
    <desc>Created with Sketch.</desc>
    <defs></defs>
    <g id="Page-1" stroke="none" stroke-width="1" fill="none" fill-rule="evenodd" sketch:type="MSPage">
        <g id="Artboard-1" sketch:type="MSArtboardGroup" transform="translate(0.000000, -40.000000)" fill="#1FB293">
            <g id="Group" sketch:type="MSLayerGroup" transform="translate(4.000000, 53.000000)">
                <path d="M18.8,7.2 L18.8,7.1 C18.6,5 17.3,2.8 14.7,2.8 C12,2.8 10.4,4.8 10.4,7.9 C10.4,11 12.1,13 14.8,13 C16.6,13 17.8,12.2 18.5,10.7 C18.6,10.5 18.6,10.4 18.6,10.3 C18.6,9.9 18.4,9.6 18,9.5 C17.9,9.5 17.7,9.4 17.6,9.4 C17.3,9.4 17,9.6 16.8,9.9 C16.4,10.8 15.7,11.3 14.8,11.3 C13.3,11.3 12.3,10.2 12.2,8.3 L17.7,8.3 C18.4,8.4 18.8,7.9 18.8,7.2 L18.8,7.2 Z M16.9,6.7 L12.4,6.7 C12.6,5.6 13.2,4.4 14.8,4.4 C16.4,4.4 16.9,6 17,6.6 L16.9,6.7 L16.9,6.7 L16.9,6.7 Z" id="Shape" sketch:type="MSShapeGroup"></path>
                <path d="M26.8,4.3 C26.4,3.3 25.6,2.8 24.3,2.8 C23.1,2.8 22.4,3.3 21.9,3.9 L21.9,3.8 C21.9,3.3 21.5,2.9 21,2.9 C20.4,2.9 20,3.2 20,3.8 L20,12 C20,12.5 20.4,12.9 20.9,12.9 C21.5,12.9 21.8,12.6 21.8,12 L21.8,7.1 C21.8,6.6 22,6 22.2,5.6 C22.7,4.9 23.2,4.6 23.8,4.6 C24.8,4.6 25.2,5.2 25.2,6.6 L25.2,12 C25.2,12.5 25.5,12.9 26.1,12.9 C26.7,12.9 27,12.6 27,12 L27,7 C27,6.5 27.2,5.9 27.4,5.6 C27.9,4.9 28.4,4.5 29,4.5 C30,4.5 30.4,5.1 30.4,6.5 L30.4,12 C30.4,12.5 30.7,12.9 31.3,12.9 C31.9,12.9 32.2,12.6 32.2,12 L32.2,6.3 C32.2089984,4.02933414 31.5,2.8 29.6,2.8 C28,2.8 27.2,3.6 26.8,4.3 Z" id="Shape" sketch:type="MSShapeGroup"></path>
                <path d="M9.1,10.8 C9,10.8 8.9,10.8 8.7,10.9 C8.4,11.1 8.2,11.2 7.8,11.2 C7.5,11.2 7.1,11.1 7.1,10.2 L7.1,4.8 L9,4.8 C9.5,4.8 9.8,4.5 9.8,3.9 C9.8,3.4 9.5,3 9,3 L7.1,3 L7.1,1.2 C7.1,0.7 6.7,0.3 6.2,0.3 C5.6,0.3 5.3,0.6 5.3,1.2 L5.3,3 L4.3,3 C3.7,3 3.4,3.4 3.4,3.9 C3.4,4.4 3.7,4.8 4.2,4.8 L5.3,4.8 L5.3,10.4 C5.3,12.1 6.2,13.1 7.8,13.1 C8.6,13.1 9,12.9 9.5,12.7 C9.8,12.5 9.9,12.3 9.9,11.9 C9.9,11.8 9.9,11.6 9.8,11.5 C9.7,11 9.4,10.8 9.1,10.8 L9.1,10.8 Z" id="Shape" sketch:type="MSShapeGroup"></path>
                <path d="M1.7,4.7 C1.2,4.7 0.8,5.1 0.8,5.6 L0.8,11.9 C0.8,12.4 1.2,12.8 1.7,12.8 C2.2,12.8 2.6,12.4 2.6,11.9 L2.6,5.6 C2.5,5.1 2.1,4.7 1.7,4.7 L1.7,4.7 Z" id="Shape" sketch:type="MSShapeGroup"></path>
                <path d="M1.7,0.5 C1,0.5 0.4,1 0.4,1.8 C0.4,2.5 1,3.1 1.7,3.1 C2.4,3.1 3,2.5 3,1.8 C3,1 2.4,0.5 1.7,0.5 L1.7,0.5 Z" id="Shape" sketch:type="MSShapeGroup"></path>
            </g>
        </g>
    </g>
</svg>