<?xml version="1.0" encoding="UTF-8" standalone="no"?>
<svg width="40px" height="40px" viewBox="0 0 40 40" version="1.1" xmlns="http://www.w3.org/2000/svg" xmlns:xlink="http://www.w3.org/1999/xlink" xmlns:sketch="http://www.bohemiancoding.com/sketch/ns">
    <!-- Generator: Sketch 3.3.3 (12072) - http://www.bohemiancoding.com/sketch -->
    <title>card_s_where_disabled</title>
    <desc>Created with Sketch.</desc>
    <defs></defs>
    <g id="Page-1" stroke="none" stroke-width="1" fill="none" fill-rule="evenodd" sketch:type="MSPage">
        <g id="Artboard-1" sketch:type="MSArtboardGroup" transform="translate(-40.000000, -40.000000)" fill="#1FB293">
            <path d="M61.0313074,72.1309716 C61.1027852,72.0552805 61.2342528,71.9136434 61.4171705,71.7127279 C61.7205954,71.3794481 62.0583276,71.0002865 62.4218394,70.5818874 C63.4603204,69.3866044 64.498851,68.1147891 65.4695072,66.8188791 C66.3239999,65.6780573 67.0860391,64.57054 67.7319876,63.5137063 C69.1876946,61.13203 70,59.1098851 70,57.5 C70,52.2532949 65.7467051,48 60.5,48 C55.2532949,48 51,52.2532949 51,57.5 C51,59.1098851 51.8123054,61.13203 53.2680124,63.5137063 C53.9139609,64.57054 54.6760001,65.6780573 55.5304928,66.8188791 C56.501149,68.1147891 57.5396796,69.3866044 58.5781606,70.5818874 C58.9416724,71.0002865 59.2794046,71.3794481 59.5828295,71.7127279 C59.7657472,71.9136434 59.8972148,72.0552805 59.9686926,72.1309716 C60.2570756,72.436353 60.7429244,72.436353 61.0313074,72.1309716 L61.0313074,72.1309716 Z M61.0313074,71.1275053 C61.0145209,71.1097294 61.0558083,71.1537932 61.0313073,71.1275055 C60.960146,71.0511548 60.7950513,70.873228 60.6635647,70.7288041 C60.3675305,70.4036421 60.0372939,70.0328956 59.6814548,69.6233278 C58.6646474,68.4529909 57.6478895,67.2078391 56.7002764,65.9426936 C55.8716393,64.8363914 55.1350737,63.7658962 54.5150612,62.7514963 C53.188815,60.5816304 52.4615385,58.7711554 52.4615385,57.5 C52.4615385,53.0604803 56.0604803,49.4615385 60.5,49.4615385 C64.9395197,49.4615385 68.5384615,53.0604803 68.5384615,57.5 C68.5384615,58.7711554 67.811185,60.5816304 66.4849388,62.7514963 C65.8649263,63.7658962 65.1283607,64.8363914 64.2997236,65.9426936 C63.3521105,67.2078391 62.3353526,68.4529909 61.3185452,69.6233278 C60.9627061,70.0328956 60.6324695,70.4036421 60.3364353,70.7288041 C60.1596775,70.9229536 60.034234,71.0581006 59.9686926,71.1275053 L61.0313074,71.1275053 Z M60.5,62.1282051 C63.0560871,62.1282051 65.1282051,60.0560871 65.1282051,57.5 C65.1282051,54.9439129 63.0560871,52.8717949 60.5,52.8717949 C57.9439129,52.8717949 55.8717949,54.9439129 55.8717949,57.5 C55.8717949,60.0560871 57.9439129,62.1282051 60.5,62.1282051 L60.5,62.1282051 Z M60.5,60.6666667 C58.7510983,60.6666667 57.3333333,59.2489017 57.3333333,57.5 C57.3333333,55.7510983 58.7510983,54.3333333 60.5,54.3333333 C62.2489017,54.3333333 63.6666667,55.7510983 63.6666667,57.5 C63.6666667,59.2489017 62.2489017,60.6666667 60.5,60.6666667 L60.5,60.6666667 Z" id="Shape-Copy-2" sketch:type="MSShapeGroup"></path>
        </g>
    </g>
</svg>