<?xml version="1.0" encoding="UTF-8" standalone="no"?>
<svg width="40px" height="40px" viewBox="0 0 40 40" version="1.1" xmlns="http://www.w3.org/2000/svg" xmlns:xlink="http://www.w3.org/1999/xlink" xmlns:sketch="http://www.bohemiancoding.com/sketch/ns">
    <!-- Generator: Sketch 3.3.3 (12072) - http://www.bohemiancoding.com/sketch -->
    <title>card_b_jiao</title>
    <desc>Created with Sketch.</desc>
    <defs></defs>
    <g id="Page-1" stroke="none" stroke-width="1" fill="none" fill-rule="evenodd" sketch:type="MSPage">
        <g id="jiaobingbu" sketch:type="MSArtboardGroup">
            <g id="Oval-Copy-4-+-Shape-Copy-2-+-Shape-Copy-3" sketch:type="MSLayerGroup" transform="translate(9.000000, 7.000000)">
                <circle id="Oval-Copy-10" stroke="#FFFFFF" stroke-width="1.5" fill="#FFFFFF" sketch:type="MSShapeGroup" cx="10" cy="15" r="10"></circle>
                <circle id="Oval-Copy-11" stroke="#FFFFFF" stroke-width="1.5" fill="#FFFFFF" sketch:type="MSShapeGroup" cx="15" cy="10" r="10"></circle>
                <path d="M19.1162381,19.1162381 C17.8608775,19.6839608 16.4673462,20 15,20 C9.4771525,20 5,15.5228475 5,10 C5,8.53265381 5.31603921,7.13912253 5.88376189,5.88376189 C7.13912253,5.31603921 8.53265381,5 10,5 C15.5228475,5 20,9.4771525 20,15 C20,16.4673462 19.6839608,17.8608775 19.1162381,19.1162381 Z" id="Oval-Copy-4" fill="#C6EFDC" sketch:type="MSShapeGroup"></path>
                <path d="M15,18.5 L15,18.5 C19.6944204,18.5 23.5,14.6944204 23.5,10 C23.5,5.30557963 19.6944204,1.5 15,1.5 C10.3055796,1.5 6.5,5.30557963 6.5,10 C6.5,14.6944204 10.3055796,18.5 15,18.5 L15,18.5 Z M15,20 L15,20 C9.4771525,20 5,15.5228475 5,10 C5,4.4771525 9.4771525,0 15,0 C20.5228475,0 25,4.4771525 25,10 C25,15.5228475 20.5228475,20 15,20 L15,20 Z" id="Shape-Copy-2" fill="#15C19C" sketch:type="MSShapeGroup"></path>
                <path d="M10,23.5 L10,23.5 C14.6944204,23.5 18.5,19.6944204 18.5,15 C18.5,10.3055796 14.6944204,6.5 10,6.5 C5.30557963,6.5 1.5,10.3055796 1.5,15 C1.5,19.6944204 5.30557963,23.5 10,23.5 L10,23.5 Z M10,25 L10,25 C4.4771525,25 0,20.5228475 0,15 C0,9.4771525 4.4771525,5 10,5 C15.5228475,5 20,9.4771525 20,15 C20,20.5228475 15.5228475,25 10,25 L10,25 Z" id="Shape-Copy-3" fill="#15C19C" sketch:type="MSShapeGroup"></path>
            </g>
        </g>
    </g>
</svg>