<?xml version="1.0" encoding="UTF-8" standalone="no"?>
<svg width="40px" height="45px" viewBox="0 0 40 45" version="1.1" xmlns="http://www.w3.org/2000/svg" xmlns:xlink="http://www.w3.org/1999/xlink" xmlns:sketch="http://www.bohemiancoding.com/sketch/ns">
    <!-- Generator: Sketch 3.3.3 (12072) - http://www.bohemiancoding.com/sketch -->
    <title>card_s_people</title>
    <desc>Created with Sketch.</desc>
    <defs></defs>
    <g id="Page-1" stroke="none" stroke-width="1" fill="none" fill-rule="evenodd" sketch:type="MSPage">
        <g id="Artboard-8" sketch:type="MSArtboardGroup" transform="translate(-19.000000, -202.000000)" stroke="#15c19c" stroke-width="0.6" fill="#15c19c">
            <g id="card_s" sketch:type="MSLayerGroup" transform="translate(19.000000, 157.000000)">
                <path d="M19.7850777,58 C19.7348863,58 19.6847892,58.0006601 19.6347865,58.0019096 C19.6239655,58.0021925 19.6131917,58.0027819 19.6023707,58.0030883 C19.562906,58.0042907 19.5234885,58.0056109 19.4841652,58.0075676 C19.4755603,58.0080155 19.466979,58.0086756 19.4583505,58.0091471 C19.4165754,58.0114103 19.3747532,58.0139565 19.3331196,58.0170919 C19.3290647,58.0173984 19.3250569,58.0177992 19.3209784,58.0181292 C17.9685225,58.1227791 16.7078916,58.6837484 15.7193645,59.6268228 C15.6973925,59.6477811 15.6757977,59.6691872 15.6541086,59.6904991 C15.6419439,59.7024517 15.6295669,59.7141449 15.6174965,59.7262154 C15.6056146,59.7380972 15.5940864,59.7502856 15.5822989,59.7622617 C15.5607984,59.7841158 15.5392272,59.8058992 15.5180332,59.8280834 C14.5747937,60.8167756 14.0138244,62.0775951 13.9093161,63.4303103 C13.9090096,63.4341294 13.9086324,63.4379014 13.9083259,63.441697 C13.9051668,63.4835664 13.9026207,63.5255772 13.9003575,63.5676352 C13.899886,63.5760279 13.8992495,63.5843735 13.8988251,63.5927662 C13.8968448,63.6322781 13.895501,63.6719314 13.8942987,63.7115847 C13.8939687,63.722217 13.8934029,63.7327787 13.8931435,63.7434111 C13.8918941,63.7934138 13.891234,63.8435109 13.891234,63.8937023 L13.891234,63.8942681 C13.891234,63.9442708 13.8918941,63.9941557 13.89312,64.0439463 C13.8934029,64.0549795 13.8939922,64.0659655 13.8943223,64.076975 C13.8955246,64.1162276 13.8968448,64.1554329 13.898778,64.194544 C13.8992259,64.2033847 13.8999096,64.212131 13.9003811,64.2209717 C13.9026443,64.2625817 13.9051668,64.304121 13.9082787,64.3455661 C13.9086088,64.3498331 13.9090332,64.3540767 13.9093632,64.3583438 C14.0105239,65.6638616 14.536885,66.883684 15.4216582,67.8558501 C15.4279528,67.8627576 15.4344123,67.8694765 15.4407305,67.8763369 C15.4659558,67.9038254 15.4912519,67.9312197 15.5170194,67.9583074 C15.583124,68.0276889 15.650926,68.0954673 15.7203075,68.161619 C15.7473717,68.1874573 15.7748367,68.2127298 15.8023252,68.2379316 C15.8091856,68.2442497 15.8159045,68.2506857 15.8227884,68.2569803 C16.1995655,68.59988 16.6136384,68.888722 17.0553885,69.1200644 C16.5668183,69.2369733 16.0878432,69.3944078 15.6208206,69.591967 C14.5248617,70.0554769 13.5406252,70.719045 12.695576,71.564047 C11.8834848,72.3761382 11.2395548,73.3170673 10.7791332,74.3618682 C10.6779253,74.5787119 10.5860532,74.7991626 10.5036583,75.0225838 C10.1692927,75.8662656 10,76.5121995 10,77.5477119 C10,77.7957454 10.2009777,77.9966995 10.4489405,77.9966995 L10.5173082,77.9966995 L10.5173082,78 L29.3697906,78 C29.6262405,77.9971003 29.8317681,77.7869047 29.8289156,77.5303842 C29.8285384,77.4912024 29.8277368,77.4525864 29.8268409,77.4141118 L29.8269824,77.4139468 C29.8269352,77.4135932 29.8268881,77.4132631 29.8268409,77.4129095 C29.7930343,75.9713398 29.4394786,75.0836668 28.7638165,73.7867774 C28.1022994,72.5169994 27.143689,71.392939 25.9917157,70.5362673 C25.9779714,70.5260357 25.9637792,70.5168415 25.9493277,70.5083308 C25.0556431,69.8419809 23.983,69.3172936 22.703509,69.016947 C23.0746753,68.804724 23.4245768,68.5507024 23.7471548,68.2571453 C23.7555004,68.2495306 23.7636809,68.2417036 23.7720501,68.2340653 C23.7980298,68.2101366 23.8239624,68.1863022 23.8495886,68.1618784 C23.9191351,68.0955852 23.9870785,68.0276654 24.0533717,67.9580717 C24.0755322,67.9348267 24.0971742,67.9112044 24.1189104,67.8876529 C24.1288591,67.8769027 24.1389728,67.8663646 24.1488036,67.8555436 C25.0332468,66.8835426 25.5594664,65.6640502 25.6607214,64.358886 C25.661075,64.3544539 25.6614994,64.3500453 25.661853,64.3456132 C25.6649885,64.3042389 25.6674639,64.2627468 25.6697743,64.2212074 C25.6702693,64.2123432 25.6709294,64.2035261 25.6713538,64.1946619 C25.6733105,64.1555508 25.6746307,64.1163454 25.6757859,64.0770929 C25.6761631,64.0660598 25.6767053,64.0550973 25.6770118,64.0440642 C25.6782613,63.9942736 25.6788742,63.9443651 25.6789214,63.8943859 L25.6789214,63.8938201 C25.6789214,63.8436288 25.6782613,63.7935317 25.6770118,63.7435289 C25.6767525,63.7328966 25.6761867,63.7223585 25.6758331,63.7117497 C25.6746307,63.6720728 25.6733341,63.6324195 25.6713538,63.5928841 C25.6709059,63.5844678 25.6702693,63.5761222 25.6698214,63.5677295 C25.6675346,63.5256951 25.6650357,63.4837314 25.661853,63.4418856 C25.6615465,63.4379486 25.6611693,63.4340587 25.6608393,63.4301452 C25.5598672,62.1241794 25.0333411,60.9038855 24.1482142,59.9314366 C24.1444894,59.9273581 24.1406702,59.9233739 24.1369218,59.9192718 C24.1091739,59.8889778 24.0813081,59.8588017 24.0528766,59.8290028 C23.986937,59.7597863 23.9193473,59.6921965 23.8501308,59.626257 C23.8192238,59.5967881 23.7879161,59.5678379 23.7565141,59.5390999 C23.7535672,59.5364123 23.7506675,59.5336305 23.7477206,59.5309193 C22.7753659,58.6457925 21.5551427,58.1192664 20.2492477,58.0182 C20.2451927,58.0178699 20.241185,58.0174691 20.2371301,58.0171627 C20.1954729,58.0140272 20.1536978,58.0114811 20.1118992,58.0092179 C20.1032943,58.0087464 20.0947129,58.0080863 20.0860844,58.0076383 C20.0467612,58.0056816 20.0073436,58.0043378 19.9678789,58.0031591 C19.957058,58.002829 19.9462842,58.0022396 19.9354396,58.0019803 C19.8853897,58.0006601 19.8352926,58 19.7850777,58 L19.7850777,58 L19.7850777,58 Z M19.7850777,58.9430037 C19.8268292,58.9430037 19.8688871,58.9435459 19.9101435,58.9446539 L19.9146935,58.944819 C19.9226855,58.945149 19.9306774,58.9454791 19.939801,58.945762 C19.9689162,58.9466342 20.0029115,58.9477187 20.0357281,58.9493218 L20.038392,58.9494868 C20.0456767,58.9499583 20.052985,58.9504298 20.0607176,58.9508542 C20.1000409,58.9529759 20.1322681,58.9550034 20.1616898,58.9571723 C20.1660747,58.9575731 20.1704361,58.9579267 20.1748211,58.9582803 C20.1753397,58.9583039 20.175882,58.9583511 20.1763771,58.9583982 C21.2766266,59.0435514 22.2904734,59.4813409 23.1086706,60.224475 C23.1125369,60.2281055 23.1163796,60.2316654 23.1198687,60.2348008 C23.152921,60.2650477 23.1773684,60.2878448 23.1994818,60.3089209 C23.257618,60.3642988 23.3149762,60.4216806 23.370472,60.4799111 C23.3952258,60.5058437 23.4201683,60.5329786 23.4414801,60.5562236 C23.4454643,60.560585 23.4494957,60.5648993 23.453527,60.5691899 C24.1973683,61.3877171 24.6354878,62.402059 24.7205939,63.5028272 C24.7207118,63.5042653 24.7208297,63.5057034 24.7209475,63.5071415 L24.7217491,63.5165008 C24.7238944,63.5450031 24.7258747,63.5767587 24.7281851,63.6195711 C24.7285859,63.6266672 24.7290102,63.6337633 24.7294817,63.6408594 L24.7296232,63.6430755 C24.731132,63.6741474 24.73224,63.7080248 24.7332066,63.740087 C24.7332537,63.7409828 24.7332773,63.7418787 24.7333009,63.7427745 C24.7335366,63.7498942 24.733796,63.7570139 24.734126,63.7641336 L24.734291,63.7683064 C24.7353519,63.8110951 24.7358706,63.8533181 24.7358706,63.8935137 C24.7358234,63.9356659 24.7353283,63.9776532 24.7343146,64.0183674 L24.7340317,64.0251098 C24.7337488,64.0319702 24.7335131,64.038807 24.7332773,64.0456673 C24.7332302,64.0467518 24.7332066,64.0478126 24.7331594,64.0488971 C24.73224,64.0802991 24.731132,64.1136579 24.7295524,64.1462622 L24.7293403,64.1492798 C24.7289159,64.1560459 24.7285151,64.1628355 24.7281379,64.1690358 C24.7264641,64.1996598 24.7243895,64.2354468 24.7217727,64.2703379 C24.7213483,64.2751944 24.7209475,64.280098 24.720476,64.2859446 C24.6350163,65.3873494 24.1961424,66.4022571 23.4509102,67.2212558 C23.4482933,67.2241319 23.4455822,67.2269374 23.4429418,67.22979 C23.4375195,67.2355659 23.4321208,67.2413418 23.4267221,67.2471412 C23.4263921,67.2474713 23.4260856,67.2478013 23.4257791,67.248155 L23.4155947,67.2591881 C23.4007424,67.2752899 23.3859608,67.2914152 23.3705191,67.3076113 C23.3151884,67.3656768 23.2574294,67.4234593 23.1987981,67.4793795 C23.1805274,67.4968014 23.1596635,67.5160151 23.1375736,67.5363369 L23.1342731,67.5393545 C23.1280493,67.5450832 23.1218726,67.5508356 23.1156959,67.5565879 L23.1111695,67.5608078 C22.8424606,67.8052108 22.5478191,68.0196734 22.235402,68.1983255 C21.8989854,68.3906511 21.7144868,68.7691963 21.7702654,69.1526452 C21.8260441,69.5360941 22.1107133,69.8464601 22.4879384,69.9350082 C23.5675597,70.1884404 24.5424605,70.6357071 25.3855765,71.2643369 C25.4055211,71.2792128 25.4260314,71.2932635 25.4470604,71.3065127 C26.477339,72.0769939 27.3347887,73.0848998 27.9274194,74.2224687 C28.2367717,74.8162781 28.4757289,75.3165652 28.6362045,75.8279561 C28.7595965,76.2211886 28.8332215,76.6114035 28.8660617,77.0569963 L10.9596005,77.0569963 C11.0055248,76.4237458 11.146551,75.9599294 11.3803452,75.3700099 C11.3831271,75.3629845 11.3858146,75.3559356 11.3884315,75.348863 C11.461585,75.1505022 11.5440978,74.9525893 11.6336831,74.7606645 C11.6365593,74.7545114 11.6393412,74.7483583 11.6420759,74.7421345 C12.0556066,73.8037751 12.6343987,72.9588438 13.3623739,72.2308921 C14.1211854,71.4721042 15.0046148,70.8764795 15.9882148,70.4604498 C16.4049517,70.2841553 16.8378376,70.1417617 17.2748255,70.0372062 C17.6571663,69.9457113 17.9426135,69.6266224 17.9911546,69.2365254 C18.0396957,68.8463812 17.8411227,68.4671051 17.4928715,68.2847046 C17.1207151,68.0897857 16.773006,67.8464201 16.4594102,67.5613265 L16.4566283,67.5587096 C16.4513003,67.5537353 16.4459724,67.548761 16.4406208,67.5438102 C16.4403144,67.5435273 16.4400079,67.5432444 16.4397014,67.5429615 C16.4156077,67.520848 16.3922447,67.4993711 16.3709329,67.4790258 C16.3124666,67.4232943 16.2548963,67.3657239 16.1998484,67.3079414 C16.1805404,67.2876668 16.1601244,67.2655769 16.1348519,67.2380412 C16.1298304,67.2325954 16.1247853,67.2271731 16.1196931,67.2217744 L16.1176892,67.2196055 C15.3733528,66.4011019 14.9348561,65.3865714 14.8494671,64.2845773 C14.8491135,64.2801452 14.8487363,64.2757366 14.848312,64.2707151 C14.8461195,64.2410577 14.8441156,64.2089012 14.8420174,64.1702381 C14.8415931,64.1624583 14.8411216,64.1547021 14.8406029,64.1469695 L14.8404615,64.1448713 C14.8389527,64.1133985 14.8378446,64.0797569 14.836878,64.0480012 L14.836878,64.0480012 C14.8366423,64.0397264 14.8363122,64.0314515 14.8359822,64.0231531 L14.8357936,64.0182495 C14.8347799,63.9757672 14.8342612,63.9340628 14.8342612,63.8937023 C14.8342612,63.8529409 14.8347799,63.8110008 14.8358407,63.7687307 L14.8360293,63.7641571 C14.8363594,63.756118 14.8366659,63.7480553 14.8369016,63.7402756 C14.8378918,63.7082842 14.8389998,63.6742889 14.8405793,63.6423211 L14.8407444,63.6397985 C14.8411687,63.6333861 14.8415695,63.6269737 14.8419231,63.6205377 C14.8419703,63.6197125 14.8420174,63.618911 14.8420646,63.6180859 C14.8441156,63.5797763 14.8461902,63.5466533 14.8483827,63.5170194 L14.8492785,63.5067879 C14.8493728,63.5054912 14.8494907,63.5042182 14.849585,63.5029215 C14.8932932,62.9369543 15.0315376,62.3898707 15.2604046,61.8769003 C15.4898609,61.3626097 15.8061208,60.8922866 16.2001785,60.479251 C16.21463,60.4641158 16.2293409,60.4492399 16.2440281,60.4343168 L16.2543304,60.4238731 C16.2610965,60.4169892 16.2678154,60.4100817 16.2745107,60.4031742 C16.2778348,60.3997322 16.2811353,60.3962902 16.2846009,60.3928247 C16.287925,60.3895242 16.2912962,60.3862944 16.2946674,60.383041 C16.3015749,60.3763457 16.308506,60.3696504 16.3150599,60.3631908 L16.3283091,60.3501773 C16.3423127,60.3364095 16.3562927,60.3225945 16.3703906,60.3091331 C16.7836148,59.9149104 17.2538908,59.5986741 17.7680871,59.3692178 C18.2809868,59.1403508 18.8279761,59.0021064 19.393849,58.9583275 C19.3949806,58.9582332 19.3961358,58.9581389 19.3972438,58.9580446 L19.4067917,58.9572195 C19.4365671,58.9550034 19.4692422,58.9529288 19.5100271,58.9507363 C19.5175004,58.9503355 19.5249737,58.949864 19.532447,58.949369 L19.5347338,58.9492275 C19.5630239,58.9478601 19.5933886,58.9468228 19.6298593,58.9457148 C19.6388885,58.9454555 19.6478706,58.9451019 19.6568527,58.9447247 L19.661002,58.9445596 C19.7027535,58.9435223 19.7445285,58.9430037 19.7850777,58.9430037 L19.7850777,58.9430037 L19.7850777,58.9430037 Z" id="Path" sketch:type="MSShapeGroup"></path>
            </g>
        </g>
    </g>
</svg>