<?xml version="1.0" encoding="UTF-8" standalone="no"?>
<svg width="40px" height="45px" viewBox="0 0 40 45" version="1.1" xmlns="http://www.w3.org/2000/svg" xmlns:xlink="http://www.w3.org/1999/xlink" xmlns:sketch="http://www.bohemiancoding.com/sketch/ns">
    <!-- Generator: Sketch 3.3.3 (12072) - http://www.bohemiancoding.com/sketch -->
    <title>Rectangle 834</title>
    <desc>Created with Sketch.</desc>
    <defs></defs>
    <g id="Page-1" stroke="none" stroke-width="1" fill="none" fill-rule="evenodd" sketch:type="MSPage">
        <g id="Artboard-8" sketch:type="MSArtboardGroup" transform="translate(-22.000000, -157.000000)" fill="#15c19c">
            <path d="M52.4151102,177.851856 C52.2203005,176.665015 51.5864195,173.035559 50.9000898,171.661401 C50.4430361,170.747294 49.269682,170.047477 47.4144937,169.584429 C45.9069659,169.208297 43.9798478,169 41.9882927,169 C39.9967376,169 38.0696195,169.206798 36.5620917,169.584429 C34.7069034,170.048976 33.5335493,170.747294 33.0764956,171.661401 C32.3901659,173.03406 31.7562849,176.665015 31.5614751,177.851856 C30.513998,178.569655 30,179.60814 30,180.988293 L30,184.734634 C30,185.71168 30.6263883,186.544866 31.4985366,186.853565 L31.4985366,188.480976 C31.4985366,189.306669 32.1713795,189.979512 32.9970732,189.979512 L34.4956098,189.979512 C35.3213034,189.979512 35.9941463,189.306669 35.9941463,188.480976 L35.9941463,186.982439 L47.982439,186.982439 L47.982439,188.480976 C47.982439,189.306669 48.655282,189.979512 49.4809756,189.979512 L50.9795122,189.979512 C51.8052059,189.979512 52.4780488,189.306669 52.4780488,188.480976 L52.4780488,186.853565 C53.3501971,186.544866 53.9765854,185.71168 53.9765854,184.734634 L53.9765854,180.988293 C53.9765854,179.60814 53.4625873,178.569655 52.4151102,177.851856 L52.4151102,177.851856 Z M34.4161873,172.332745 C34.8612527,171.444113 37.6650146,170.498537 41.9882927,170.498537 C46.3115707,170.498537 49.1153327,171.442615 49.560398,172.332745 C49.990478,173.194404 50.4685112,175.473678 50.7637229,177.102587 C50.6168663,177.05913 50.4655141,177.018669 50.3096663,176.982704 C49.9095571,176.888297 49.4779785,176.811871 49.0164293,176.748933 L44.6721717,173.636472 C44.3364995,173.395208 43.8674576,173.473132 43.6261932,173.808804 C43.3849288,174.144476 43.4628527,174.613518 43.7985249,174.854782 L46.1452332,176.53614 C44.8714771,176.494181 43.474841,176.494181 41.9867941,176.494181 L41.4638049,176.494181 L37.1570107,173.622985 C36.8123473,173.393709 36.347801,173.486619 36.1185249,173.831282 C35.8892488,174.175945 35.982158,174.640492 36.3268215,174.869768 L38.7904156,176.512164 C36.780878,176.548129 35.0335844,176.657522 33.6654205,176.982704 C33.5095727,177.020168 33.3582205,177.060628 33.2113639,177.102587 C33.5080741,175.473678 33.9846088,173.194404 34.4161873,172.332745 L34.4161873,172.332745 Z M34.4956098,188.480976 L32.9970732,188.480976 L32.9970732,186.982439 L34.4956098,186.982439 L34.4956098,188.480976 L34.4956098,188.480976 Z M49.4809756,188.480976 L49.4809756,186.982439 L50.9795122,186.982439 L50.9795122,188.480976 L49.4809756,188.480976 L49.4809756,188.480976 Z M52.4780488,184.734634 C52.4780488,185.14823 52.1423766,185.483902 51.7287805,185.483902 L32.2478049,185.483902 C31.8342088,185.483902 31.4985366,185.14823 31.4985366,184.734634 L31.4985366,180.988293 C31.4985366,179.603645 32.2268254,178.864866 34.013081,178.439282 C35.8937444,177.99122 38.7184859,177.99122 41.9882927,177.99122 C45.2580995,177.99122 48.0813424,177.99122 49.9635044,178.439282 C51.74976,178.864866 52.4780488,179.603645 52.4780488,180.988293 L52.4780488,184.734634 L52.4780488,184.734634 Z M48.7317073,183.985366 C47.4924176,183.985366 46.4839024,182.976851 46.4839024,181.737561 C46.4839024,180.498271 47.4924176,179.489756 48.7317073,179.489756 C49.9709971,179.489756 50.9795122,180.498271 50.9795122,181.737561 C50.9795122,182.976851 49.9709971,183.985366 48.7317073,183.985366 L48.7317073,183.985366 Z M48.7317073,180.988293 C48.3181112,180.988293 47.982439,181.323965 47.982439,181.737561 C47.982439,182.151157 48.3181112,182.486829 48.7317073,182.486829 C49.1453034,182.486829 49.4809756,182.151157 49.4809756,181.737561 C49.4809756,181.323965 49.1453034,180.988293 48.7317073,180.988293 L48.7317073,180.988293 Z M35.244878,183.985366 C34.0055883,183.985366 32.9970732,182.976851 32.9970732,181.737561 C32.9970732,180.498271 34.0055883,179.489756 35.244878,179.489756 C36.4841678,179.489756 37.4926829,180.498271 37.4926829,181.737561 C37.4926829,182.976851 36.4841678,183.985366 35.244878,183.985366 L35.244878,183.985366 Z M35.244878,180.988293 C34.831282,180.988293 34.4956098,181.323965 34.4956098,181.737561 C34.4956098,182.151157 34.831282,182.486829 35.244878,182.486829 C35.6584741,182.486829 35.9941463,182.151157 35.9941463,181.737561 C35.9941463,181.323965 35.6584741,180.988293 35.244878,180.988293 L35.244878,180.988293 Z" id="Shape" sketch:type="MSShapeGroup"></path>
        </g>
    </g>
</svg>