<?xml version="1.0" encoding="UTF-8" standalone="no"?>
<svg width="26px" height="26px" viewBox="0 0 26 26" version="1.1" xmlns="http://www.w3.org/2000/svg" xmlns:xlink="http://www.w3.org/1999/xlink" xmlns:sketch="http://www.bohemiancoding.com/sketch/ns">
    <!-- Generator: Sketch 3.3.3 (12072) - http://www.bohemiancoding.com/sketch -->
    <title>confirm</title>
    <desc>Created with Sketch.</desc>
    <defs></defs>
    <g id="Page-1" stroke="none" stroke-width="1" fill="none" fill-rule="evenodd" sketch:type="MSPage">
        <g id="Artboard-8" sketch:type="MSArtboardGroup" transform="translate(-51.000000, -231.000000)" fill="#FFFFFF">
            <g id="confirm" sketch:type="MSLayerGroup" transform="translate(51.000000, 231.000000)">
                <path d="M19.7143643,9.68284147 L19.7143643,9.68284147 L12.6030289,17.2417669 C12.4349435,17.4198773 12.2035339,17.5302763 11.9467214,17.5302763 C11.6914773,17.5302763 11.4592429,17.4198773 11.2912252,17.2417669 L11.2912252,17.2417669 L7.27184587,12.9690516 C7.10382815,12.7909412 7,12.5443113 7,12.2722968 C7,11.7278494 7.41529904,11.2861957 7.92735565,11.2861957 C8.18335691,11.2861957 8.41563182,11.3965947 8.5828519,11.5751235 L8.5828519,11.5751235 L11.9467214,15.1502471 L18.4025606,8.28849494 C18.5705918,8.10999492 18.8028532,8 19.0580704,8 C19.5709246,8 19.9862101,8.44122077 19.9862101,8.98568264 C19.9862236,9.25810118 19.8823955,9.50431259 19.7143643,9.68284147 L19.7143643,9.68284147 Z" id="Shape-Copy-2" sketch:type="MSShapeGroup"></path>
            </g>
        </g>
    </g>
</svg>