<?xml version="1.0" encoding="utf-8"?>
<!-- Generator: Adobe Illustrator 16.0.0, SVG Export Plug-In . SVG Version: 6.00 Build 0)  -->
<!DOCTYPE svg PUBLIC "-//W3C//DTD SVG 1.1//EN" "http://www.w3.org/Graphics/SVG/1.1/DTD/svg11.dtd">
<svg version="1.1" id="图层_1" xmlns:sketch="http://www.bohemiancoding.com/sketch/ns"
	 xmlns="http://www.w3.org/2000/svg" xmlns:xlink="http://www.w3.org/1999/xlink" x="0px" y="0px" width="16px" height="16px"
	 viewBox="0 0 16 16" enable-background="new 0 0 16 16" xml:space="preserve">
<title>delete</title>
<desc>Created with Sketch.</desc>
<g id="Page-1" sketch:type="MSPage">
	<g id="Artboard-8" transform="translate(-22.000000, -57.000000)" sketch:type="MSArtboardGroup">
		<g id="delete" transform="translate(22.000000, 57.000000)" sketch:type="MSLayerGroup">
			<path id="Shape" sketch:type="MSShapeGroup" fill="#FFFFFF" d="M9.193,8.01l3.548-3.548c0.338-0.338,0.338-0.845,0-1.183
				s-0.845-0.338-1.183,0L8.01,6.827L4.461,3.194c-0.338-0.253-0.929-0.253-1.268,0c-0.253,0.338-0.253,0.93,0,1.268L6.827,8.01
				l-3.549,3.549c-0.338,0.338-0.338,0.845,0,1.183c0.338,0.338,0.845,0.338,1.183,0L8.01,9.193l3.549,3.548
				c0.338,0.338,0.845,0.338,1.183,0s0.338-0.845,0-1.183L9.193,8.01L9.193,8.01z"/>
		</g>
	</g>
</g>
</svg>
