<?xml version="1.0" encoding="UTF-8" standalone="no"?>
<svg width="26px" height="26px" viewBox="0 0 26 26" version="1.1" xmlns="http://www.w3.org/2000/svg" xmlns:xlink="http://www.w3.org/1999/xlink" xmlns:sketch="http://www.bohemiancoding.com/sketch/ns">
    <!-- Generator: Sketch 3.3.3 (12072) - http://www.bohemiancoding.com/sketch -->
    <title>eraser</title>
    <desc>Created with Sketch.</desc>
    <defs></defs>
    <g id="Page-1" stroke="none" stroke-width="1" fill="none" fill-rule="evenodd" sketch:type="MSPage">
        <g id="Artboard-8" sketch:type="MSArtboardGroup" transform="translate(-103.000000, -231.000000)" fill="#FFFFFF">
            <g id="eraser" sketch:type="MSLayerGroup" transform="translate(51.000000, 231.000000)">
                <path d="M60.8448979,8.68979588 L68.3551019,8.68979588 L67.5102039,7.84489794 L67.5102039,16.296551 C67.5102039,17.3853706 66.6299314,18.2653059 65.5372119,18.2653059 L60.8448979,18.2653059 L61.6897959,19.1102038 L61.6897959,7.84489794 L60.8448979,8.68979588 L60.8448979,8.68979588 Z M60.8448979,7 C60.3782737,7 60,7.37827369 60,7.84489794 L60,19.1102038 C60,19.5768281 60.3782737,19.9551018 60.8448979,19.9551018 L65.5372119,19.9551018 C67.563035,19.9551018 69.1999998,18.3187641 69.1999998,16.296551 L69.1999998,7.84489794 C69.1999998,7.37827369 68.8217261,7 68.3551019,7 L60.8448979,7 L60.8448979,7 Z M61.3142857,16.4816325 L67.9524308,16.4816325 L68.5156961,16.4816325 L68.5156961,15.3551019 L67.9524308,15.3551019 L61.3142857,15.3551019 L60.7510204,15.3551019 L60.7510204,16.4816325 L61.3142857,16.4816325 L61.3142857,16.4816325 Z" id="Shape-Copy-6" sketch:type="MSShapeGroup" transform="translate(64.600000, 13.477551) rotate(45.000000) translate(-64.600000, -13.477551) "></path>
            </g>
        </g>
    </g>
</svg>