<?xml version="1.0" encoding="utf-8"?>
<!DOCTYPE svg PUBLIC "-//W3C//DTD SVG 1.1//EN" "http://www.w3.org/Graphics/SVG/1.1/DTD/svg11.dtd">
<svg style="width:308px;height:308px;" version="1.1" id="图形" xmlns="http://www.w3.org/2000/svg" xmlns:xlink="http://www.w3.org/1999/xlink" x="0px" y="0px" width="1024px" height="1024px" viewBox="0 0 1024 1024" enable-background="new 0 0 1024 1024" xml:space="preserve">
  <path class="svgpath" data-index="path_0" fill="#15c19c" d="M511.848448 107.99104c-223.422464 0-404.547584 181.098496-404.547584 404.547584 0 223.442944 181.12512 404.543488 404.547584 404.543488 223.418368 0 404.543488-181.100544 404.543488-404.543488C916.389888 289.089536 735.266816 107.99104 511.848448 107.99104zM511.848448 875.229184c-200.306688 0-362.694656-162.37568-362.694656-362.688512 0-200.318976 162.387968-362.692608 362.694656-362.692608 200.302592 0 362.688512 162.373632 362.688512 362.692608C874.53696 712.853504 712.15104 875.229184 511.848448 875.229184z" />
<path class="svgpath" data-index="path_1" fill="#15c19c" d="M511.8464 10.442752c-277.354496 0-502.19008 224.796672-502.19008 502.093824s224.837632 502.091776 502.19008 502.091776c277.352448 0 502.192128-224.794624 502.192128-502.091776S789.198848 10.442752 511.8464 10.442752zM511.848448 958.928896c-246.534144 0-446.394368-199.860224-446.394368-446.390272 0-246.534144 199.860224-446.394368 446.394368-446.394368 246.528 0 446.390272 199.860224 446.390272 446.394368C958.23872 759.068672 758.376448 958.928896 511.848448 958.928896z" />
<path class="svgpath" data-index="path_2" fill="#15c19c" d="M668.043264 269.08672c-20.549632 4.184064-34.945024 30.07488-34.945024 30.07488l-121.2928 127.516672-119.00928-127.516672c0 0-14.098432-24.160256-32.079872-30.07488-50.417664-16.574464-34.291712 30.07488-34.291712 30.07488l153.337856 170.99776 0 25.176064-128.169984 0 0 0.096256c-0.208896 0-0.393216-0.055296-0.587776-0.055296-12.638208 0-22.878208 10.256384-22.878208 22.890496 0 12.640256 10.24 22.89664 22.878208 22.89664 0.208896 0 0.393216-0.059392 0.587776-0.059392l0 0.016384 128.169984 0 0 47.955968-128.169984 0 0 0.086016c-0.126976 0-0.237568-0.043008-0.362496-0.043008-12.640256 0-22.878208 10.254336-22.878208 22.890496 0 12.640256 10.237952 22.894592 22.878208 22.894592 0.135168 0 0.264192-0.043008 0.405504-0.043008l128.126976 0 0 95.041536c0 16.375808 13.293568 29.683712 29.696 29.683712 16.39424 0 29.68576-13.307904 29.68576-29.683712l0.126976 13.94688 0-108.988416 129.355776 0c0.137216 0 0.26624 0.043008 0.405504 0.043008 0.135168 0 0.264192-0.043008 0.405504-0.043008l0.290816 0 0-0.028672c12.306432-0.387072 22.183936-10.416128 22.183936-22.822912 0-12.40064-9.875456-22.444032-22.183936-22.818816l0-0.114688-130.455552 0 0-47.955968 129.355776 0c0.137216 0 0.26624 0.043008 0.405504 0.043008 0.135168 0 0.264192-0.043008 0.405504-0.043008l0.290816 0 0-0.028672c12.306432-0.393216 22.183936-10.422272 22.183936-22.82496 0-12.398592-9.875456-22.441984-22.183936-22.816768l0-0.114688-130.455552 0L539.275264 470.15936l155.623424-170.99776C694.894592 299.1616 716.58496 259.209216 668.043264 269.08672z" />

</svg>
