<?xml version="1.0" encoding="UTF-8" standalone="no"?>
<svg width="40px" height="40px" viewBox="0 0 40 40" version="1.1" xmlns="http://www.w3.org/2000/svg" xmlns:xlink="http://www.w3.org/1999/xlink" xmlns:sketch="http://www.bohemiancoding.com/sketch/ns">
    <!-- Generator: Sketch 3.3.3 (12072) - http://www.bohemiancoding.com/sketch -->
    <title>map_objlist_estate_active</title>
    <desc>Created with Sketch.</desc>
    <defs></defs>
    <g id="Page-1" stroke="none" stroke-width="1" fill="none" fill-rule="evenodd" sketch:type="MSPage">
        <g id="Artboard-7-Copy" sketch:type="MSArtboardGroup" transform="translate(-80.000000, -80.000000)">
            <rect id="Rectangle-336-Copy-34" fill="#C6EFDC" sketch:type="MSShapeGroup" x="80" y="80" width="40" height="40"></rect>
            <path d="M110.740948,101.116406 C111.140074,100.855771 111.022323,100.233154 110.761212,99.9604292 L100.498771,89.2100525 C100.369221,89.0749734 100.191497,89 100.005386,89 C99.8189047,89 99.6411801,89.0749734 99.5121063,89.2100525 L89.1957235,99.9601646 C88.9343748,100.231963 88.9028405,100.738735 89.2984482,100.992015 C89.6617279,101.197755 90.086542,101.090454 90.3485521,100.816697 L91.0442121,100.150323 L91.0442121,110.291627 C91.0442121,110.514642 91.3919363,110.862075 91.7700044,110.862075 L95.0611623,110.862075 L95.0611623,110.875038 L104.833022,110.875038 L104.833022,110.862075 L108.20336,110.862075 C108.581428,110.862075 108.969734,110.514642 108.969734,110.13668 L108.969734,100.181831 C108.969734,100.181831 109.4805,100.696803 109.649548,100.900586 C109.818727,101.104316 110.361848,101.363945 110.740948,101.116406 L110.740948,101.116406 Z M102.661995,109.556893 L97.3699939,109.556893 L97.3653908,101.743786 L102.661995,101.743786 L102.661995,109.556893 L102.661995,109.556893 Z M107.628625,109.525253 L103.998923,109.525253 L103.998923,101.090718 C103.998923,100.713311 103.693315,100.407174 103.315247,100.407174 L96.7099952,100.407174 C96.3334879,100.407174 96.0272716,100.711565 96.0261075,101.088707 L96.0201023,109.525253 L92.3706911,109.525253 L92.3706911,98.7667806 L100.005386,90.8447055 L107.628652,98.8298228 L107.628625,109.525253 L107.628625,109.525253 Z M105.149371,91.8038307 L106.631987,91.8038307 L106.631987,94.0609164 L107.968545,95.7580032 L107.968545,91.1921652 C107.968545,90.8140971 107.662911,90.4512142 107.285266,90.4512142 L104.263791,90.4512142 L103.108528,90.4450767 L104.558393,91.805709 L105.149371,91.8038307 L105.149371,91.8038307 Z" id="Shape-Copy-3" stroke="#15C19C" stroke-width="0.1" fill="#15C19C" sketch:type="MSShapeGroup"></path>
        </g>
    </g>
</svg>