<?xml version="1.0" encoding="UTF-8" standalone="no"?>
<svg width="40px" height="40px" viewBox="0 0 40 40" version="1.1" xmlns="http://www.w3.org/2000/svg" xmlns:xlink="http://www.w3.org/1999/xlink" xmlns:sketch="http://www.bohemiancoding.com/sketch/ns">
    <!-- Generator: Sketch 3.3.3 (12072) - http://www.bohemiancoding.com/sketch -->
    <title>map_objlist_blog</title>
    <desc>Created with Sketch.</desc>
    <defs></defs>
    <g id="Page-1" stroke="none" stroke-width="1" fill="none" fill-rule="evenodd" sketch:type="MSPage">
        <g id="Artboard-7-Copy" sketch:type="MSArtboardGroup" transform="translate(-40.000000, -200.000000)">
            <rect id="Rectangle-336-Copy-25" sketch:type="MSShapeGroup" x="40" y="200" width="40" height="40"></rect>
            <path d="M60.0000249,209 C53.9250763,209 49,213.282401 49,218.565214 C49,221.657867 50.6881476,224.407437 53.3065507,226.155897 L53.3043327,230.193908 L56.8999454,227.745127 C57.8832111,227.995822 58.9235243,228.130453 60,228.130453 C66.0749735,228.130453 71,223.848027 71,218.565214 C71.0000249,213.282401 66.0749985,209 60.0000249,209 L60.0000249,209 Z M60.0000249,227.173929 C58.8037968,227.173929 57.6565165,226.994562 56.5925269,226.665636 L55.7312068,227.383428 C55.7478301,227.389509 55.7645281,227.39539 55.7812012,227.401446 L54.2762586,228.469548 L54.2608566,226.508799 L54.2608566,225.630781 C51.658977,224.075121 49.956499,221.490687 49.956499,218.565239 C49.956499,213.810632 54.4532829,209.956524 60,209.956524 C65.5467171,209.956524 70.043501,213.810632 70.043501,218.565239 C70.043526,223.319846 65.5467172,227.173929 60.0000249,227.173929 L60.0000249,227.173929 Z M64.4128396,218.112197 C64.4128396,218.720174 64.9057019,219.213036 65.5136783,219.213036 C66.1216548,219.213036 66.614517,218.720174 66.614517,218.112197 C66.614517,217.504221 66.1216548,217.011359 65.5136783,217.011359 C64.9057019,217.011359 64.4128396,217.504221 64.4128396,218.112197 L64.4128396,218.112197 Z M58.8991613,218.112197 C58.8991613,218.720174 59.3920236,219.213036 60,219.213036 C60.6079764,219.213036 61.1008387,218.720174 61.1008387,218.112197 C61.1008387,217.504221 60.6079764,217.011359 60,217.011359 C59.3920236,217.011359 58.8991613,217.504221 58.8991613,218.112197 L58.8991613,218.112197 Z M53.385483,218.112197 C53.385483,218.720174 53.8783452,219.213036 54.4863217,219.213036 C55.0942981,219.213036 55.5871604,218.720174 55.5871604,218.112197 C55.5871604,217.504221 55.0942981,217.011359 54.4863217,217.011359 C53.8783452,217.011359 53.385483,217.504221 53.385483,218.112197 L53.385483,218.112197 Z" id="Shape-Copy-15" stroke="#15C19C" stroke-width="0.6" stroke-linecap="round" stroke-linejoin="round" fill="#15C19C" sketch:type="MSShapeGroup"></path>
        </g>
    </g>
</svg>