<?xml version="1.0" encoding="UTF-8" standalone="no"?>
<svg width="40px" height="40px" viewBox="0 0 40 40" version="1.1" xmlns="http://www.w3.org/2000/svg" xmlns:xlink="http://www.w3.org/1999/xlink" xmlns:sketch="http://www.bohemiancoding.com/sketch/ns">
    <!-- Generator: Sketch 3.3.3 (12072) - http://www.bohemiancoding.com/sketch -->
    <title>map_objlist_blog_disabled</title>
    <desc>Created with Sketch.</desc>
    <defs></defs>
    <g id="Page-1" stroke="none" stroke-width="1" fill="none" fill-rule="evenodd" sketch:type="MSPage">
        <g id="Artboard-7-Copy" sketch:type="MSArtboardGroup" transform="translate(-40.000000, -40.000000)">
            <rect id="Rectangle-336-Copy-17" fill="#F2F2F2" sketch:type="MSShapeGroup" x="40" y="40" width="40" height="40"></rect>
            <path d="M60.0000249,49 C53.9250763,49 49,53.2824009 49,58.5652142 C49,61.6578668 50.6881476,64.4074369 53.3065507,66.1558968 L53.3043327,70.1939081 L56.8999454,67.7451271 C57.8832111,67.9958221 58.9235243,68.1304532 60,68.1304532 C66.0749735,68.1304532 71,63.8480274 71,58.5652141 C71.0000249,53.2824009 66.0749985,49 60.0000249,49 L60.0000249,49 Z M60.0000249,67.1739293 C58.8037968,67.1739293 57.6565165,66.9945624 56.5925269,66.6656358 L55.7312068,67.3834275 C55.7478301,67.3895086 55.7645281,67.3953903 55.7812012,67.4014464 L54.2762586,68.4695482 L54.2608566,66.5087988 L54.2608566,65.6307806 C51.658977,64.0751208 49.956499,61.490687 49.956499,58.5652391 C49.956499,53.8106324 54.4532829,49.9565239 60,49.9565239 C65.5467171,49.9565239 70.043501,53.8106324 70.043501,58.5652391 C70.043526,63.3198458 65.5467172,67.1739293 60.0000249,67.1739293 L60.0000249,67.1739293 Z M64.4128396,58.1121973 C64.4128396,58.7201738 64.9057019,59.213036 65.5136783,59.213036 C66.1216548,59.213036 66.614517,58.7201738 66.614517,58.1121973 C66.614517,57.5042209 66.1216548,57.0113586 65.5136783,57.0113586 C64.9057019,57.0113586 64.4128396,57.5042209 64.4128396,58.1121973 L64.4128396,58.1121973 Z M58.8991613,58.1121973 C58.8991613,58.7201738 59.3920236,59.213036 60,59.213036 C60.6079764,59.213036 61.1008387,58.7201738 61.1008387,58.1121973 C61.1008387,57.5042209 60.6079764,57.0113586 60,57.0113586 C59.3920236,57.0113586 58.8991613,57.5042209 58.8991613,58.1121973 L58.8991613,58.1121973 Z M53.385483,58.1121973 C53.385483,58.7201738 53.8783452,59.213036 54.4863217,59.213036 C55.0942981,59.213036 55.5871604,58.7201738 55.5871604,58.1121973 C55.5871604,57.5042209 55.0942981,57.0113586 54.4863217,57.0113586 C53.8783452,57.0113586 53.385483,57.5042209 53.385483,58.1121973 L53.385483,58.1121973 Z" id="Shape-Copy-11" stroke="#CCCCCC" stroke-width="0.6" stroke-linecap="round" stroke-linejoin="round" fill="#CCCCCC" sketch:type="MSShapeGroup"></path>
        </g>
    </g>
</svg>