<?xml version="1.0" encoding="utf-8"?>
<!-- Generator: Adobe Illustrator 16.0.0, SVG Export Plug-In . SVG Version: 6.00 Build 0)  -->
<!DOCTYPE svg PUBLIC "-//W3C//DTD SVG 1.1//EN" "http://www.w3.org/Graphics/SVG/1.1/DTD/svg11.dtd">
<svg version="1.1" id="图层_1" xmlns:sketch="http://www.bohemiancoding.com/sketch/ns"
	 xmlns="http://www.w3.org/2000/svg" xmlns:xlink="http://www.w3.org/1999/xlink" x="0px" y="0px" width="40px" height="40px"
	 viewBox="0 0 40 40" enable-background="new 0 0 40 40" xml:space="preserve">
<title>map_objlist_blog_active</title>
<desc>Created with Sketch.</desc>
<rect id="Rectangle-336-Copy-17" x="-22.25" y="-22.25" sketch:type="MSShapeGroup" fill="none" width="84.5" height="84.5">
</rect>
<path fill="#FFFFFF" d="M21.057,3.1C11.139,3.1,3.1,10.09,3.1,18.713c0,5.05,2.756,9.539,7.029,12.392l-0.003,6.592l5.869-3.998
	c1.604,0.41,3.303,0.631,5.061,0.631c9.916,0,17.957-6.992,17.957-15.616C39.014,10.09,30.973,3.1,21.057,3.1z"/>
<path id="Shape-Copy-11" sketch:type="MSShapeGroup" fill="#15C19C" stroke="#15C19C" stroke-width="0.4" stroke-linecap="round" stroke-linejoin="round" d="
	M21.057,3.1C11.14,3.1,3.1,10.091,3.1,18.714c0,5.05,2.757,9.538,7.03,12.392l-0.003,6.592l5.869-3.998
	c1.604,0.41,3.303,0.632,5.061,0.632c9.916,0,17.957-6.992,17.957-15.616S30.973,3.1,21.057,3.1L21.057,3.1z M21.057,32.766
	c-1.953,0-3.826-0.293-5.563-0.828l-1.406,1.172c0.027,0.01,0.055,0.021,0.082,0.027l-2.457,1.746l-0.024-3.201v-1.433
	c-4.248-2.542-7.026-6.759-7.026-11.534c0-7.762,7.34-14.053,16.396-14.053c9.053,0,16.395,6.291,16.395,14.053
	C37.451,26.477,30.109,32.766,21.057,32.766L21.057,32.766z M28.26,17.975c0,0.993,0.805,1.798,1.797,1.798s1.797-0.805,1.797-1.798
	c0-0.993-0.805-1.797-1.797-1.797S28.26,16.981,28.26,17.975L28.26,17.975z M19.26,17.975c0,0.993,0.804,1.798,1.797,1.798
	c0.992,0,1.797-0.805,1.797-1.798c0-0.993-0.805-1.797-1.797-1.797C20.063,16.178,19.26,16.981,19.26,17.975L19.26,17.975z
	 M10.259,17.975c0,0.993,0.805,1.798,1.797,1.798c0.992,0,1.797-0.805,1.797-1.798c0-0.993-0.805-1.797-1.797-1.797
	C11.064,16.178,10.259,16.981,10.259,17.975L10.259,17.975z"/>
</svg>
