<?xml version="1.0" encoding="UTF-8" standalone="no"?>
<svg width="40px" height="40px" viewBox="0 0 40 40" version="1.1" xmlns="http://www.w3.org/2000/svg" xmlns:xlink="http://www.w3.org/1999/xlink" xmlns:sketch="http://www.bohemiancoding.com/sketch/ns">
    <!-- Generator: Sketch 3.3.3 (12072) - http://www.bohemiancoding.com/sketch -->
    <title>map_objlist_people_normal</title>
    <desc>Created with Sketch.</desc>
    <defs></defs>
    <g id="Page-1" stroke="none" stroke-width="1" fill="none" fill-rule="evenodd" sketch:type="MSPage">
        <g id="Artboard-7-Copy" sketch:type="MSArtboardGroup" transform="translate(-80.000000, -280.000000)">
            <rect id="Rectangle-336-Copy-39" fill="#15C19C" sketch:type="MSShapeGroup" x="80" y="280" width="40" height="40"></rect>
            <path d="M99.869489,290 C99.8188646,290 99.7683354,290.000666 99.7179013,290.001926 C99.706987,290.002211 99.6961202,290.002806 99.6852059,290.003115 C99.6454008,290.004328 99.6056432,290.005659 99.5659807,290.007633 C99.5573016,290.008085 99.5486462,290.00875 99.5399433,290.009226 C99.4978078,290.011509 99.4556248,290.014077 99.4136321,290.017239 C99.4095422,290.017549 99.4054998,290.017953 99.4013862,290.018286 C98.0372633,290.123838 96.7657575,290.689647 95.7687028,291.640857 C95.7465412,291.661996 95.7247602,291.683587 95.702884,291.705082 C95.6906143,291.717138 95.6781306,291.728932 95.665956,291.741107 C95.6539717,291.753091 95.642344,291.765384 95.6304548,291.777464 C95.6087688,291.799507 95.5870115,291.821478 95.5656347,291.843853 C94.6142584,292.841075 94.0484498,294.112771 93.9430399,295.477155 C93.9427308,295.481007 93.9423503,295.484812 93.9420412,295.48864 C93.9388549,295.530871 93.9362868,295.573244 93.9340041,295.615665 C93.9335285,295.62413 93.9328865,295.632547 93.9324585,295.641012 C93.9304611,295.680865 93.9291057,295.72086 93.927893,295.760856 C93.9275601,295.77158 93.9269894,295.782233 93.9267279,295.792957 C93.9254676,295.843391 93.9248018,295.89392 93.9248018,295.944545 L93.9248018,295.945115 C93.9248018,295.995549 93.9254676,296.045865 93.9267041,296.096085 C93.9269894,296.107213 93.9275839,296.118294 93.9279168,296.129398 C93.9291295,296.168989 93.9304611,296.208533 93.9324109,296.247981 C93.9328627,296.256898 93.9335523,296.26572 93.9340279,296.274637 C93.9363106,296.316606 93.9388549,296.358504 93.9419937,296.400306 C93.9423266,296.40461 93.9427546,296.40889 93.9430875,296.413194 C94.0451208,297.729974 94.5760226,298.960319 95.4684283,299.940872 C95.4747772,299.947839 95.4812925,299.954616 95.4876651,299.961535 C95.5131081,299.989261 95.5386224,300.016892 95.5646122,300.044213 C95.631287,300.114193 95.6996739,300.182556 95.7696539,300.249279 C95.7969516,300.27534 95.8246535,300.30083 95.8523792,300.326249 C95.8592987,300.332622 95.8660756,300.339114 95.8730189,300.345462 C96.2530463,300.69132 96.6706912,300.982654 97.1162521,301.215992 C96.6234672,301.333909 96.1403601,301.492702 95.6693088,301.691966 C94.5638956,302.159474 93.5711685,302.828766 92.7188295,303.681058 C91.8997328,304.500155 91.2502478,305.449201 90.7858544,306.503014 C90.6837735,306.721729 90.5911088,306.944081 90.5080031,307.16943 C90.1707531,308.02039 90,308.671896 90,309.716341 C90,309.966514 90.2027114,310.169202 90.4528133,310.169202 L90.5217708,310.169202 L90.5217708,310.172531 L109.536885,310.172531 C109.795547,310.169606 110.002848,309.957597 109.99997,309.698864 C109.99959,309.659344 109.998781,309.620395 109.997878,309.581588 L109.998021,309.581422 C109.997973,309.581065 109.997925,309.580732 109.997878,309.580376 C109.96378,308.12637 109.607174,307.23104 108.925683,305.922963 C108.25846,304.642231 107.29158,303.508474 106.129669,302.644412 C106.115806,302.634092 106.101491,302.624818 106.086915,302.616234 C105.185521,301.944136 104.103625,301.414923 102.813096,301.111985 C103.187464,300.897931 103.540384,300.641718 103.865745,300.345629 C103.874163,300.337949 103.882414,300.330054 103.890855,300.32235 C103.917059,300.298215 103.943215,300.274175 103.969063,300.24954 C104.039209,300.182675 104.107739,300.114169 104.174604,300.043975 C104.196955,300.02053 104.218784,299.996704 104.240708,299.972949 C104.250742,299.962106 104.260943,299.951477 104.270859,299.940563 C105.162932,298.960177 105.693691,297.730164 105.795819,296.413741 C105.796176,296.409271 105.796604,296.404824 105.796961,296.400354 C105.800123,296.358623 105.80262,296.316773 105.80495,296.274875 C105.805449,296.265934 105.806115,296.257041 105.806543,296.2481 C105.808517,296.208652 105.809848,296.169108 105.811014,296.129517 C105.811394,296.118389 105.811941,296.107332 105.81225,296.096204 C105.81351,296.045983 105.814129,295.995644 105.814176,295.945234 L105.814176,295.944663 C105.814176,295.894039 105.81351,295.84351 105.81225,295.793076 C105.811989,295.782352 105.811418,295.771723 105.811061,295.761022 C105.809848,295.721003 105.808541,295.681008 105.806543,295.641131 C105.806091,295.632642 105.805449,295.624225 105.804998,295.61576 C105.802691,295.573363 105.800171,295.531037 105.796961,295.48883 C105.796651,295.484859 105.796271,295.480936 105.795938,295.476989 C105.694095,294.159757 105.163027,292.928936 104.270264,291.948098 C104.266507,291.943984 104.262655,291.939966 104.258874,291.935828 C104.230887,291.905273 104.202781,291.874837 104.174104,291.844781 C104.107596,291.774967 104.039423,291.706794 103.969609,291.640286 C103.938436,291.610563 103.906858,291.581363 103.875185,291.552377 C103.872213,291.549666 103.869288,291.54686 103.866316,291.544126 C102.885573,290.651363 101.654824,290.120295 100.337663,290.018357 C100.333573,290.018024 100.329531,290.01762 100.325441,290.017311 C100.283424,290.014148 100.241289,290.01158 100.19913,290.009297 C100.190451,290.008822 100.181795,290.008156 100.173092,290.007704 C100.13343,290.005731 100.093672,290.004375 100.053867,290.003186 C100.042953,290.002853 100.032086,290.002259 100.021148,290.001997 C99.9706664,290.000666 99.9201371,290 99.869489,290 L99.869489,290 L99.869489,290 Z M99.869489,290.951139 C99.9116007,290.951139 99.9540214,290.951685 99.9956337,290.952803 L100.000223,290.952969 C100.008284,290.953302 100.016345,290.953635 100.025547,290.953921 C100.054913,290.9548 100.089202,290.955894 100.122302,290.957511 L100.124989,290.957678 C100.132336,290.958153 100.139707,290.958629 100.147507,290.959057 C100.187169,290.961197 100.219674,290.963242 100.24935,290.965429 C100.253773,290.965834 100.258172,290.96619 100.262595,290.966547 C100.263118,290.966571 100.263665,290.966618 100.264164,290.966666 C101.373905,291.052554 102.396498,291.49412 103.221753,292.243664 C103.225653,292.247326 103.229529,292.250917 103.233048,292.254079 C103.266385,292.284587 103.291043,292.307581 103.313348,292.328839 C103.371985,292.384695 103.429838,292.442571 103.485813,292.501304 C103.51078,292.52746 103.535938,292.554829 103.557434,292.578275 C103.561452,292.582674 103.565518,292.587025 103.569584,292.591353 C104.319842,293.416941 104.761741,294.440034 104.847582,295.550298 C104.847701,295.551748 104.847819,295.553199 104.847938,295.554649 L104.848747,295.564089 C104.850911,295.592837 104.852908,295.624867 104.855238,295.668049 C104.855643,295.675206 104.856071,295.682363 104.856546,295.68952 L104.856689,295.691756 C104.858211,295.723096 104.859328,295.757265 104.860303,295.789604 C104.860351,295.790508 104.860374,295.791411 104.860398,295.792315 C104.860636,295.799496 104.860898,295.806677 104.86123,295.813858 L104.861397,295.818067 C104.862467,295.861225 104.86299,295.903812 104.86299,295.944354 C104.862943,295.98687 104.862443,296.02922 104.861421,296.070285 L104.861135,296.077086 C104.86085,296.084005 104.860612,296.090901 104.860374,296.09782 C104.860327,296.098914 104.860303,296.099984 104.860256,296.101078 C104.859328,296.132751 104.858211,296.166398 104.856617,296.199283 L104.856403,296.202327 C104.855975,296.209151 104.855571,296.215999 104.855191,296.222253 C104.853502,296.253141 104.85141,296.289237 104.848771,296.324429 C104.848343,296.329328 104.847938,296.334274 104.847463,296.340171 C104.761266,297.451077 104.318606,298.474739 103.566945,299.300803 C103.564306,299.303704 103.561571,299.306534 103.558908,299.309411 C103.553439,299.315237 103.547993,299.321063 103.542548,299.326912 C103.542215,299.327245 103.541906,299.327578 103.541597,299.327934 L103.531325,299.339063 C103.516344,299.355304 103.501435,299.371568 103.48586,299.387904 C103.430052,299.44647 103.371795,299.504751 103.312658,299.561154 C103.29423,299.578726 103.273186,299.598105 103.250905,299.618602 L103.247576,299.621646 C103.241299,299.627424 103.235069,299.633226 103.228839,299.639028 L103.224273,299.643284 C102.953247,299.889796 102.656063,300.106108 102.340951,300.286302 C102.001632,300.480286 101.815542,300.862097 101.871802,301.248854 C101.928062,301.635611 102.215187,301.948654 102.595666,302.037966 C103.684601,302.293584 104.667912,302.744709 105.518301,303.378762 C105.538417,303.393766 105.559105,303.407938 105.580315,303.421302 C106.619481,304.19843 107.484328,305.21503 108.082071,306.362412 C108.394092,306.961344 108.63511,307.465947 108.79697,307.98175 C108.921427,308.378374 108.995687,308.771955 109.02881,309.221392 L90.9678786,309.221392 C91.014199,308.582679 91.1564418,308.114861 91.3922528,307.519853 C91.3950587,307.512767 91.3977694,307.505657 91.4004088,307.498524 C91.4741934,307.298452 91.557418,307.098831 91.6477762,306.905251 C91.6506771,306.899045 91.653483,306.892839 91.6562413,306.886561 C92.0733393,305.940107 92.6571244,305.087887 93.3913796,304.353655 C94.156737,303.588322 95.0477873,302.987559 96.0398724,302.56794 C96.4602043,302.390125 96.8968244,302.246503 97.337582,302.141046 C97.7232211,302.048761 98.0111308,301.72692 98.0600906,301.333458 C98.1090505,300.939948 97.9087645,300.5574 97.557509,300.373426 C97.1821422,300.176826 96.8314336,299.931361 96.5151325,299.643808 L96.5123266,299.641168 C96.5069527,299.636151 96.5015788,299.631134 96.4961811,299.62614 C96.495872,299.625855 96.4955628,299.62557 96.4952537,299.625284 C96.4709521,299.60298 96.4473877,299.581318 96.4258919,299.560797 C96.3669213,299.504585 96.3088543,299.446518 96.2533316,299.388237 C96.2338571,299.367787 96.2132649,299.345507 96.1877744,299.317734 C96.1827096,299.312241 96.177621,299.306772 96.1724849,299.301326 L96.1704637,299.299139 C95.4197063,298.473574 94.9774268,297.450292 94.8913012,296.338791 C94.8909446,296.334321 94.8905641,296.329875 94.8901361,296.32481 C94.8879247,296.294896 94.8859035,296.262463 94.8837873,296.223466 C94.8833592,296.215619 94.8828837,296.207796 94.8823605,296.199997 L94.8822179,296.19788 C94.8806961,296.166136 94.8795785,296.132204 94.8786035,296.100175 L94.8786035,296.100175 C94.8783658,296.091828 94.8780329,296.083482 94.8777,296.075112 L94.8775097,296.070166 C94.8764873,296.027317 94.8759641,295.985253 94.8759641,295.944545 C94.8759641,295.903432 94.8764873,295.86113 94.8775573,295.818495 L94.8777475,295.813882 C94.8780804,295.805773 94.8783895,295.797641 94.8786273,295.789794 C94.879626,295.757527 94.8807436,295.723238 94.8823368,295.690995 L94.8825032,295.68845 C94.8829312,295.681983 94.8833355,295.675515 94.8836921,295.669023 C94.8837397,295.668191 94.8837873,295.667383 94.8838348,295.66655 C94.8859035,295.62791 94.887996,295.594502 94.8902074,295.564612 L94.891111,295.554292 C94.8912061,295.552985 94.891325,295.551701 94.8914201,295.550393 C94.9355054,294.979543 95.0749423,294.42774 95.3057836,293.910345 C95.5372194,293.391617 95.8562075,292.917237 96.2536645,292.500638 C96.2682407,292.485373 96.2830785,292.470368 96.2978925,292.455317 L96.3082837,292.444783 C96.3151081,292.437839 96.3218849,292.430872 96.328638,292.423905 C96.3319908,292.420434 96.3353198,292.416962 96.3388152,292.413466 C96.342168,292.410137 96.3455683,292.40688 96.3489686,292.403598 C96.3559357,292.396845 96.3629266,292.390092 96.369537,292.383577 L96.3829005,292.370451 C96.3970249,292.356565 96.4111255,292.34263 96.425345,292.329053 C96.8421339,291.931429 97.3164667,291.612465 97.8350988,291.381029 C98.352423,291.150188 98.9041309,291.010751 99.4748854,290.966595 C99.4760268,290.966499 99.4771919,290.966404 99.4783095,290.966309 L99.4879398,290.965477 C99.517972,290.963242 99.5509289,290.961149 99.5920657,290.958938 C99.5996034,290.958534 99.6071412,290.958058 99.614679,290.957559 L99.6169855,290.957416 C99.6455197,290.956037 99.6761463,290.954991 99.7129316,290.953873 C99.7220387,290.953611 99.7310983,290.953255 99.7401579,290.952874 L99.7443429,290.952708 C99.7864546,290.951662 99.82859,290.951139 99.869489,290.951139 L99.869489,290.951139 L99.869489,290.951139 Z" id="Path-Copy-6" stroke="#FFFFFF" stroke-width="0.6" fill="#FFFFFF" sketch:type="MSShapeGroup"></path>
        </g>
    </g>
</svg>