<?xml version="1.0" encoding="UTF-8" standalone="no"?>
<svg width="40px" height="40px" viewBox="0 0 40 40" version="1.1" xmlns="http://www.w3.org/2000/svg" xmlns:xlink="http://www.w3.org/1999/xlink" xmlns:sketch="http://www.bohemiancoding.com/sketch/ns">
    <!-- Generator: Sketch 3.3.3 (12072) - http://www.bohemiancoding.com/sketch -->
    <title>map_legend_car</title>
    <desc>Created with Sketch.</desc>
    <defs></defs>
    <g id="Page-1" stroke="none" stroke-width="1" fill="none" fill-rule="evenodd" sketch:type="MSPage">
        <g id="Artboard-4" sketch:type="MSArtboardGroup" transform="translate(0.000000, -40.000000)">
            <g id="Path-+-Shape-Copy-20" sketch:type="MSLayerGroup" transform="translate(5.000000, 47.000000)">
                <path d="M28.04625,11.2514286 C27.8025,9.74285714 27.009375,5.12952381 26.150625,3.38285714 C25.57875,2.22095238 24.110625,1.33142857 21.789375,0.742857143 C19.903125,0.264761905 17.491875,0 15,0 C12.508125,0 10.096875,0.262857143 8.210625,0.742857143 C5.889375,1.33333333 4.42125,2.22095238 3.849375,3.38285714 C2.990625,5.12761905 2.1975,9.74285714 1.95375,11.2514286 C0.643125,12.1638095 0,13.4838095 0,15.2380952 L0,20 C0,21.2419048 0.78375,22.3009524 1.875,22.6933333 L1.875,24.7619048 C1.875,25.8114286 2.716875,26.6666667 3.75,26.6666667 L5.625,26.6666667 C6.658125,26.6666667 7.5,25.8114286 7.5,24.7619048 L7.5,22.8571429 L22.5,22.8571429 L22.5,24.7619048 C22.5,25.8114286 23.341875,26.6666667 24.375,26.6666667 L26.25,26.6666667 C27.283125,26.6666667 28.125,25.8114286 28.125,24.7619048 L28.125,22.6933333 C29.21625,22.3009524 30,21.2419048 30,20 L30,15.2380952 C30,13.4838095 29.356875,12.1638095 28.04625,11.2514286 L28.04625,11.2514286 Z" id="Path" fill="#FFFFFF" sketch:type="MSShapeGroup"></path>
                <path d="M28.04625,11.2514286 C27.8025,9.74285714 27.009375,5.12952381 26.150625,3.38285714 C25.57875,2.22095238 24.110625,1.33142857 21.789375,0.742857143 C19.903125,0.264761905 17.491875,1.77635684e-15 15,1.77635684e-15 C12.508125,1.77635684e-15 10.096875,0.262857143 8.210625,0.742857143 C5.889375,1.33333333 4.42125,2.22095238 3.849375,3.38285714 C2.990625,5.12761905 2.1975,9.74285714 1.95375,11.2514286 C0.643125,12.1638095 0,13.4838095 0,15.2380952 L0,20 C0,21.2419048 0.78375,22.3009524 1.875,22.6933333 L1.875,24.7619048 C1.875,25.8114286 2.716875,26.6666667 3.75,26.6666667 L5.625,26.6666667 C6.658125,26.6666667 7.5,25.8114286 7.5,24.7619048 L7.5,22.8571429 L22.5,22.8571429 L22.5,24.7619048 C22.5,25.8114286 23.341875,26.6666667 24.375,26.6666667 L26.25,26.6666667 C27.283125,26.6666667 28.125,25.8114286 28.125,24.7619048 L28.125,22.6933333 C29.21625,22.3009524 30,21.2419048 30,20 L30,15.2380952 C30,13.4838095 29.356875,12.1638095 28.04625,11.2514286 L28.04625,11.2514286 Z M5.525625,4.23619048 C6.0825,3.10666667 9.590625,1.9047619 15,1.9047619 C20.409375,1.9047619 23.9175,3.1047619 24.474375,4.23619048 C25.0125,5.33142857 25.610625,8.22857143 25.98,10.2990476 C25.79625,10.2438095 25.606875,10.192381 25.411875,10.1466667 C24.91125,10.0266667 24.37125,9.92952381 23.79375,9.84952381 L18.358125,5.89333333 C17.938125,5.58666667 17.35125,5.68571429 17.049375,6.11238095 C16.7475,6.53904762 16.845,7.1352381 17.265,7.44190476 L20.20125,9.57904762 C18.6075,9.52571429 16.86,9.52571429 14.998125,9.52571429 L14.34375,9.52571429 L8.955,5.87619048 C8.52375,5.5847619 7.9425,5.70285714 7.655625,6.14095238 C7.36875,6.57904762 7.485,7.16952381 7.91625,7.46095238 L10.99875,9.54857143 C8.484375,9.59428571 6.298125,9.73333333 4.58625,10.1466667 C4.39125,10.1942857 4.201875,10.2457143 4.018125,10.2990476 C4.389375,8.22857143 4.985625,5.33142857 5.525625,4.23619048 L5.525625,4.23619048 Z M5.625,24.7619048 L3.75,24.7619048 L3.75,22.8571429 L5.625,22.8571429 L5.625,24.7619048 L5.625,24.7619048 Z M24.375,24.7619048 L24.375,22.8571429 L26.25,22.8571429 L26.25,24.7619048 L24.375,24.7619048 L24.375,24.7619048 Z M28.125,20 C28.125,20.5257143 27.705,20.952381 27.1875,20.952381 L2.8125,20.952381 C2.295,20.952381 1.875,20.5257143 1.875,20 L1.875,15.2380952 C1.875,13.4780952 2.78625,12.5390476 5.02125,11.9980952 C7.374375,11.4285714 10.90875,11.4285714 15,11.4285714 C19.09125,11.4285714 22.62375,11.4285714 24.97875,11.9980952 C27.21375,12.5390476 28.125,13.4780952 28.125,15.2380952 L28.125,20 L28.125,20 Z M23.4375,19.047619 C21.886875,19.047619 20.625,17.7657143 20.625,16.1904762 C20.625,14.6152381 21.886875,13.3333333 23.4375,13.3333333 C24.988125,13.3333333 26.25,14.6152381 26.25,16.1904762 C26.25,17.7657143 24.988125,19.047619 23.4375,19.047619 L23.4375,19.047619 Z M23.4375,15.2380952 C22.92,15.2380952 22.5,15.6647619 22.5,16.1904762 C22.5,16.7161905 22.92,17.1428571 23.4375,17.1428571 C23.955,17.1428571 24.375,16.7161905 24.375,16.1904762 C24.375,15.6647619 23.955,15.2380952 23.4375,15.2380952 L23.4375,15.2380952 Z M6.5625,19.047619 C5.011875,19.047619 3.75,17.7657143 3.75,16.1904762 C3.75,14.6152381 5.011875,13.3333333 6.5625,13.3333333 C8.113125,13.3333333 9.375,14.6152381 9.375,16.1904762 C9.375,17.7657143 8.113125,19.047619 6.5625,19.047619 L6.5625,19.047619 Z M6.5625,15.2380952 C6.045,15.2380952 5.625,15.6647619 5.625,16.1904762 C5.625,16.7161905 6.045,17.1428571 6.5625,17.1428571 C7.08,17.1428571 7.5,16.7161905 7.5,16.1904762 C7.5,15.6647619 7.08,15.2380952 6.5625,15.2380952 L6.5625,15.2380952 Z" id="Shape-Copy-20" fill="#15C19C" sketch:type="MSShapeGroup"></path>
            </g>
        </g>
    </g>
</svg>