<?xml version="1.0" encoding="utf-8"?>
<!-- Generator: Adobe Illustrator 16.0.0, SVG Export Plug-In . SVG Version: 6.00 Build 0)  -->
<!DOCTYPE svg PUBLIC "-//W3C//DTD SVG 1.1//EN" "http://www.w3.org/Graphics/SVG/1.1/DTD/svg11.dtd">
<svg version="1.1" id="图层_1" xmlns:sketch="http://www.bohemiancoding.com/sketch/ns"
	 xmlns="http://www.w3.org/2000/svg" xmlns:xlink="http://www.w3.org/1999/xlink" x="0px" y="0px" width="18px" height="22px"
	 viewBox="0 0 18 22" enable-background="new 0 0 18 22" xml:space="preserve">
<title>map_point</title>
<desc>Created with Sketch.</desc>
<g id="Page-1" sketch:type="MSPage">
	<g id="Artboard-8" transform="translate(-32.000000, -279.000000)" sketch:type="MSArtboardGroup">
		<path id="Shape-Copy-8" sketch:type="MSShapeGroup" d="M40.596,280C36.4,280,33,283.353,33,287.49
			c0,4.137,7.596,12.484,7.596,12.484s7.596-8.347,7.596-12.484C48.191,283.353,44.791,280,40.596,280L40.596,280z M40.635,292.444
			c-2.797,0-5.064-2.236-5.064-4.993c0-2.758,2.267-4.994,5.064-4.994c2.796,0,5.064,2.235,5.064,4.994
			C45.699,290.208,43.432,292.444,40.635,292.444L40.635,292.444z M40.635,284.408c-1.748,0-3.165,1.397-3.165,3.121
			c0,1.724,1.417,3.122,3.165,3.122c1.748,0,3.166-1.397,3.166-3.122C43.801,285.805,42.383,284.408,40.635,284.408L40.635,284.408z
			"/>
	</g>
</g>
</svg>
