<?xml version="1.0" encoding="UTF-8" standalone="no"?>
<svg width="40px" height="40px" viewBox="0 0 40 40" version="1.1" xmlns="http://www.w3.org/2000/svg" xmlns:xlink="http://www.w3.org/1999/xlink" xmlns:sketch="http://www.bohemiancoding.com/sketch/ns">
    <!-- Generator: Sketch 3.3.3 (12072) - http://www.bohemiancoding.com/sketch -->
    <title>map_objlist_car_normal</title>
    <desc>Created with Sketch.</desc>
    <defs></defs>
    <g id="Page-1" stroke="none" stroke-width="1" fill="none" fill-rule="evenodd" sketch:type="MSPage">
        <g id="Artboard-7-Copy" sketch:type="MSArtboardGroup" transform="translate(0.000000, -280.000000)">
            <rect id="Rectangle-336-Copy-36" fill="#15C19C" sketch:type="MSShapeGroup" x="0" y="280" width="40" height="40"></rect>
            <path d="M30.437,298.8605 C30.242,297.6725 29.6075,294.0395 28.9205,292.664 C28.463,291.749 27.2885,291.0485 25.4315,290.585 C23.9225,290.2085 21.9935,290 20,290 C18.0065,290 16.0775,290.207 14.5685,290.585 C12.7115,291.05 11.537,291.749 11.0795,292.664 C10.3925,294.038 9.758,297.6725 9.563,298.8605 C8.5145,299.579 8,300.6185 8,302 L8,305.75 C8,306.728 8.627,307.562 9.5,307.871 L9.5,309.5 C9.5,310.3265 10.1735,311 11,311 L12.5,311 C13.3265,311 14,310.3265 14,309.5 L14,308 L26,308 L26,309.5 C26,310.3265 26.6735,311 27.5,311 L29,311 C29.8265,311 30.5,310.3265 30.5,309.5 L30.5,307.871 C31.373,307.562 32,306.728 32,305.75 L32,302 C32,300.6185 31.4855,299.579 30.437,298.8605 L30.437,298.8605 Z M12.4205,293.336 C12.866,292.4465 15.6725,291.5 20,291.5 C24.3275,291.5 27.134,292.445 27.5795,293.336 C28.01,294.1985 28.4885,296.48 28.784,298.1105 C28.637,298.067 28.4855,298.0265 28.3295,297.9905 C27.929,297.896 27.497,297.8195 27.035,297.7565 L22.6865,294.641 C22.3505,294.3995 21.881,294.4775 21.6395,294.8135 C21.398,295.1495 21.476,295.619 21.812,295.8605 L24.161,297.5435 C22.886,297.5015 21.488,297.5015 19.9985,297.5015 L19.475,297.5015 L15.164,294.6275 C14.819,294.398 14.354,294.491 14.1245,294.836 C13.895,295.181 13.988,295.646 14.333,295.8755 L16.799,297.5195 C14.7875,297.5555 13.0385,297.665 11.669,297.9905 C11.513,298.028 11.3615,298.0685 11.2145,298.1105 C11.5115,296.48 11.9885,294.1985 12.4205,293.336 L12.4205,293.336 Z M12.5,309.5 L11,309.5 L11,308 L12.5,308 L12.5,309.5 L12.5,309.5 Z M27.5,309.5 L27.5,308 L29,308 L29,309.5 L27.5,309.5 L27.5,309.5 Z M30.5,305.75 C30.5,306.164 30.164,306.5 29.75,306.5 L10.25,306.5 C9.836,306.5 9.5,306.164 9.5,305.75 L9.5,302 C9.5,300.614 10.229,299.8745 12.017,299.4485 C13.8995,299 16.727,299 20,299 C23.273,299 26.099,299 27.983,299.4485 C29.771,299.8745 30.5,300.614 30.5,302 L30.5,305.75 L30.5,305.75 Z M26.75,305 C25.5095,305 24.5,303.9905 24.5,302.75 C24.5,301.5095 25.5095,300.5 26.75,300.5 C27.9905,300.5 29,301.5095 29,302.75 C29,303.9905 27.9905,305 26.75,305 L26.75,305 Z M26.75,302 C26.336,302 26,302.336 26,302.75 C26,303.164 26.336,303.5 26.75,303.5 C27.164,303.5 27.5,303.164 27.5,302.75 C27.5,302.336 27.164,302 26.75,302 L26.75,302 Z M13.25,305 C12.0095,305 11,303.9905 11,302.75 C11,301.5095 12.0095,300.5 13.25,300.5 C14.4905,300.5 15.5,301.5095 15.5,302.75 C15.5,303.9905 14.4905,305 13.25,305 L13.25,305 Z M13.25,302 C12.836,302 12.5,302.336 12.5,302.75 C12.5,303.164 12.836,303.5 13.25,303.5 C13.664,303.5 14,303.164 14,302.75 C14,302.336 13.664,302 13.25,302 L13.25,302 Z" id="Shape-Copy-18" fill="#FFFFFF" sketch:type="MSShapeGroup"></path>
        </g>
    </g>
</svg>