<?xml version="1.0" encoding="UTF-8" standalone="no"?>
<svg width="40px" height="40px" viewBox="0 0 40 40" version="1.1" xmlns="http://www.w3.org/2000/svg" xmlns:xlink="http://www.w3.org/1999/xlink" xmlns:sketch="http://www.bohemiancoding.com/sketch/ns">
    <!-- Generator: Sketch 3.3.3 (12072) - http://www.bohemiancoding.com/sketch -->
    <title>map_objlist_poi_active</title>
    <desc>Created with Sketch.</desc>
    <defs></defs>
    <g id="Page-1" stroke="none" stroke-width="1" fill="none" fill-rule="evenodd" sketch:type="MSPage">
        <g id="Artboard-7-Copy" sketch:type="MSArtboardGroup" transform="translate(0.000000, -80.000000)">
            <rect id="Rectangle-336-Copy-35" fill="#C6EFDC" sketch:type="MSShapeGroup" x="0" y="80" width="40" height="40"></rect>
            <g id="Rectangle-38-+-P-Copy-2" sketch:type="MSLayerGroup" transform="translate(7.000000, 89.000000)" stroke="#15C19C">
                <path d="M0,2.00570218 C0,0.897983455 0.894978851,0 1.99700466,0 L24.0029953,0 C25.1059106,0 26,0.886662592 26,2.00570218 L26,16.9033887 C26,18.0111075 25.1069928,18.9090909 23.9991346,18.9090909 L16.6476158,18.9090909 C16.2199182,18.9090909 13.7928973,22.4530839 13.0026602,22.4530839 C12.2165227,22.4530839 9.84845224,18.9090909 9.45497892,18.9090909 L2.00339052,18.9090909 C0.896948487,18.9090909 0,18.0224283 0,16.9033887 L0,2.00570218 Z" id="Rectangle-38" stroke-width="1.5" sketch:type="MSShapeGroup"></path>
                <path d="M5.06915378,10.2738854 L7.63967243,10.2738854 C9.44813467,10.2738854 10.4945405,9.27643312 10.4945405,7.5566879 C10.4945405,5.92866242 9.4822566,5 7.68516833,5 L5.16014559,5 C4.35259327,5 4,5.35541401 4,6.23821656 L4,13.5070064 C4,13.8394904 4.21610555,14 4.53457689,14 C4.84167425,14 5.06915378,13.8394904 5.06915378,13.5184713 L5.06915378,10.2738854 Z M5.06915378,9.31082803 L5.06915378,6.37579618 C5.06915378,6.12356688 5.18289354,5.97452229 5.43312102,5.97452229 L7.61692448,5.97452229 C8.75432211,5.97452229 9.37989081,6.5477707 9.37989081,7.57961783 C9.37989081,8.69171975 8.76569609,9.31082803 7.61692448,9.31082803 L5.06915378,9.31082803 Z M15.2318016,5 C12.9901805,5 11.5826509,6.67101911 11.5826509,9.24585987 C11.5826509,11.8522293 13.0006066,13.5127389 15.2318016,13.5127389 C17.4629967,13.5127389 18.8601001,11.8417197 18.8601001,9.25636943 C18.8601001,6.66050955 17.4629967,5 15.2318016,5 Z M15.2318016,5.90382166 C16.8165757,5.90382166 17.8279117,7.20700637 17.8279117,9.1933121 C17.8279117,11.3057325 16.8582803,12.5984076 15.2318016,12.5984076 C13.6366015,12.5984076 12.6148392,11.2847134 12.6148392,9.25636943 C12.6148392,7.22802548 13.6157492,5.90382166 15.2318016,5.90382166 Z M21.0609645,13.1530273 C21.0609645,13.4465363 21.288444,13.5987261 21.5955414,13.5987261 C21.9140127,13.5987261 22.1528662,13.4465363 22.1528662,13.1530273 L22.1528662,5.44569883 C22.1528662,5.14131914 21.9140127,5 21.5955414,5 C21.288444,5 21.0609645,5.14131914 21.0609645,5.44569883 L21.0609645,13.1530273 Z" id="P" stroke-width="0.6" fill="#15C19C" sketch:type="MSShapeGroup"></path>
            </g>
        </g>
    </g>
</svg>