<?xml version="1.0" encoding="UTF-8" standalone="no"?>
<svg width="40px" height="40px" viewBox="0 0 40 40" version="1.1" xmlns="http://www.w3.org/2000/svg" xmlns:xlink="http://www.w3.org/1999/xlink" xmlns:sketch="http://www.bohemiancoding.com/sketch/ns">
    <!-- Generator: Sketch 3.3.3 (12072) - http://www.bohemiancoding.com/sketch -->
    <title>map_objlist_socialnet_normal</title>
    <desc>Created with Sketch.</desc>
    <defs></defs>
    <g id="Page-1" stroke="none" stroke-width="1" fill="none" fill-rule="evenodd" sketch:type="MSPage">
        <g id="Artboard-7-Copy" sketch:type="MSArtboardGroup" transform="translate(-40.000000, -240.000000)">
            <rect id="Rectangle-336-Copy-38" fill="#15C19C" sketch:type="MSShapeGroup" x="40" y="240" width="40" height="40"></rect>
            <path d="M56.7850817,250 C56.7348879,250 56.6847586,250.000644 56.6347581,250.001869 C56.6239332,250.002191 56.6131728,250.002771 56.602348,250.003028 C56.5628502,250.004253 56.5234812,250.005606 56.4841123,250.007539 C56.4755426,250.00799 56.4669729,250.008634 56.4583388,250.00915 C56.4165214,250.011405 56.374704,250.013918 56.3330799,250.017075 C56.3290206,250.017397 56.3250257,250.017784 56.3209664,250.018106 C54.9685049,250.122746 53.7078612,250.683705 52.7193207,251.62682 C52.6973489,251.647761 52.6757636,251.669153 52.6541139,251.69048 C52.641936,251.7024 52.6295647,251.714127 52.6174512,251.726176 C52.6055954,251.738097 52.5940618,251.750275 52.5822704,251.762259 C52.5607496,251.784102 52.5392288,251.805881 52.5180301,251.828046 C51.5747865,252.81678 51.0138275,254.077552 50.9093161,255.430272 C50.908994,255.434073 50.9086074,255.437875 50.9082852,255.441676 C50.9051279,255.483558 50.902615,255.525569 50.9003599,255.567644 C50.8998444,255.57602 50.8992001,255.584332 50.8988135,255.592709 C50.896816,255.632271 50.8954629,255.671898 50.8943031,255.711589 C50.8939165,255.72222 50.893401,255.732787 50.8931433,255.743419 C50.8918546,255.793419 50.8912103,255.843484 50.8912103,255.893678 L50.8912103,255.894258 C50.8912103,255.944258 50.8918546,255.99413 50.8930789,256.043937 C50.893401,256.054955 50.8939809,256.065974 50.8943031,256.076927 C50.8955273,256.116232 50.896816,256.155407 50.898749,256.194519 C50.8992001,256.203346 50.8998444,256.212109 50.9003599,256.220936 C50.902615,256.262561 50.9051279,256.30412 50.9082208,256.345551 C50.9086074,256.349804 50.908994,256.354056 50.9093161,256.358309 C51.0104769,257.663863 51.5368351,258.883655 52.4216375,259.85583 C52.4279519,259.862724 52.4343953,259.869425 52.4407098,259.87632 C52.4659033,259.903833 52.4912258,259.931217 52.5169992,259.958279 C52.5831081,260.027674 52.6508922,260.095458 52.7202872,260.161567 C52.7473494,260.187405 52.7747981,260.212728 52.8023112,260.237921 C52.8091412,260.244236 52.8159067,260.250679 52.8227367,260.256993 C53.1995445,260.599845 53.6135948,260.888701 54.0553517,261.120017 C53.566816,261.236964 53.0878166,261.394376 52.6208017,261.591929 C51.5248504,262.055464 50.540627,262.719002 49.6955157,263.564049 C48.8834589,264.376105 48.2395094,265.317029 47.7791312,266.361821 C47.677906,266.578704 47.5860237,266.799131 47.5036131,267.022587 C47.1692671,267.866281 47,268.512163 47,269.547676 C47,269.795745 47.2009684,269.996649 47.448909,269.996649 L47.517273,269.996649 L47.517273,270 L66.3697748,270 C66.6262206,269.9971 66.8317638,269.786854 66.8288643,269.530343 C66.8285422,269.491168 66.8277045,269.452572 66.8268024,269.414105 L66.8269313,269.413912 C66.8269313,269.41359 66.8268669,269.413268 66.8268024,269.412881 C66.7930392,267.971308 66.4394276,267.08367 65.7637767,265.786751 C65.1023012,264.516957 64.143658,263.392913 62.9917138,262.536268 C62.977925,262.526023 62.9637496,262.516809 62.9493165,262.508304 C62.0556223,261.841931 60.982996,261.317249 59.7034733,261.016923 C60.0746753,260.804679 60.4245499,260.550682 60.7471045,260.257122 C60.7554809,260.249519 60.763664,260.241658 60.7720403,260.234055 C60.7980071,260.210086 60.8239094,260.18631 60.849554,260.161889 C60.9190778,260.095587 60.9870553,260.027674 61.0533575,259.958022 C61.0755226,259.934825 61.0971723,259.911178 61.1188865,259.88766 C61.1288092,259.8769 61.1389253,259.866332 61.1487837,259.855508 C62.0331994,258.883527 62.5594287,257.664056 62.6607184,256.358889 C62.6610405,256.354443 62.6614916,256.349997 62.6618137,256.345615 C62.664971,256.304249 62.6674195,256.262689 62.6697391,256.221194 C62.6702545,256.212302 62.6708989,256.203475 62.6713499,256.194647 C62.6732829,256.155536 62.674636,256.116296 62.6757314,256.077056 C62.676118,256.066038 62.6766979,256.055084 62.6770201,256.044066 C62.6782443,255.994259 62.6788242,255.944323 62.6788886,255.894387 L62.6788886,255.893807 C62.6788886,255.843613 62.6782443,255.793484 62.6770201,255.743483 C62.6766979,255.732852 62.6761824,255.722349 62.6757958,255.711718 C62.674636,255.672026 62.6732829,255.6324 62.6713499,255.592838 C62.6708989,255.584461 62.6702545,255.576085 62.6698035,255.567708 C62.6674839,255.525698 62.6650354,255.483687 62.6618137,255.44187 C62.6614916,255.437939 62.6611694,255.434009 62.6608472,255.430143 C62.5598153,254.124138 62.0333283,252.90383 61.1482038,251.931398 C61.1444666,251.927338 61.140665,251.923343 61.1369279,251.91922 C61.109157,251.888936 61.0812572,251.858781 61.052842,251.829013 C60.9869264,251.759746 60.9193356,251.692156 60.8501339,251.62624 C60.8192057,251.596794 60.787891,251.567799 60.7565118,251.539061 C60.7535479,251.536355 60.7506484,251.533584 60.7476844,251.530878 C59.7753168,250.645754 58.5551375,250.119267 57.249197,250.01817 C57.2451377,250.017848 57.2411428,250.017462 57.2370835,250.017139 C57.1954594,250.013982 57.1536419,250.011469 57.111889,250.009214 C57.1032549,250.008699 57.0946852,250.008054 57.0860511,250.007603 C57.0467466,250.00567 57.0073132,250.004317 56.9678798,250.003157 C56.957055,250.002835 56.9462302,250.002191 56.9354053,250.001933 C56.8853404,250.000644 56.8352755,250 56.7850817,250 L56.7850817,250 Z M56.7850817,250.942986 C56.8268347,250.942986 56.8688454,250.943501 56.9100829,250.944661 L56.9146577,250.94479 C56.9226474,250.945112 56.9306372,250.945434 56.9397868,250.945757 C56.9689108,250.946594 57.0028673,250.94769 57.0357284,250.9493 L57.0383702,250.949429 C57.0456512,250.949945 57.0529322,250.950396 57.0606642,250.950847 C57.1000332,250.952973 57.13225,250.954971 57.1616962,250.957161 C57.1660776,250.957548 57.1703947,250.957935 57.1747762,250.958257 C57.1752916,250.958257 57.1758715,250.958321 57.1763226,250.958386 C58.2765909,251.043502 59.2904538,251.481329 60.1086318,252.224442 C60.1124979,252.228114 60.1163639,252.231658 60.1198433,252.234751 C60.1528977,252.265035 60.1773181,252.287844 60.1994832,252.308914 C60.2576024,252.364263 60.3149483,252.421673 60.3704256,252.479921 C60.3951681,252.505823 60.4201684,252.53295 60.4414315,252.55621 C60.4454263,252.560592 60.4494857,252.564844 60.4534805,252.569161 C61.1973666,253.387726 61.6354507,254.40204 61.7205675,255.502824 C61.7206964,255.504241 61.7208253,255.505659 61.7208897,255.507141 L61.7217273,255.516484 C61.7238536,255.544963 61.7258511,255.576729 61.7281707,255.619578 C61.7285573,255.626665 61.7290083,255.633753 61.7294594,255.640841 L61.7295882,255.643031 C61.7311346,255.674088 61.73223,255.70798 61.7331965,255.740068 C61.7331965,255.74097 61.733261,255.741873 61.733261,255.742775 C61.7335187,255.749862 61.7337764,255.757014 61.7340986,255.764102 L61.7342919,255.76829 C61.7353228,255.811074 61.7358383,255.853278 61.7358383,255.893485 C61.7357739,255.935624 61.7353228,255.977635 61.7342919,256.018357 L61.7340342,256.025058 C61.733712,256.031953 61.7335187,256.038783 61.733261,256.045677 C61.7331965,256.046708 61.7331965,256.047803 61.7331321,256.048899 C61.73223,256.080278 61.7311346,256.113654 61.7295238,256.146258 L61.7293305,256.149222 C61.7288795,256.156052 61.7284929,256.162817 61.7281063,256.169003 C61.726431,256.199609 61.7243691,256.235434 61.7217273,256.270293 C61.7213407,256.27519 61.7208897,256.280086 61.7204387,256.28595 C61.6349997,257.387314 61.1961424,258.402207 60.4509032,259.221223 C60.4482614,259.224123 60.4455552,259.226893 60.4429134,259.229793 C60.437501,259.235527 60.4320886,259.241326 60.4266762,259.247125 C60.426354,259.247448 60.4260318,259.24777 60.4257741,259.248156 L60.4155936,259.259175 C60.4007094,259.275283 60.3859541,259.291391 60.37049,259.307564 C60.3151416,259.365683 60.2574091,259.423416 60.1987745,259.479344 C60.1804753,259.496806 60.1596633,259.516007 60.1375625,259.536304 L60.1342764,259.539332 C60.1280264,259.545066 60.1218407,259.550801 60.1156551,259.556536 L60.1111448,259.560788 C59.8424566,259.805185 59.5478017,260.01962 59.2353631,260.198294 C58.8989552,260.390629 58.7144818,260.769176 58.7702169,261.152621 C58.8260164,261.536065 59.1106841,261.846442 59.4878784,261.934974 C60.567528,262.188391 61.5424086,262.635689 62.3855224,263.264303 C62.4054968,263.279188 62.4259867,263.293234 62.4470565,263.306507 C63.4772855,264.07694 64.3347681,265.084875 64.927364,266.222451 C65.2367742,266.816271 65.475694,267.316533 65.6361982,267.827943 C65.7595885,268.221181 65.8331717,268.611391 65.8660329,269.05695 L47.9595454,269.05695 C48.0054865,268.423696 48.1465317,267.959903 48.3802968,267.370013 C48.3830675,267.36299 48.3857737,267.355902 48.3884155,267.348815 C48.4615476,267.150488 48.5440871,266.952548 48.6336498,266.760665 C48.6365493,266.754479 48.63932,266.748358 48.6420262,266.742108 C49.0555611,265.803761 49.6343682,264.958843 50.3623392,264.230872 C51.1211739,263.472102 52.0045587,262.876478 52.9882022,262.46043 C53.4048944,262.284139 53.8378238,262.141741 54.2748126,262.037165 C54.6571616,261.94567 54.9426025,261.626594 54.991121,261.236513 C55.0396396,260.846368 54.8411196,260.467111 54.4928559,260.2847 C54.1206874,260.089788 53.7730036,259.846422 53.4594052,259.561304 L53.4565701,259.558662 C53.4512866,259.553701 53.4459386,259.548739 53.4405906,259.543778 C53.4402684,259.54352 53.4400107,259.543198 53.4396885,259.54294 C53.4155904,259.520839 53.392201,259.499319 53.3709379,259.479022 C53.3124321,259.423287 53.2548929,259.365683 53.1998022,259.307951 C53.1805365,259.287654 53.1601111,259.265553 53.1348531,259.23804 C53.1298273,259.232563 53.124737,259.227151 53.1196468,259.221739 L53.1176493,259.219612 C52.3733122,258.401112 51.9348415,257.38654 51.849467,256.284532 C51.8490804,256.280086 51.8486938,256.275705 51.8483072,256.270679 C51.8461164,256.24104 51.844119,256.208887 51.8419927,256.170227 C51.8415416,256.162431 51.8410906,256.154699 51.8405751,256.146967 L51.8404463,256.14484 C51.8388999,256.113397 51.8378045,256.079762 51.836838,256.047997 C51.8366447,256.039685 51.8362581,256.031437 51.8359359,256.023125 L51.8357426,256.018228 C51.8347761,255.975767 51.8342606,255.934014 51.8342606,255.893678 C51.8342606,255.852892 51.8347761,255.810945 51.835807,255.768677 L51.8360003,255.764167 C51.8363225,255.756112 51.8366447,255.748058 51.8369024,255.740262 C51.8378689,255.708238 51.8389643,255.674282 51.8405751,255.642323 L51.840704,255.639745 C51.841155,255.633366 51.8415416,255.626923 51.8418638,255.620544 C51.8419282,255.619706 51.8419927,255.618869 51.8420571,255.618031 C51.844119,255.579758 51.8461809,255.546639 51.8483716,255.516999 L51.8492737,255.506754 C51.8493381,255.505466 51.849467,255.504177 51.8495314,255.502888 C51.8932818,254.936903 52.0314919,254.389862 52.2603601,253.876842 C52.4898082,253.362597 52.8061128,252.892296 53.2001244,252.479212 C53.2146219,252.46407 53.2293128,252.449186 53.2440036,252.434302 L53.254313,252.423864 C53.2610786,252.416969 53.2677796,252.410075 53.2744807,252.403116 C53.2778313,252.399701 53.2811174,252.396286 53.2845968,252.392807 C53.2878829,252.389521 53.2912979,252.386299 53.2946485,252.383013 C53.3015429,252.376312 53.3085017,252.369611 53.3150095,252.363167 L53.3282828,252.350152 C53.3422649,252.336363 53.356247,252.322574 53.370358,252.309107 C53.7835707,251.914903 54.2538717,251.598662 54.7680519,251.369214 C55.2809434,251.140346 55.8279204,251.002072 56.3938408,250.958321 C56.3949362,250.958192 56.396096,250.958128 56.3971913,250.957999 L56.4067919,250.957161 C56.4365603,250.954971 56.4692281,250.952909 56.5100146,250.950718 C56.5174889,250.950331 56.5249632,250.949816 56.5324375,250.949365 L56.5346927,250.949236 C56.562979,250.947818 56.5933917,250.946788 56.6298611,250.945692 C56.6388818,250.945434 56.6478381,250.945048 56.6567944,250.944726 L56.6609825,250.944532 C56.7027355,250.943501 56.7444885,250.942986 56.7850817,250.942986 Z M72.4829138,268.093345 L67.8300338,268.093345 C67.5703019,268.093345 67.3597329,267.882776 67.3597329,267.62298 C67.3597329,267.363248 67.5703019,267.152679 67.8300338,267.152679 L71.9509499,267.152679 C71.918862,266.975486 71.8765291,266.804157 71.8224693,266.632055 C71.6850968,266.194229 71.47485,265.754985 71.2014581,265.230173 C70.6908862,264.250138 69.9527347,263.380477 69.0661282,262.714363 C69.0424811,262.698899 69.019285,262.682726 68.9966043,262.66578 C68.2724994,262.125955 67.4332516,261.741286 66.5022503,261.522727 C65.9630699,261.396115 65.5631304,260.960157 65.4834261,260.412085 C65.4036573,259.864013 65.6628737,259.332178 66.1437417,259.057304 C66.4006385,258.910331 66.6431667,258.733976 66.8644317,258.533072 C66.8659137,258.531719 66.8674601,258.530237 66.8677822,258.529915 L66.8858881,258.513162 C66.8868546,258.51226 66.8909139,258.508587 66.8919448,258.507685 C66.9076022,258.493188 66.9249993,258.477273 66.9401412,258.46284 C66.9881442,258.417027 67.0360184,258.369089 67.0819596,258.320892 C67.0919468,258.310454 67.1014185,258.300145 67.1108902,258.289835 L67.127643,258.271729 C67.1286095,258.270698 67.129576,258.269603 67.1306069,258.268508 L67.144589,258.253495 C67.14562,258.252399 67.1490994,258.248727 67.1501948,258.247631 C67.7636672,257.573398 68.1260418,256.735632 68.1965966,255.826538 L68.1980142,255.809012 C68.1998183,255.784914 68.201558,255.755404 68.2028467,255.730146 L68.2042642,255.708174 C68.2054885,255.682722 68.2062617,255.656885 68.2070349,255.6324 C68.2070993,255.629243 68.2072282,255.62615 68.207357,255.622992 L68.2080658,255.604049 C68.2080658,255.603985 68.2080658,255.602696 68.2081302,255.601278 C68.2089034,255.568675 68.2093545,255.535234 68.2093545,255.5016 C68.2093545,255.468416 68.2089679,255.433558 68.2080658,255.398312 L68.2075503,255.385426 L68.2075503,255.38491 C68.207357,255.381431 68.2072282,255.377887 68.2070993,255.374343 C68.2063261,255.348505 68.2054885,255.321185 68.2042642,255.295992 L68.20304,255.276404 C68.2010425,255.23929 68.1994317,255.212937 68.1976276,255.18929 L68.1974343,255.186841 C68.197241,255.184393 68.1969832,255.1813 68.1967255,255.178078 C68.1264928,254.27008 67.7650203,253.433087 67.1515479,252.75763 L67.1393055,252.744356 C67.1235837,252.727217 67.102836,252.704665 67.0822817,252.683144 C67.0361473,252.634626 66.9885308,252.587074 66.9404633,252.541262 C66.9221642,252.523865 66.9018032,252.504857 66.8742256,252.479663 L66.8647538,252.4709 C66.1894896,251.857685 65.3526903,251.496406 64.4448851,251.426109 L64.4273592,251.424692 C64.4084801,251.423338 64.381869,251.421663 64.3493945,251.419924 L64.325554,251.418442 C64.3015847,251.417282 64.2735561,251.41638 64.2495224,251.415671 L64.2201407,251.414576 C64.1604751,251.413029 64.0894693,251.412836 64.0203965,251.414576 L63.9903704,251.415671 C63.9627284,251.416509 63.9379214,251.417346 63.9147898,251.418442 L63.8933334,251.41973 C63.8590547,251.421599 63.8321214,251.423338 63.8074434,251.425143 L63.8040284,251.425465 C63.8021598,251.425658 63.799518,251.425851 63.7969407,251.426045 C63.3296037,251.462192 62.8781818,251.576239 62.4551751,251.764966 C62.217995,251.870701 61.9397707,251.764257 61.8339707,251.527077 C61.7281707,251.289832 61.8346795,251.011737 62.0718596,250.905872 C62.5934497,250.673202 63.1493829,250.532608 63.724324,250.488085 L63.7247106,250.488085 L63.7321849,250.48744 C63.7678167,250.484734 63.801,250.482608 63.8424308,250.480417 L63.8560907,250.479579 C63.8591836,250.479386 63.8644671,250.479064 63.8676244,250.478871 C63.896104,250.477518 63.9266456,250.476487 63.9633727,250.475327 L63.9830894,250.474618 C63.9857956,250.474489 63.9923678,250.474231 63.9950741,250.474167 C64.0812862,250.472041 64.1656298,250.472041 64.2484914,250.474296 C64.2502312,250.47436 64.256159,250.474554 64.2578988,250.474618 L64.2792263,250.475456 C64.3067394,250.476229 64.3412758,250.477389 64.3746525,250.478999 C64.3770365,250.479128 64.3793561,250.479257 64.3817402,250.479386 L64.4015857,250.48061 C64.4399237,250.482672 64.472656,250.484734 64.5024887,250.486989 L64.5147956,250.487956 C64.5157621,250.48802 64.5167286,250.488085 64.5175018,250.488149 C65.6356183,250.574748 66.666105,251.019662 67.4976208,251.774824 C67.4994249,251.776564 67.5012935,251.778239 67.5031621,251.779979 C67.5039353,251.780687 67.5082523,251.784682 67.5090255,251.785391 C67.5423377,251.815868 67.5670158,251.838871 67.5893098,251.860134 C67.6484599,251.916513 67.7069012,251.97489 67.7630228,252.033847 C67.787572,252.059556 67.81283,252.08694 67.8344153,252.110459 L67.8422117,252.118899 C67.8438226,252.120639 67.8454334,252.122379 67.8469798,252.124118 C68.6028505,252.955828 69.0481512,253.986765 69.1346211,255.105591 C69.1346211,255.105977 69.1346856,255.106428 69.1346856,255.106879 L69.1353299,255.113387 C69.1379717,255.148375 69.1399691,255.180527 69.1423532,255.223826 L69.1431264,255.237357 C69.1433197,255.240321 69.1436419,255.245283 69.1437707,255.248247 C69.1451883,255.278208 69.1463481,255.310747 69.1473146,255.341804 C69.1474434,255.344253 69.1475079,255.346766 69.1475723,255.349214 L69.1480233,255.359846 C69.1480233,255.36223 69.1481522,255.364614 69.1482166,255.367062 C69.1482811,255.368158 69.1484099,255.373119 69.1484744,255.374279 C69.1495697,255.417771 69.1500852,255.460684 69.1500852,255.5016 C69.1500852,255.544383 69.1495053,255.587039 69.1484744,255.628405 C69.1484099,255.630789 69.1483455,255.633237 69.1482166,255.635686 L69.1475079,255.655209 C69.1475079,255.656498 69.1474434,255.657722 69.1474434,255.659011 C69.1464125,255.690648 69.1453171,255.724153 69.1437707,255.75695 C69.1435774,255.759978 69.1433841,255.762942 69.1431908,255.765971 L69.1419666,255.786267 C69.1406135,255.81159 69.1384872,255.847995 69.1358454,255.883498 L69.1344278,255.901152 C69.0476358,257.018882 68.6014974,258.050464 67.8444025,258.882496 L67.8177914,258.910975 C67.8174048,258.911426 67.8169538,258.911877 67.8165027,258.912328 L67.8025206,258.927599 C67.7895051,258.94171 67.776425,258.955821 67.762894,258.969996 C67.7067723,259.028889 67.6482666,259.087395 67.5890521,259.143967 C67.5700442,259.162009 67.5489744,259.181468 67.5266159,259.202022 C67.5257783,259.202795 67.5218478,259.206339 67.5209458,259.207177 L67.5078013,259.219419 C67.5066415,259.220514 67.5012935,259.225476 67.5001337,259.226507 C67.2273862,259.474576 66.9281565,259.692426 66.6106921,259.873936 C66.4677139,259.955637 66.3906513,260.113758 66.4143629,260.276646 C66.4380745,260.439663 66.5569545,260.569239 66.7172653,260.606868 C67.7746209,260.855131 68.7308157,261.294181 69.5591098,261.911842 C69.5678083,261.918285 69.5764424,261.924149 69.5853343,261.929754 C69.5959658,261.936456 69.6062752,261.943543 69.6163268,261.951082 C70.621169,262.702571 71.457775,263.68615 72.0357445,264.795504 C72.3321392,265.364581 72.5620383,265.846738 72.7200939,266.350416 C72.8456106,266.750613 72.9193227,267.143916 72.9520549,267.588508 C72.9616556,267.718857 72.916552,267.847402 72.8275048,267.94315 C72.738522,268.038963 72.6137141,268.093345 72.4829138,268.093345 Z" id="Fill-1-Copy-4" stroke="#FFFFFF" stroke-width="0.6" fill="#FFFFFF" sketch:type="MSShapeGroup"></path>
        </g>
    </g>
</svg>