<?xml version="1.0" encoding="UTF-8" standalone="no"?>
<svg width="40px" height="40px" viewBox="0 0 40 40" version="1.1" xmlns="http://www.w3.org/2000/svg" xmlns:xlink="http://www.w3.org/1999/xlink" xmlns:sketch="http://www.bohemiancoding.com/sketch/ns">
    <!-- Generator: Sketch 3.3.3 (12072) - http://www.bohemiancoding.com/sketch -->
    <title>map_objlist_car</title>
    <desc>Created with Sketch.</desc>
    <defs></defs>
    <g id="Page-1" stroke="none" stroke-width="1" fill="none" fill-rule="evenodd" sketch:type="MSPage">
        <g id="Artboard-7-Copy" sketch:type="MSArtboardGroup" transform="translate(0.000000, -200.000000)">
            <rect id="Rectangle-336-Copy-24" sketch:type="MSShapeGroup" x="0" y="200" width="40" height="40"></rect>
            <path d="M30.437,218.8605 C30.242,217.6725 29.6075,214.0395 28.9205,212.664 C28.463,211.749 27.2885,211.0485 25.4315,210.585 C23.9225,210.2085 21.9935,210 20,210 C18.0065,210 16.0775,210.207 14.5685,210.585 C12.7115,211.05 11.537,211.749 11.0795,212.664 C10.3925,214.038 9.758,217.6725 9.563,218.8605 C8.5145,219.579 8,220.6185 8,222 L8,225.75 C8,226.728 8.627,227.562 9.5,227.871 L9.5,229.5 C9.5,230.3265 10.1735,231 11,231 L12.5,231 C13.3265,231 14,230.3265 14,229.5 L14,228 L26,228 L26,229.5 C26,230.3265 26.6735,231 27.5,231 L29,231 C29.8265,231 30.5,230.3265 30.5,229.5 L30.5,227.871 C31.373,227.562 32,226.728 32,225.75 L32,222 C32,220.6185 31.4855,219.579 30.437,218.8605 L30.437,218.8605 Z M12.4205,213.336 C12.866,212.4465 15.6725,211.5 20,211.5 C24.3275,211.5 27.134,212.445 27.5795,213.336 C28.01,214.1985 28.4885,216.48 28.784,218.1105 C28.637,218.067 28.4855,218.0265 28.3295,217.9905 C27.929,217.896 27.497,217.8195 27.035,217.7565 L22.6865,214.641 C22.3505,214.3995 21.881,214.4775 21.6395,214.8135 C21.398,215.1495 21.476,215.619 21.812,215.8605 L24.161,217.5435 C22.886,217.5015 21.488,217.5015 19.9985,217.5015 L19.475,217.5015 L15.164,214.6275 C14.819,214.398 14.354,214.491 14.1245,214.836 C13.895,215.181 13.988,215.646 14.333,215.8755 L16.799,217.5195 C14.7875,217.5555 13.0385,217.665 11.669,217.9905 C11.513,218.028 11.3615,218.0685 11.2145,218.1105 C11.5115,216.48 11.9885,214.1985 12.4205,213.336 L12.4205,213.336 Z M12.5,229.5 L11,229.5 L11,228 L12.5,228 L12.5,229.5 L12.5,229.5 Z M27.5,229.5 L27.5,228 L29,228 L29,229.5 L27.5,229.5 L27.5,229.5 Z M30.5,225.75 C30.5,226.164 30.164,226.5 29.75,226.5 L10.25,226.5 C9.836,226.5 9.5,226.164 9.5,225.75 L9.5,222 C9.5,220.614 10.229,219.8745 12.017,219.4485 C13.8995,219 16.727,219 20,219 C23.273,219 26.099,219 27.983,219.4485 C29.771,219.8745 30.5,220.614 30.5,222 L30.5,225.75 L30.5,225.75 Z M26.75,225 C25.5095,225 24.5,223.9905 24.5,222.75 C24.5,221.5095 25.5095,220.5 26.75,220.5 C27.9905,220.5 29,221.5095 29,222.75 C29,223.9905 27.9905,225 26.75,225 L26.75,225 Z M26.75,222 C26.336,222 26,222.336 26,222.75 C26,223.164 26.336,223.5 26.75,223.5 C27.164,223.5 27.5,223.164 27.5,222.75 C27.5,222.336 27.164,222 26.75,222 L26.75,222 Z M13.25,225 C12.0095,225 11,223.9905 11,222.75 C11,221.5095 12.0095,220.5 13.25,220.5 C14.4905,220.5 15.5,221.5095 15.5,222.75 C15.5,223.9905 14.4905,225 13.25,225 L13.25,225 Z M13.25,222 C12.836,222 12.5,222.336 12.5,222.75 C12.5,223.164 12.836,223.5 13.25,223.5 C13.664,223.5 14,223.164 14,222.75 C14,222.336 13.664,222 13.25,222 L13.25,222 Z" id="Shape-Copy-14" fill="#15C19C" sketch:type="MSShapeGroup"></path>
        </g>
    </g>
</svg>