<?xml version="1.0" encoding="UTF-8" standalone="no"?>
<svg width="40px" height="40px" viewBox="0 0 40 40" version="1.1" xmlns="http://www.w3.org/2000/svg" xmlns:xlink="http://www.w3.org/1999/xlink" xmlns:sketch="http://www.bohemiancoding.com/sketch/ns">
    <!-- Generator: Sketch 3.3.3 (12072) - http://www.bohemiancoding.com/sketch -->
    <title>map_objlist_blog_normal</title>
    <desc>Created with Sketch.</desc>
    <defs></defs>
    <g id="Page-1" stroke="none" stroke-width="1" fill="none" fill-rule="evenodd" sketch:type="MSPage">
        <g id="Artboard-7-Copy" sketch:type="MSArtboardGroup" transform="translate(-40.000000, -280.000000)">
            <rect id="Rectangle-336-Copy-37" fill="#15C19C" sketch:type="MSShapeGroup" x="40" y="280" width="40" height="40"></rect>
            <path d="M60.0000249,289 C53.9250763,289 49,293.282401 49,298.565214 C49,301.657867 50.6881476,304.407437 53.3065507,306.155897 L53.3043327,310.193908 L56.8999454,307.745127 C57.8832111,307.995822 58.9235243,308.130453 60,308.130453 C66.0749735,308.130453 71,303.848027 71,298.565214 C71.0000249,293.282401 66.0749985,289 60.0000249,289 L60.0000249,289 Z M60.0000249,307.173929 C58.8037968,307.173929 57.6565165,306.994562 56.5925269,306.665636 L55.7312068,307.383428 C55.7478301,307.389509 55.7645281,307.39539 55.7812012,307.401446 L54.2762586,308.469548 L54.2608566,306.508799 L54.2608566,305.630781 C51.658977,304.075121 49.956499,301.490687 49.956499,298.565239 C49.956499,293.810632 54.4532829,289.956524 60,289.956524 C65.5467171,289.956524 70.043501,293.810632 70.043501,298.565239 C70.043526,303.319846 65.5467172,307.173929 60.0000249,307.173929 L60.0000249,307.173929 Z M64.4128396,298.112197 C64.4128396,298.720174 64.9057019,299.213036 65.5136783,299.213036 C66.1216548,299.213036 66.614517,298.720174 66.614517,298.112197 C66.614517,297.504221 66.1216548,297.011359 65.5136783,297.011359 C64.9057019,297.011359 64.4128396,297.504221 64.4128396,298.112197 L64.4128396,298.112197 Z M58.8991613,298.112197 C58.8991613,298.720174 59.3920236,299.213036 60,299.213036 C60.6079764,299.213036 61.1008387,298.720174 61.1008387,298.112197 C61.1008387,297.504221 60.6079764,297.011359 60,297.011359 C59.3920236,297.011359 58.8991613,297.504221 58.8991613,298.112197 L58.8991613,298.112197 Z M53.385483,298.112197 C53.385483,298.720174 53.8783452,299.213036 54.4863217,299.213036 C55.0942981,299.213036 55.5871604,298.720174 55.5871604,298.112197 C55.5871604,297.504221 55.0942981,297.011359 54.4863217,297.011359 C53.8783452,297.011359 53.385483,297.504221 53.385483,298.112197 L53.385483,298.112197 Z" id="Shape-Copy-19" stroke="#FFFFFF" stroke-width="0.6" stroke-linecap="round" stroke-linejoin="round" fill="#FFFFFF" sketch:type="MSShapeGroup"></path>
        </g>
    </g>
</svg>