<?xml version="1.0" encoding="UTF-8" standalone="no"?>
<svg width="40px" height="40px" viewBox="0 0 40 40" version="1.1" xmlns="http://www.w3.org/2000/svg" xmlns:xlink="http://www.w3.org/1999/xlink" xmlns:sketch="http://www.bohemiancoding.com/sketch/ns">
    <!-- Generator: Sketch 3.3.3 (12072) - http://www.bohemiancoding.com/sketch -->
    <title>map_objlist_car_disabled</title>
    <desc>Created with Sketch.</desc>
    <defs></defs>
    <g id="Page-1" stroke="none" stroke-width="1" fill="none" fill-rule="evenodd" sketch:type="MSPage">
        <g id="Artboard-7-Copy" sketch:type="MSArtboardGroup" transform="translate(0.000000, -40.000000)">
            <rect id="Rectangle-336-Copy-17" fill="#F2F2F2" sketch:type="MSShapeGroup" x="0" y="40" width="40" height="40"></rect>
            <path d="M30.437,58.8605 C30.242,57.6725 29.6075,54.0395 28.9205,52.664 C28.463,51.749 27.2885,51.0485 25.4315,50.585 C23.9225,50.2085 21.9935,50 20,50 C18.0065,50 16.0775,50.207 14.5685,50.585 C12.7115,51.05 11.537,51.749 11.0795,52.664 C10.3925,54.038 9.758,57.6725 9.563,58.8605 C8.5145,59.579 8,60.6185 8,62 L8,65.75 C8,66.728 8.627,67.562 9.5,67.871 L9.5,69.5 C9.5,70.3265 10.1735,71 11,71 L12.5,71 C13.3265,71 14,70.3265 14,69.5 L14,68 L26,68 L26,69.5 C26,70.3265 26.6735,71 27.5,71 L29,71 C29.8265,71 30.5,70.3265 30.5,69.5 L30.5,67.871 C31.373,67.562 32,66.728 32,65.75 L32,62 C32,60.6185 31.4855,59.579 30.437,58.8605 L30.437,58.8605 Z M12.4205,53.336 C12.866,52.4465 15.6725,51.5 20,51.5 C24.3275,51.5 27.134,52.445 27.5795,53.336 C28.01,54.1985 28.4885,56.48 28.784,58.1105 C28.637,58.067 28.4855,58.0265 28.3295,57.9905 C27.929,57.896 27.497,57.8195 27.035,57.7565 L22.6865,54.641 C22.3505,54.3995 21.881,54.4775 21.6395,54.8135 C21.398,55.1495 21.476,55.619 21.812,55.8605 L24.161,57.5435 C22.886,57.5015 21.488,57.5015 19.9985,57.5015 L19.475,57.5015 L15.164,54.6275 C14.819,54.398 14.354,54.491 14.1245,54.836 C13.895,55.181 13.988,55.646 14.333,55.8755 L16.799,57.5195 C14.7875,57.5555 13.0385,57.665 11.669,57.9905 C11.513,58.028 11.3615,58.0685 11.2145,58.1105 C11.5115,56.48 11.9885,54.1985 12.4205,53.336 L12.4205,53.336 Z M12.5,69.5 L11,69.5 L11,68 L12.5,68 L12.5,69.5 L12.5,69.5 Z M27.5,69.5 L27.5,68 L29,68 L29,69.5 L27.5,69.5 L27.5,69.5 Z M30.5,65.75 C30.5,66.164 30.164,66.5 29.75,66.5 L10.25,66.5 C9.836,66.5 9.5,66.164 9.5,65.75 L9.5,62 C9.5,60.614 10.229,59.8745 12.017,59.4485 C13.8995,59 16.727,59 20,59 C23.273,59 26.099,59 27.983,59.4485 C29.771,59.8745 30.5,60.614 30.5,62 L30.5,65.75 L30.5,65.75 Z M26.75,65 C25.5095,65 24.5,63.9905 24.5,62.75 C24.5,61.5095 25.5095,60.5 26.75,60.5 C27.9905,60.5 29,61.5095 29,62.75 C29,63.9905 27.9905,65 26.75,65 L26.75,65 Z M26.75,62 C26.336,62 26,62.336 26,62.75 C26,63.164 26.336,63.5 26.75,63.5 C27.164,63.5 27.5,63.164 27.5,62.75 C27.5,62.336 27.164,62 26.75,62 L26.75,62 Z M13.25,65 C12.0095,65 11,63.9905 11,62.75 C11,61.5095 12.0095,60.5 13.25,60.5 C14.4905,60.5 15.5,61.5095 15.5,62.75 C15.5,63.9905 14.4905,65 13.25,65 L13.25,65 Z M13.25,62 C12.836,62 12.5,62.336 12.5,62.75 C12.5,63.164 12.836,63.5 13.25,63.5 C13.664,63.5 14,63.164 14,62.75 C14,62.336 13.664,62 13.25,62 L13.25,62 Z" id="Shape-Copy-11" fill="#CCCCCC" sketch:type="MSShapeGroup"></path>
        </g>
    </g>
</svg>