<?xml version="1.0" encoding="UTF-8" standalone="no"?>
<svg width="49px" height="49px" viewBox="0 0 49 49" version="1.1" xmlns="http://www.w3.org/2000/svg" xmlns:xlink="http://www.w3.org/1999/xlink" xmlns:sketch="http://www.bohemiancoding.com/sketch/ns">
    <!-- Generator: Sketch 3.3.3 (12072) - http://www.bohemiancoding.com/sketch -->
    <title>Rectangle 510 Copy</title>
    <desc>Created with Sketch.</desc>
    <defs></defs>
    <g id="Page-1" stroke="none" stroke-width="1" fill="none" fill-rule="evenodd" sketch:type="MSPage">
        <g id="Artboard-10" sketch:type="MSArtboardGroup" transform="translate(-526.000000, -1409.000000)" fill="#15C19C">
            <g id="map_jiejing" sketch:type="MSLayerGroup" transform="translate(539.000000, 1417.000000)">
                <path d="M18.1963636,24.7418182 C16.3221818,25.656 14.2254545,26.1818182 12,26.1818182 C9.84218182,26.1818182 7.80218182,25.6843636 5.97163636,24.8225455 L4.54690909,26.3061818 C3.41236364,27.4887273 4.25018182,29.4545455 5.88872727,29.4545455 L18.5454545,29.4545455 C20.1556364,29.4545455 20.9607273,27.5061818 19.824,26.3694545 L18.1963636,24.7418182 L18.1963636,24.7418182 Z" id="Shape" sketch:type="MSShapeGroup"></path>
                <path d="M12,6.54545455 C15.0087273,6.54545455 17.4545455,8.99345455 17.4545455,12 C17.4545455,15.0065455 15.0087273,17.4545455 12,17.4545455 C8.99127273,17.4545455 6.54545455,15.0065455 6.54545455,12 C6.54545455,8.99345455 8.99127273,6.54545455 12,6.54545455 L12,6.54545455 Z M12,0 C5.37381818,0 0,5.37163636 0,12 C0,18.6283636 5.37381818,24 12,24 C18.6283636,24 24,18.6283636 24,12 C24,5.37163636 18.6283636,0 12,0 L12,0 L12,0 Z" id="Shape" sketch:type="MSShapeGroup"></path>
            </g>
        </g>
    </g>
</svg>