<?xml version="1.0" encoding="UTF-8" standalone="no"?>
<svg width="40px" height="40px" viewBox="0 0 40 40" version="1.1" xmlns="http://www.w3.org/2000/svg" xmlns:xlink="http://www.w3.org/1999/xlink" xmlns:sketch="http://www.bohemiancoding.com/sketch/ns">
    <!-- Generator: Sketch 3.3.3 (12072) - http://www.bohemiancoding.com/sketch -->
    <title>map_objlist_estate</title>
    <desc>Created with Sketch.</desc>
    <defs></defs>
    <g id="Page-1" stroke="none" stroke-width="1" fill="none" fill-rule="evenodd" sketch:type="MSPage">
        <g id="Artboard-7-Copy" sketch:type="MSArtboardGroup" transform="translate(-80.000000, -160.000000)">
            <rect id="Rectangle-336-Copy-28" sketch:type="MSShapeGroup" x="80" y="160" width="40" height="40"></rect>
            <path d="M110.740948,181.116406 C111.140074,180.855771 111.022323,180.233154 110.761212,179.960429 L100.498771,169.210053 C100.369221,169.074973 100.191497,169 100.005386,169 C99.8189047,169 99.6411801,169.074973 99.5121063,169.210053 L89.1957235,179.960165 C88.9343748,180.231963 88.9028405,180.738735 89.2984482,180.992015 C89.6617279,181.197755 90.086542,181.090454 90.3485521,180.816697 L91.0442121,180.150323 L91.0442121,190.291627 C91.0442121,190.514642 91.3919363,190.862075 91.7700044,190.862075 L95.0611623,190.862075 L95.0611623,190.875038 L104.833022,190.875038 L104.833022,190.862075 L108.20336,190.862075 C108.581428,190.862075 108.969734,190.514642 108.969734,190.13668 L108.969734,180.181831 C108.969734,180.181831 109.4805,180.696803 109.649548,180.900586 C109.818727,181.104316 110.361848,181.363945 110.740948,181.116406 L110.740948,181.116406 Z M102.661995,189.556893 L97.3699939,189.556893 L97.3653908,181.743786 L102.661995,181.743786 L102.661995,189.556893 L102.661995,189.556893 Z M107.628625,189.525253 L103.998923,189.525253 L103.998923,181.090718 C103.998923,180.713311 103.693315,180.407174 103.315247,180.407174 L96.7099952,180.407174 C96.3334879,180.407174 96.0272716,180.711565 96.0261075,181.088707 L96.0201023,189.525253 L92.3706911,189.525253 L92.3706911,178.766781 L100.005386,170.844706 L107.628652,178.829823 L107.628625,189.525253 L107.628625,189.525253 Z M105.149371,171.803831 L106.631987,171.803831 L106.631987,174.060916 L107.968545,175.758003 L107.968545,171.192165 C107.968545,170.814097 107.662911,170.451214 107.285266,170.451214 L104.263791,170.451214 L103.108528,170.445077 L104.558393,171.805709 L105.149371,171.803831 L105.149371,171.803831 Z" id="Shape-Copy-2" stroke="#15C19C" stroke-width="0.1" fill="#15C19C" sketch:type="MSShapeGroup"></path>
        </g>
    </g>
</svg>