<?xml version="1.0" encoding="UTF-8" standalone="no"?>
<svg width="52px" height="43px" viewBox="0 0 52 43" version="1.1" xmlns="http://www.w3.org/2000/svg" xmlns:xlink="http://www.w3.org/1999/xlink" xmlns:sketch="http://www.bohemiancoding.com/sketch/ns">
    <!-- Generator: Sketch 3.3.3 (12072) - http://www.bohemiancoding.com/sketch -->
    <title>map_obj_car_occupied</title>
    <desc>Created with Sketch.</desc>
    <defs>
        <path id="path-1" d="M34.8675,4.44 C34.105,2.915 32.1475,1.7475 29.0525,0.975 C26.5375,0.3475 23.3225,0 20,0 C16.6775,0 13.4625,0.345 10.9475,0.975 C7.8525,1.75 5.895,2.915 5.1325,4.44 C3.9875,6.73 2.93,12.7875 2.605,14.7675 C0.8575,15.965 0,17.6975 0,20 L0,26.25 C0,27.88 1.045,29.27 2.5,29.785 L2.5,32.5 C2.5,33.8775 3.6225,35 5,35 L7.5,35 C8.8775,35 10,33.8775 10,32.5 L10,30 L30,30 L30,32.5 C30,33.8775 31.1225,35 32.5,35 L35,35 C36.3775,35 37.5,33.8775 37.5,32.5 L37.5,29.785 C38.955,29.27 40,27.88 40,26.25 L40,20 C40,17.6975 39.1425,15.965 37.395,14.7675 C37.07,12.7875 36.0125,6.7325 34.8675,4.44 Z"></path>
        <path d="M38.9227376,12.1000093 C38.4282363,9.49590409 37.6693229,6.04539658 36.8675,4.44 C36.105,2.915 34.1475,1.7475 31.0525,0.975 C28.5375,0.3475 25.3225,0 22,0 C18.6775,0 15.4625,0.345 12.9475,0.975 C9.8525,1.75 7.895,2.915 7.1325,4.44 C6.33230881,6.04038237 5.57485271,9.48081556 5.08028467,12.0836251 L5.08028467,12.0836251 L2.2623397,12.3890432 C1.30228661,12.4930969 0.379381446,13.3508738 0.212354302,14.303708 L0,15.5151186 L4.19361631,15.072442 C2.72282132,16.2525435 2,17.8860337 2,20 L2,26.25 C2,27.88 3.045,29.27 4.5,29.785 L4.5,32.5 C4.5,33.8775 5.6225,35 7,35 L9.5,35 C10.8775,35 12,33.8775 12,32.5 L12,30 L32,30 L32,32.5 C32,33.8775 33.1225,35 34.5,35 L37,35 C38.3775,35 39.5,33.8775 39.5,32.5 L39.5,29.785 C40.955,29.27 42,27.88 42,26.25 L42,20 C42,17.896758 41.2844939,16.2691294 39.8287102,15.0904372 L43.8518527,15.5151186 L43.6394984,14.303708 C43.4724713,13.3508738 42.5495661,12.4930969 41.589513,12.3890432 L38.9227376,12.1000093 Z" id="path-2"></path>
        <path id="path-3" d="M4.605,14.485 C2.8575,15.6825 2,17.415 2,19.7175 L2,25.9675 C2,27.5975 3.045,28.9875 4.5,29.5025 L4.5,32.2175 C4.5,33.595 5.6225,34.7175 7,34.7175 L9.5,34.7175 C10.8775,34.7175 12,33.595 12,32.2175 L12,29.7175 L32,29.7175 L32,32.2175 C32,33.595 33.1225,34.7175 34.5,34.7175 L37,34.7175 C38.3775,34.7175 39.5,33.595 39.5,32.2175 L39.5,29.5025 C40.955,28.9875 42,27.5975 42,25.9675 L42,19.7175 C42,17.415 41.1425,15.6825 39.395,14.485 C39.07,12.505 4.93,12.505 4.605,14.485 Z"></path>
    </defs>
    <g id="Page-1" stroke="none" stroke-width="1" fill="none" fill-rule="evenodd" sketch:type="MSPage">
        <g id="car-copy-2" sketch:type="MSArtboardGroup" transform="translate(-2.000000, -55.000000)">
            <g id="Group-Copy" sketch:type="MSLayerGroup" transform="translate(6.000000, 59.000000)">
                <g id="Path-+-Shape-Copy-21" transform="translate(2.000000, 0.000000)">
                    <g id="Path">
                        <use stroke="#FFFFFF" stroke-width="4" fill="#FFFFFF" fill-rule="evenodd" sketch:type="MSShapeGroup" xlink:href="#path-1"></use>
                        <use stroke="none" fill="none" xlink:href="#path-1"></use>
                    </g>
                </g>
                <g id="Path-Copy">
                    <use stroke="#FFFFFF" stroke-width="4" stroke-linecap="round" stroke-linejoin="round" fill="#FFFFFF" fill-rule="evenodd" sketch:type="MSShapeGroup" xlink:href="#path-2"></use>
                    <use stroke="none" fill="none" xlink:href="#path-2"></use>
                </g>
                <g id="Path-421-Copy-3-+-Path-421-Copy-6-Copy" transform="translate(0.000000, 12.000000)"></g>
                <path d="M28.9216934,4.02587961 C28.8913188,4.02587961 28.8610012,4.02627909 28.8307408,4.02703524 C28.8241922,4.02720645 28.8176721,4.02756312 28.8111235,4.02774859 C28.7872405,4.02847622 28.7633859,4.02927517 28.7395884,4.03045934 C28.7343809,4.03073041 28.7291877,4.03112989 28.723966,4.03141523 C28.6986847,4.03278487 28.6733749,4.03432572 28.6481792,4.03622324 C28.6457253,4.03640871 28.6432999,4.03665125 28.6408317,4.03685099 C27.822358,4.10018255 27.0594545,4.43966767 26.4612217,5.01039359 C26.4479247,5.02307703 26.4348561,5.03603153 26.4217304,5.04892897 C26.4143686,5.05616238 26.4068784,5.06323885 26.3995736,5.07054359 C26.392383,5.0777342 26.3854064,5.08511028 26.3782729,5.09235796 C26.3652613,5.10558354 26.3522069,5.11876632 26.3393808,5.13219164 C25.768555,5.73052436 25.4290699,6.49354195 25.3658239,7.31217262 C25.3656385,7.31448389 25.3654102,7.31676662 25.3652247,7.31906362 C25.3633129,7.34440195 25.3617721,7.36982589 25.3604025,7.39527835 C25.3601171,7.40035743 25.3597319,7.40540798 25.3594751,7.41048706 C25.3582767,7.43439868 25.3574634,7.45839591 25.3567358,7.48239313 C25.3565361,7.48882758 25.3561937,7.49521923 25.3560367,7.50165369 C25.3552806,7.53191416 25.3548811,7.5622317 25.3548811,7.59260631 L25.3548811,7.59294872 C25.3548811,7.62320919 25.3552806,7.65339833 25.3560225,7.6835304 C25.3561937,7.69020739 25.3565503,7.69685585 25.3567501,7.70351857 C25.3574777,7.72727326 25.3582767,7.75099941 25.3594466,7.77466849 C25.3597176,7.78001865 25.3601314,7.78531173 25.3604167,7.79066189 C25.3617864,7.81584328 25.3633129,7.84098187 25.3651962,7.86606339 C25.3653959,7.86864573 25.3656527,7.87121381 25.3658525,7.87379615 C25.4270725,8.66386413 25.7456136,9.40207128 26.281057,9.99040277 C26.2848663,9.99458303 26.2887755,9.99864915 26.2925991,10.0028009 C26.3078648,10.0194363 26.3231734,10.0360146 26.3387673,10.0524075 C26.3787722,10.0943955 26.4198043,10.1354134 26.4617923,10.1754468 C26.4781709,10.1910835 26.4947921,10.2063778 26.5114275,10.2216293 C26.5155792,10.2254529 26.5196453,10.2293478 26.5238113,10.2331571 C26.7518278,10.4406718 27.0024147,10.615472 27.2697512,10.7554748 C26.9740803,10.8262253 26.6842161,10.9215008 26.4015853,11.0410589 C25.7383374,11.321564 25.1427011,11.7231394 24.6312977,12.2345143 C24.1398397,12.7259723 23.7501487,13.2953999 23.4715127,13.9276883 C23.4102641,14.0589169 23.3546653,14.1923283 23.3048019,14.3275374 C23.1024519,14.8381133 23,15.229017 23,15.8556841 C23,16.0057881 23.1216268,16.1274006 23.271688,16.1274006 L23.3130625,16.1274006 L23.3130625,16.129398 L34.7221309,16.129398 C34.8773282,16.1276432 35.0017086,16.0004379 34.9999822,15.8451978 C34.999754,15.821486 34.9992689,15.7981165 34.9987267,15.7748326 L34.9988123,15.7747327 C34.9987838,15.7745187 34.9987553,15.774319 34.9987267,15.774105 C34.9782678,14.9017017 34.7643044,14.3645034 34.3554099,13.5796572 C33.9550757,12.8112181 33.3749478,12.1309638 32.6778013,11.6125267 C32.6694836,11.6063348 32.6608948,11.6007707 32.6521491,11.5956203 C32.1113127,11.1923613 31.4621749,10.8748332 30.6878578,10.6930706 C30.9124787,10.5646384 31.1242306,10.4109106 31.3194471,10.233257 C31.3244976,10.2286487 31.3294483,10.223912 31.3345131,10.2192895 C31.3502354,10.2048084 31.3659292,10.1903844 31.3814375,10.1756037 C31.4235254,10.1354847 31.4646431,10.0943812 31.5047621,10.0522648 C31.5181732,10.0381975 31.5312704,10.0239019 31.5444246,10.0096491 C31.5504453,10.0031433 31.5565659,9.99676589 31.5625153,9.9902173 C32.097759,9.40198568 32.4162144,8.66397826 32.4774915,7.87412429 C32.4777055,7.87144208 32.4779623,7.86877414 32.4781763,7.86609193 C32.4800739,7.84105321 32.4815719,7.81594315 32.4829701,7.79080456 C32.4832697,7.78544014 32.4836692,7.78010425 32.483926,7.77473983 C32.4851101,7.75107074 32.4859091,7.72734459 32.4866082,7.70358991 C32.4868365,7.69691292 32.4871646,7.69027872 32.4873501,7.68360173 C32.4881062,7.65346966 32.4884772,7.62326626 32.4885057,7.59302005 L32.4885057,7.59267764 C32.4885057,7.56230303 32.4881062,7.53198549 32.4873501,7.50172502 C32.4871931,7.49529057 32.4868507,7.48891319 32.4866367,7.482493 C32.4859091,7.45848151 32.4851244,7.43448428 32.483926,7.41055839 C32.4836549,7.40546505 32.4832697,7.4004145 32.4829986,7.39533542 C32.4816147,7.36989722 32.4801024,7.34450182 32.4781763,7.31917776 C32.4779909,7.31679516 32.4777626,7.31444109 32.4775629,7.31207275 C32.416457,6.5217337 32.097816,5.78324121 31.5621586,5.19473851 C31.5599044,5.1922703 31.5575931,5.18985917 31.5553247,5.1873767 C31.5385323,5.1690435 31.5216686,5.15078164 31.5044625,5.13274805 C31.4645575,5.09085991 31.4236538,5.0499562 31.3817657,5.01005118 C31.3630615,4.99221734 31.3441148,4.97469736 31.3251111,4.9573058 C31.3233277,4.95567935 31.3215729,4.95399583 31.3197895,4.95235512 C30.7313438,4.41669768 29.9928941,4.09805676 29.2025979,4.03689379 C29.200144,4.03669405 29.1977186,4.03645151 29.1952646,4.03626604 C29.1700547,4.03436852 29.1447734,4.03282767 29.1194779,4.03145804 C29.1142704,4.03117269 29.1090772,4.03077322 29.1038555,4.03050214 C29.080058,4.02931797 29.0562034,4.02850475 29.0323203,4.0277914 C29.0257717,4.02759166 29.0192517,4.02723498 29.0126888,4.02707804 C28.9823998,4.02627909 28.9520823,4.02587961 28.9216934,4.02587961 L28.9216934,4.02587961 L28.9216934,4.02587961 Z" id="Path-Copy-7" stroke="#15C19C" stroke-linecap="round" stroke-linejoin="round" fill="#15C19C" sketch:type="MSShapeGroup"></path>
                <path d="M28.9216934,4.02587961 C28.8913188,4.02587961 28.8610012,4.02627909 28.8307408,4.02703524 C28.8241922,4.02720645 28.8176721,4.02756312 28.8111235,4.02774859 C28.7872405,4.02847622 28.7633859,4.02927517 28.7395884,4.03045934 C28.7343809,4.03073041 28.7291877,4.03112989 28.723966,4.03141523 C28.6986847,4.03278487 28.6733749,4.03432572 28.6481792,4.03622324 C28.6457253,4.03640871 28.6432999,4.03665125 28.6408317,4.03685099 C27.822358,4.10018255 27.0594545,4.43966767 26.4612217,5.01039359 C26.4479247,5.02307703 26.4348561,5.03603153 26.4217304,5.04892897 C26.4143686,5.05616238 26.4068784,5.06323885 26.3995736,5.07054359 C26.392383,5.0777342 26.3854064,5.08511028 26.3782729,5.09235796 C26.3652613,5.10558354 26.3522069,5.11876632 26.3393808,5.13219164 C25.768555,5.73052436 25.4290699,6.49354195 25.3658239,7.31217262 C25.3656385,7.31448389 25.3654102,7.31676662 25.3652247,7.31906362 C25.3633129,7.34440195 25.3617721,7.36982589 25.3604025,7.39527835 C25.3601171,7.40035743 25.3597319,7.40540798 25.3594751,7.41048706 C25.3582767,7.43439868 25.3574634,7.45839591 25.3567358,7.48239313 C25.3565361,7.48882758 25.3561937,7.49521923 25.3560367,7.50165369 C25.3552806,7.53191416 25.3548811,7.5622317 25.3548811,7.59260631 L25.3548811,7.59294872 C25.3548811,7.62320919 25.3552806,7.65339833 25.3560225,7.6835304 C25.3561937,7.69020739 25.3565503,7.69685585 25.3567501,7.70351857 C25.3574777,7.72727326 25.3582767,7.75099941 25.3594466,7.77466849 C25.3597176,7.78001865 25.3601314,7.78531173 25.3604167,7.79066189 C25.3617864,7.81584328 25.3633129,7.84098187 25.3651962,7.86606339 C25.3653959,7.86864573 25.3656527,7.87121381 25.3658525,7.87379615 C25.4270725,8.66386413 25.7456136,9.40207128 26.281057,9.99040277 C26.2848663,9.99458303 26.2887755,9.99864915 26.2925991,10.0028009 C26.3078648,10.0194363 26.3231734,10.0360146 26.3387673,10.0524075 C26.3787722,10.0943955 26.4198043,10.1354134 26.4617923,10.1754468 C26.4781709,10.1910835 26.4947921,10.2063778 26.5114275,10.2216293 C26.5155792,10.2254529 26.5196453,10.2293478 26.5238113,10.2331571 C26.7518278,10.4406718 27.0024147,10.615472 27.2697512,10.7554748 C26.9740803,10.8262253 26.6842161,10.9215008 26.4015853,11.0410589 C25.7383374,11.321564 25.1427011,11.7231394 24.6312977,12.2345143 C24.1398397,12.7259723 23.7501487,13.2953999 23.4715127,13.9276883 C23.4102641,14.0589169 23.3546653,14.1923283 23.3048019,14.3275374 C23.1024519,14.8381133 23,15.229017 23,15.8556841 C23,16.0057881 23.1216268,16.1274006 23.271688,16.1274006 L23.3130625,16.1274006 L23.3130625,16.129398 L34.7221309,16.129398 C34.8773282,16.1276432 35.0017086,16.0004379 34.9999822,15.8451978 C34.999754,15.821486 34.9992689,15.7981165 34.9987267,15.7748326 L34.9988123,15.7747327 C34.9987838,15.7745187 34.9987553,15.774319 34.9987267,15.774105 C34.9782678,14.9017017 34.7643044,14.3645034 34.3554099,13.5796572 C33.9550757,12.8112181 33.3749478,12.1309638 32.6778013,11.6125267 C32.6694836,11.6063348 32.6608948,11.6007707 32.6521491,11.5956203 C32.1113127,11.1923613 31.4621749,10.8748332 30.6878578,10.6930706 C30.9124787,10.5646384 31.1242306,10.4109106 31.3194471,10.233257 C31.3244976,10.2286487 31.3294483,10.223912 31.3345131,10.2192895 C31.3502354,10.2048084 31.3659292,10.1903844 31.3814375,10.1756037 C31.4235254,10.1354847 31.4646431,10.0943812 31.5047621,10.0522648 C31.5181732,10.0381975 31.5312704,10.0239019 31.5444246,10.0096491 C31.5504453,10.0031433 31.5565659,9.99676589 31.5625153,9.9902173 C32.097759,9.40198568 32.4162144,8.66397826 32.4774915,7.87412429 C32.4777055,7.87144208 32.4779623,7.86877414 32.4781763,7.86609193 C32.4800739,7.84105321 32.4815719,7.81594315 32.4829701,7.79080456 C32.4832697,7.78544014 32.4836692,7.78010425 32.483926,7.77473983 C32.4851101,7.75107074 32.4859091,7.72734459 32.4866082,7.70358991 C32.4868365,7.69691292 32.4871646,7.69027872 32.4873501,7.68360173 C32.4881062,7.65346966 32.4884772,7.62326626 32.4885057,7.59302005 L32.4885057,7.59267764 C32.4885057,7.56230303 32.4881062,7.53198549 32.4873501,7.50172502 C32.4871931,7.49529057 32.4868507,7.48891319 32.4866367,7.482493 C32.4859091,7.45848151 32.4851244,7.43448428 32.483926,7.41055839 C32.4836549,7.40546505 32.4832697,7.4004145 32.4829986,7.39533542 C32.4816147,7.36989722 32.4801024,7.34450182 32.4781763,7.31917776 C32.4779909,7.31679516 32.4777626,7.31444109 32.4775629,7.31207275 C32.416457,6.5217337 32.097816,5.78324121 31.5621586,5.19473851 C31.5599044,5.1922703 31.5575931,5.18985917 31.5553247,5.1873767 C31.5385323,5.1690435 31.5216686,5.15078164 31.5044625,5.13274805 C31.4645575,5.09085991 31.4236538,5.0499562 31.3817657,5.01005118 C31.3630615,4.99221734 31.3441148,4.97469736 31.3251111,4.9573058 C31.3233277,4.95567935 31.3215729,4.95399583 31.3197895,4.95235512 C30.7313438,4.41669768 29.9928941,4.09805676 29.2025979,4.03689379 C29.200144,4.03669405 29.1977186,4.03645151 29.1952646,4.03626604 C29.1700547,4.03436852 29.1447734,4.03282767 29.1194779,4.03145804 C29.1142704,4.03117269 29.1090772,4.03077322 29.1038555,4.03050214 C29.080058,4.02931797 29.0562034,4.02850475 29.0323203,4.0277914 C29.0257717,4.02759166 29.0192517,4.02723498 29.0126888,4.02707804 C28.9823998,4.02627909 28.9520823,4.02587961 28.9216934,4.02587961 L28.9216934,4.02587961 L28.9216934,4.02587961 Z M28.9973802,4.59756142 C29.0329481,4.59875986 29.0535212,4.59941614 29.073381,4.6003863 C29.1123016,4.6025977 29.1318047,4.60382467 29.14961,4.60513724 C29.8243429,4.65741182 30.4378986,4.92235145 30.9330518,5.37207829 C30.9598311,5.39663193 30.9746261,5.41042819 30.9880086,5.42318296 C31.0231912,5.45669633 31.057903,5.49142239 31.0914877,5.52666208 C31.1064681,5.54235586 31.1215627,5.55877727 31.1344601,5.57284461 C31.5919055,6.07604445 31.8570448,6.68989975 31.908549,7.35605816 C31.9105464,7.38158196 31.9117448,7.40079971 31.913143,7.42670873 C31.9149264,7.45973701 31.9155969,7.4802388 31.9161819,7.49964203 C31.9174802,7.54261447 31.917794,7.5681668 31.917794,7.59249217 C31.9177655,7.61800171 31.9174659,7.64341137 31.9168524,7.66805062 C31.9155969,7.70553023 31.9149264,7.72571815 31.9139705,7.74544952 C31.9121015,7.77776445 31.910846,7.79942187 31.9092623,7.82053715 C31.8567595,8.49652557 31.5911636,9.11072328 31.140167,9.60636157 C31.1098066,9.63906171 31.1008612,9.64882039 31.0915162,9.65862188 C31.0580314,9.69376169 31.0230771,9.7287303 30.9875948,9.76257181 C30.9765378,9.77311518 30.9639115,9.78474284 30.9505432,9.79704107 C30.7719479,9.95975709 30.593638,10.0895447 30.4045707,10.1976606 C30.2009795,10.3140514 30.0893253,10.5431379 30.1230812,10.7751919 C30.1568371,11.007246 30.3291121,11.195072 30.5573996,11.2486592 C31.2107605,11.4020303 31.8007469,11.6727053 32.3109805,12.0531369 C32.3230504,12.0621394 32.3354628,12.0706426 32.348189,12.0786607 C32.9716888,12.5449374 33.4905967,13.1548977 33.8492425,13.8433271 C34.0364551,14.2026862 34.1810662,14.5054479 34.2781822,14.8149293 C34.3528561,15.0529042 34.3974122,15.2890529 34.4172862,15.5587149 L23.5807271,15.5587149 C23.6085194,15.1754869 23.6938651,14.8947964 23.8353517,14.5377913 C23.884516,14.4049506 23.9344508,14.2851785 23.9886657,14.1690302 C24.2440036,13.5899438 24.5942746,13.0786117 25.0348277,12.6380728 C25.4940422,12.1788727 26.0286724,11.8184149 26.6239234,11.5666438 C26.8761226,11.4599546 27.1380946,11.3737815 27.4025492,11.310507 C27.6339327,11.2551364 27.8066785,11.0620315 27.8360544,10.8259542 C27.8654303,10.5898483 27.7452587,10.3603196 27.5345054,10.2499352 C27.3092853,10.131975 27.0988602,9.98469594 26.9090795,9.81216417 C26.8825713,9.7876676 26.8684326,9.77467029 26.8555352,9.7623578 C26.8201528,9.72863043 26.7853126,9.69379022 26.751999,9.65882161 C26.7403142,9.64655193 26.7279589,9.63318368 26.7126646,9.61651973 C26.2518238,9.11002419 25.9864561,8.49605476 25.9347807,7.82915446 C25.9327548,7.80281744 25.9315421,7.78335714 25.9302724,7.75995913 C25.9284176,7.72556121 25.9277471,7.70520209 25.9271621,7.68598433 C25.9258924,7.64227001 25.9255785,7.61703155 25.9255785,7.59260631 C25.9255785,7.56793853 25.9258924,7.5425574 25.9265344,7.51697653 C25.9277756,7.48039574 25.9284462,7.45982261 25.9294021,7.44047646 C25.9315421,7.4026259 25.9327976,7.38258065 25.9341245,7.36464694 C25.9613032,7.01360548 26.0449654,6.68252367 26.1834702,6.37208632 C26.3223317,6.06085001 26.5137245,5.77622181 26.7521987,5.5262626 C26.7609444,5.51710314 26.7698471,5.50810061 26.7787355,5.49906955 C26.7991945,5.47813975 26.8011919,5.47605675 26.8032891,5.47395949 C26.8135614,5.4639868 26.8297403,5.44815035 26.8297403,5.44815035 C26.8382149,5.43981837 26.8466753,5.43145787 26.855207,5.42331136 C27.1052804,5.18473729 27.38988,4.9933587 27.7010593,4.85449723 C28.0114538,4.71599244 28.3424786,4.63233029 28.6849312,4.60583633 C28.7107832,4.60382467 28.7305574,4.60256917 28.7552394,4.60124233 C28.7873118,4.59950175 28.8056878,4.59887399 28.827759,4.59820344 C28.8718728,4.5968766 28.897154,4.59656273 28.9216934,4.59656273 C28.9469604,4.59656273 28.9724129,4.59689087 28.9973802,4.59756142 Z" id="Path-Copy-10" stroke="#15C19C" stroke-linecap="round" stroke-linejoin="round" fill="#15C19C" sketch:type="MSShapeGroup"></path>
                <path d="M14.9216934,4.02587961 C14.8913188,4.02587961 14.8610012,4.02627909 14.8307408,4.02703524 C14.8241922,4.02720645 14.8176721,4.02756312 14.8111235,4.02774859 C14.7872405,4.02847622 14.7633859,4.02927517 14.7395884,4.03045934 C14.7343809,4.03073041 14.7291877,4.03112989 14.723966,4.03141523 C14.6986847,4.03278487 14.6733749,4.03432572 14.6481792,4.03622324 C14.6457253,4.03640871 14.6432999,4.03665125 14.6408317,4.03685099 C13.822358,4.10018255 13.0594545,4.43966767 12.4612217,5.01039359 C12.4479247,5.02307703 12.4348561,5.03603153 12.4217304,5.04892897 C12.4143686,5.05616238 12.4068784,5.06323885 12.3995736,5.07054359 C12.392383,5.0777342 12.3854064,5.08511028 12.3782729,5.09235796 C12.3652613,5.10558354 12.3522069,5.11876632 12.3393808,5.13219164 C11.768555,5.73052436 11.4290699,6.49354195 11.3658239,7.31217262 C11.3656385,7.31448389 11.3654102,7.31676662 11.3652247,7.31906362 C11.3633129,7.34440195 11.3617721,7.36982589 11.3604025,7.39527835 C11.3601171,7.40035743 11.3597319,7.40540798 11.3594751,7.41048706 C11.3582767,7.43439868 11.3574634,7.45839591 11.3567358,7.48239313 C11.3565361,7.48882758 11.3561937,7.49521923 11.3560367,7.50165369 C11.3552806,7.53191416 11.3548811,7.5622317 11.3548811,7.59260631 L11.3548811,7.59294872 C11.3548811,7.62320919 11.3552806,7.65339833 11.3560225,7.6835304 C11.3561937,7.69020739 11.3565503,7.69685585 11.3567501,7.70351857 C11.3574777,7.72727326 11.3582767,7.75099941 11.3594466,7.77466849 C11.3597176,7.78001865 11.3601314,7.78531173 11.3604167,7.79066189 C11.3617864,7.81584328 11.3633129,7.84098187 11.3651962,7.86606339 C11.3653959,7.86864573 11.3656527,7.87121381 11.3658525,7.87379615 C11.4270725,8.66386413 11.7456136,9.40207128 12.281057,9.99040277 C12.2848663,9.99458303 12.2887755,9.99864915 12.2925991,10.0028009 C12.3078648,10.0194363 12.3231734,10.0360146 12.3387673,10.0524075 C12.3787722,10.0943955 12.4198043,10.1354134 12.4617923,10.1754468 C12.4781709,10.1910835 12.4947921,10.2063778 12.5114275,10.2216293 C12.5155792,10.2254529 12.5196453,10.2293478 12.5238113,10.2331571 C12.7518278,10.4406718 13.0024147,10.615472 13.2697512,10.7554748 C12.9740803,10.8262253 12.6842161,10.9215008 12.4015853,11.0410589 C11.7383374,11.321564 11.1427011,11.7231394 10.6312977,12.2345143 C10.1398397,12.7259723 9.75014869,13.2953999 9.47151266,13.9276883 C9.4102641,14.0589169 9.35466529,14.1923283 9.30480185,14.3275374 C9.10245189,14.8381133 9,15.229017 9,15.8556841 C9,16.0057881 9.12162684,16.1274006 9.27168797,16.1274006 L9.31306249,16.1274006 L9.31306249,16.129398 L20.7221309,16.129398 C20.8773282,16.1276432 21.0017086,16.0004379 20.9999822,15.8451978 C20.999754,15.821486 20.9992689,15.7981165 20.9987267,15.7748326 L20.9988123,15.7747327 C20.9987838,15.7745187 20.9987553,15.774319 20.9987267,15.774105 C20.9782678,14.9017017 20.7643044,14.3645034 20.3554099,13.5796572 C19.9550757,12.8112181 19.3749478,12.1309638 18.6778013,11.6125267 C18.6694836,11.6063348 18.6608948,11.6007707 18.6521491,11.5956203 C18.1113127,11.1923613 17.4621749,10.8748332 16.6878578,10.6930706 C16.9124787,10.5646384 17.1242306,10.4109106 17.3194471,10.233257 C17.3244976,10.2286487 17.3294483,10.223912 17.3345131,10.2192895 C17.3502354,10.2048084 17.3659292,10.1903844 17.3814375,10.1756037 C17.4235254,10.1354847 17.4646431,10.0943812 17.5047621,10.0522648 C17.5181732,10.0381975 17.5312704,10.0239019 17.5444246,10.0096491 C17.5504453,10.0031433 17.5565659,9.99676589 17.5625153,9.9902173 C18.097759,9.40198568 18.4162144,8.66397826 18.4774915,7.87412429 C18.4777055,7.87144208 18.4779623,7.86877414 18.4781763,7.86609193 C18.4800739,7.84105321 18.4815719,7.81594315 18.4829701,7.79080456 C18.4832697,7.78544014 18.4836692,7.78010425 18.483926,7.77473983 C18.4851101,7.75107074 18.4859091,7.72734459 18.4866082,7.70358991 C18.4868365,7.69691292 18.4871646,7.69027872 18.4873501,7.68360173 C18.4881062,7.65346966 18.4884772,7.62326626 18.4885057,7.59302005 L18.4885057,7.59267764 C18.4885057,7.56230303 18.4881062,7.53198549 18.4873501,7.50172502 C18.4871931,7.49529057 18.4868507,7.48891319 18.4866367,7.482493 C18.4859091,7.45848151 18.4851244,7.43448428 18.483926,7.41055839 C18.4836549,7.40546505 18.4832697,7.4004145 18.4829986,7.39533542 C18.4816147,7.36989722 18.4801024,7.34450182 18.4781763,7.31917776 C18.4779909,7.31679516 18.4777626,7.31444109 18.4775629,7.31207275 C18.416457,6.5217337 18.097816,5.78324121 17.5621586,5.19473851 C17.5599044,5.1922703 17.5575931,5.18985917 17.5553247,5.1873767 C17.5385323,5.1690435 17.5216686,5.15078164 17.5044625,5.13274805 C17.4645575,5.09085991 17.4236538,5.0499562 17.3817657,5.01005118 C17.3630615,4.99221734 17.3441148,4.97469736 17.3251111,4.9573058 C17.3233277,4.95567935 17.3215729,4.95399583 17.3197895,4.95235512 C16.7313438,4.41669768 15.9928941,4.09805676 15.2025979,4.03689379 C15.200144,4.03669405 15.1977186,4.03645151 15.1952646,4.03626604 C15.1700547,4.03436852 15.1447734,4.03282767 15.1194779,4.03145804 C15.1142704,4.03117269 15.1090772,4.03077322 15.1038555,4.03050214 C15.080058,4.02931797 15.0562034,4.02850475 15.0323203,4.0277914 C15.0257717,4.02759166 15.0192517,4.02723498 15.0126888,4.02707804 C14.9823998,4.02627909 14.9520823,4.02587961 14.9216934,4.02587961 L14.9216934,4.02587961 L14.9216934,4.02587961 Z" id="Path-Copy-8" stroke="#15C19C" stroke-linecap="round" stroke-linejoin="round" fill="#15C19C" sketch:type="MSShapeGroup"></path>
                <path d="M14.9216934,4.02587961 C14.8913188,4.02587961 14.8610012,4.02627909 14.8307408,4.02703524 C14.8241922,4.02720645 14.8176721,4.02756312 14.8111235,4.02774859 C14.7872405,4.02847622 14.7633859,4.02927517 14.7395884,4.03045934 C14.7343809,4.03073041 14.7291877,4.03112989 14.723966,4.03141523 C14.6986847,4.03278487 14.6733749,4.03432572 14.6481792,4.03622324 C14.6457253,4.03640871 14.6432999,4.03665125 14.6408317,4.03685099 C13.822358,4.10018255 13.0594545,4.43966767 12.4612217,5.01039359 C12.4479247,5.02307703 12.4348561,5.03603153 12.4217304,5.04892897 C12.4143686,5.05616238 12.4068784,5.06323885 12.3995736,5.07054359 C12.392383,5.0777342 12.3854064,5.08511028 12.3782729,5.09235796 C12.3652613,5.10558354 12.3522069,5.11876632 12.3393808,5.13219164 C11.768555,5.73052436 11.4290699,6.49354195 11.3658239,7.31217262 C11.3656385,7.31448389 11.3654102,7.31676662 11.3652247,7.31906362 C11.3633129,7.34440195 11.3617721,7.36982589 11.3604025,7.39527835 C11.3601171,7.40035743 11.3597319,7.40540798 11.3594751,7.41048706 C11.3582767,7.43439868 11.3574634,7.45839591 11.3567358,7.48239313 C11.3565361,7.48882758 11.3561937,7.49521923 11.3560367,7.50165369 C11.3552806,7.53191416 11.3548811,7.5622317 11.3548811,7.59260631 L11.3548811,7.59294872 C11.3548811,7.62320919 11.3552806,7.65339833 11.3560225,7.6835304 C11.3561937,7.69020739 11.3565503,7.69685585 11.3567501,7.70351857 C11.3574777,7.72727326 11.3582767,7.75099941 11.3594466,7.77466849 C11.3597176,7.78001865 11.3601314,7.78531173 11.3604167,7.79066189 C11.3617864,7.81584328 11.3633129,7.84098187 11.3651962,7.86606339 C11.3653959,7.86864573 11.3656527,7.87121381 11.3658525,7.87379615 C11.4270725,8.66386413 11.7456136,9.40207128 12.281057,9.99040277 C12.2848663,9.99458303 12.2887755,9.99864915 12.2925991,10.0028009 C12.3078648,10.0194363 12.3231734,10.0360146 12.3387673,10.0524075 C12.3787722,10.0943955 12.4198043,10.1354134 12.4617923,10.1754468 C12.4781709,10.1910835 12.4947921,10.2063778 12.5114275,10.2216293 C12.5155792,10.2254529 12.5196453,10.2293478 12.5238113,10.2331571 C12.7518278,10.4406718 13.0024147,10.615472 13.2697512,10.7554748 C12.9740803,10.8262253 12.6842161,10.9215008 12.4015853,11.0410589 C11.7383374,11.321564 11.1427011,11.7231394 10.6312977,12.2345143 C10.1398397,12.7259723 9.75014869,13.2953999 9.47151266,13.9276883 C9.4102641,14.0589169 9.35466529,14.1923283 9.30480185,14.3275374 C9.10245189,14.8381133 9,15.229017 9,15.8556841 C9,16.0057881 9.12162684,16.1274006 9.27168797,16.1274006 L9.31306249,16.1274006 L9.31306249,16.129398 L20.7221309,16.129398 C20.8773282,16.1276432 21.0017086,16.0004379 20.9999822,15.8451978 C20.999754,15.821486 20.9992689,15.7981165 20.9987267,15.7748326 L20.9988123,15.7747327 C20.9987838,15.7745187 20.9987553,15.774319 20.9987267,15.774105 C20.9782678,14.9017017 20.7643044,14.3645034 20.3554099,13.5796572 C19.9550757,12.8112181 19.3749478,12.1309638 18.6778013,11.6125267 C18.6694836,11.6063348 18.6608948,11.6007707 18.6521491,11.5956203 C18.1113127,11.1923613 17.4621749,10.8748332 16.6878578,10.6930706 C16.9124787,10.5646384 17.1242306,10.4109106 17.3194471,10.233257 C17.3244976,10.2286487 17.3294483,10.223912 17.3345131,10.2192895 C17.3502354,10.2048084 17.3659292,10.1903844 17.3814375,10.1756037 C17.4235254,10.1354847 17.4646431,10.0943812 17.5047621,10.0522648 C17.5181732,10.0381975 17.5312704,10.0239019 17.5444246,10.0096491 C17.5504453,10.0031433 17.5565659,9.99676589 17.5625153,9.9902173 C18.097759,9.40198568 18.4162144,8.66397826 18.4774915,7.87412429 C18.4777055,7.87144208 18.4779623,7.86877414 18.4781763,7.86609193 C18.4800739,7.84105321 18.4815719,7.81594315 18.4829701,7.79080456 C18.4832697,7.78544014 18.4836692,7.78010425 18.483926,7.77473983 C18.4851101,7.75107074 18.4859091,7.72734459 18.4866082,7.70358991 C18.4868365,7.69691292 18.4871646,7.69027872 18.4873501,7.68360173 C18.4881062,7.65346966 18.4884772,7.62326626 18.4885057,7.59302005 L18.4885057,7.59267764 C18.4885057,7.56230303 18.4881062,7.53198549 18.4873501,7.50172502 C18.4871931,7.49529057 18.4868507,7.48891319 18.4866367,7.482493 C18.4859091,7.45848151 18.4851244,7.43448428 18.483926,7.41055839 C18.4836549,7.40546505 18.4832697,7.4004145 18.4829986,7.39533542 C18.4816147,7.36989722 18.4801024,7.34450182 18.4781763,7.31917776 C18.4779909,7.31679516 18.4777626,7.31444109 18.4775629,7.31207275 C18.416457,6.5217337 18.097816,5.78324121 17.5621586,5.19473851 C17.5599044,5.1922703 17.5575931,5.18985917 17.5553247,5.1873767 C17.5385323,5.1690435 17.5216686,5.15078164 17.5044625,5.13274805 C17.4645575,5.09085991 17.4236538,5.0499562 17.3817657,5.01005118 C17.3630615,4.99221734 17.3441148,4.97469736 17.3251111,4.9573058 C17.3233277,4.95567935 17.3215729,4.95399583 17.3197895,4.95235512 C16.7313438,4.41669768 15.9928941,4.09805676 15.2025979,4.03689379 C15.200144,4.03669405 15.1977186,4.03645151 15.1952646,4.03626604 C15.1700547,4.03436852 15.1447734,4.03282767 15.1194779,4.03145804 C15.1142704,4.03117269 15.1090772,4.03077322 15.1038555,4.03050214 C15.080058,4.02931797 15.0562034,4.02850475 15.0323203,4.0277914 C15.0257717,4.02759166 15.0192517,4.02723498 15.0126888,4.02707804 C14.9823998,4.02627909 14.9520823,4.02587961 14.9216934,4.02587961 L14.9216934,4.02587961 L14.9216934,4.02587961 Z M14.9973802,4.59756142 C15.0329481,4.59875986 15.0535212,4.59941614 15.073381,4.6003863 C15.1123016,4.6025977 15.1318047,4.60382467 15.14961,4.60513724 C15.8243429,4.65741182 16.4378986,4.92235145 16.9330518,5.37207829 C16.9598311,5.39663193 16.9746261,5.41042819 16.9880086,5.42318296 C17.0231912,5.45669633 17.057903,5.49142239 17.0914877,5.52666208 C17.1064681,5.54235586 17.1215627,5.55877727 17.1344601,5.57284461 C17.5919055,6.07604445 17.8570448,6.68989975 17.908549,7.35605816 C17.9105464,7.38158196 17.9117448,7.40079971 17.913143,7.42670873 C17.9149264,7.45973701 17.9155969,7.4802388 17.9161819,7.49964203 C17.9174802,7.54261447 17.917794,7.5681668 17.917794,7.59249217 C17.9177655,7.61800171 17.9174659,7.64341137 17.9168524,7.66805062 C17.9155969,7.70553023 17.9149264,7.72571815 17.9139705,7.74544952 C17.9121015,7.77776445 17.910846,7.79942187 17.9092623,7.82053715 C17.8567595,8.49652557 17.5911636,9.11072328 17.140167,9.60636157 C17.1098066,9.63906171 17.1008612,9.64882039 17.0915162,9.65862188 C17.0580314,9.69376169 17.0230771,9.7287303 16.9875948,9.76257181 C16.9765378,9.77311518 16.9639115,9.78474284 16.9505432,9.79704107 C16.7719479,9.95975709 16.593638,10.0895447 16.4045707,10.1976606 C16.2009795,10.3140514 16.0893253,10.5431379 16.1230812,10.7751919 C16.1568371,11.007246 16.3291121,11.195072 16.5573996,11.2486592 C17.2107605,11.4020303 17.8007469,11.6727053 18.3109805,12.0531369 C18.3230504,12.0621394 18.3354628,12.0706426 18.348189,12.0786607 C18.9716888,12.5449374 19.4905967,13.1548977 19.8492425,13.8433271 C20.0364551,14.2026862 20.1810662,14.5054479 20.2781822,14.8149293 C20.3528561,15.0529042 20.3974122,15.2890529 20.4172862,15.5587149 L9.58072714,15.5587149 C9.60851941,15.1754869 9.69386507,14.8947964 9.83535168,14.5377913 C9.88451604,14.4049506 9.93445081,14.2851785 9.9886657,14.1690302 C10.2440036,13.5899438 10.5942746,13.0786117 11.0348277,12.6380728 C11.4940422,12.1788727 12.0286724,11.8184149 12.6239234,11.5666438 C12.8761226,11.4599546 13.1380946,11.3737815 13.4025492,11.310507 C13.6339327,11.2551364 13.8066785,11.0620315 13.8360544,10.8259542 C13.8654303,10.5898483 13.7452587,10.3603196 13.5345054,10.2499352 C13.3092853,10.131975 13.0988602,9.98469594 12.9090795,9.81216417 C12.8825713,9.7876676 12.8684326,9.77467029 12.8555352,9.7623578 C12.8201528,9.72863043 12.7853126,9.69379022 12.751999,9.65882161 C12.7403142,9.64655193 12.7279589,9.63318368 12.7126646,9.61651973 C12.2518238,9.11002419 11.9864561,8.49605476 11.9347807,7.82915446 C11.9327548,7.80281744 11.9315421,7.78335714 11.9302724,7.75995913 C11.9284176,7.72556121 11.9277471,7.70520209 11.9271621,7.68598433 C11.9258924,7.64227001 11.9255785,7.61703155 11.9255785,7.59260631 C11.9255785,7.56793853 11.9258924,7.5425574 11.9265344,7.51697653 C11.9277756,7.48039574 11.9284462,7.45982261 11.9294021,7.44047646 C11.9315421,7.4026259 11.9327976,7.38258065 11.9341245,7.36464694 C11.9613032,7.01360548 12.0449654,6.68252367 12.1834702,6.37208632 C12.3223317,6.06085001 12.5137245,5.77622181 12.7521987,5.5262626 C12.7609444,5.51710314 12.7698471,5.50810061 12.7787355,5.49906955 C12.7991945,5.47813975 12.8011919,5.47605675 12.8032891,5.47395949 C12.8135614,5.4639868 12.8297403,5.44815035 12.8297403,5.44815035 C12.8382149,5.43981837 12.8466753,5.43145787 12.855207,5.42331136 C13.1052804,5.18473729 13.38988,4.9933587 13.7010593,4.85449723 C14.0114538,4.71599244 14.3424786,4.63233029 14.6849312,4.60583633 C14.7107832,4.60382467 14.7305574,4.60256917 14.7552394,4.60124233 C14.7873118,4.59950175 14.8056878,4.59887399 14.827759,4.59820344 C14.8718728,4.5968766 14.897154,4.59656273 14.9216934,4.59656273 C14.9469604,4.59656273 14.9724129,4.59689087 14.9973802,4.59756142 Z" id="Path-Copy-9" stroke="#15C19C" stroke-linecap="round" stroke-linejoin="round" fill="#15C19C" sketch:type="MSShapeGroup"></path>
                <g id="Path-Copy-2">
                    <use fill="#FFFFFF" fill-rule="evenodd" sketch:type="MSShapeGroup" xlink:href="#path-3"></use>
                    <use fill="none" xlink:href="#path-3"></use>
                </g>
                <path d="M36.8675,4.44 C36.105,2.915 34.1475,1.7475 31.0525,0.975 C28.5375,0.3475 25.3225,0 22,0 C18.6775,0 15.4625,0.345 12.9475,0.975 C9.8525,1.75 7.895,2.915 7.1325,4.44 C5.9875,6.73 4.93,12.7875 4.605,14.7675 C2.8575,15.965 2,17.6975 2,20 L2,26.25 C2,27.88 3.045,29.27 4.5,29.785 L4.5,32.5 C4.5,33.8775 5.6225,35 7,35 L9.5,35 C10.8775,35 12,33.8775 12,32.5 L12,30 L32,30 L32,32.5 C32,33.8775 33.1225,35 34.5,35 L37,35 C38.3775,35 39.5,33.8775 39.5,32.5 L39.5,29.785 C40.955,29.27 42,27.88 42,26.25 L42,20 C42,17.6975 41.1425,15.965 39.395,14.7675 C39.07,12.7875 38.0125,6.7325 36.8675,4.44 Z M22,2.5 C29.2125,2.5 33.89,4.075 34.6325,5.56 C35.35,6.9975 36.1475,10.8 36.64,13.5175 C36.395,13.445 36.1425,13.3775 35.8825,13.3175 C35.215,13.16 34.495,13.0325 33.725,12.9275 L28.935,12.5725 C26.81,12.5025 24.48,12.5025 21.9975,12.5025 L21.125,12.5025 L16.665,12.5325 C13.3125,12.5925 10.3975,12.775 8.115,13.3175 C7.855,13.38 7.6025,13.4475 7.3575,13.5175 C7.8525,10.8 8.6475,6.9975 9.3675,5.56 C10.11,4.0775 14.7875,2.5 22,2.5 Z" id="Shape-Copy-17" fill="#15C19C" sketch:type="MSShapeGroup"></path>
                <path d="M38.25,27.5 L5.75,27.5 C5.06,27.5 4.5,26.94 4.5,26.25 L4.5,20 C4.5,17.69 5.715,16.4575 8.695,15.7475 C11.8325,15 16.545,15 22,15 C27.455,15 32.165,15 35.305,15.7475 C38.285,16.4575 39.5,17.69 39.5,20 L39.5,26.25 C39.5,26.94 38.94,27.5 38.25,27.5 Z" id="Path" fill="#FFFFFF" sketch:type="MSShapeGroup"></path>
                <path d="M33.25,25 C31.1825,25 29.5,23.3175 29.5,21.25 C29.5,19.1825 31.1825,17.5 33.25,17.5 C35.3175,17.5 37,19.1825 37,21.25 C37,23.3175 35.3175,25 33.25,25 L33.25,25 Z" id="Path" fill="#15C19C" sketch:type="MSShapeGroup"></path>
                <path d="M10.75,25 C8.6825,25 7,23.3175 7,21.25 C7,19.1825 8.6825,17.5 10.75,17.5 C12.8175,17.5 14.5,19.1825 14.5,21.25 C14.5,23.3175 12.8175,25 10.75,25 L10.75,25 Z" id="Path" fill="#15C19C" sketch:type="MSShapeGroup"></path>
                <path d="M33.25,20 C32.56,20 32,20.56 32,21.25 C32,21.94 32.56,22.5 33.25,22.5 C33.94,22.5 34.5,21.94 34.5,21.25 C34.5,20.56 33.94,20 33.25,20 L33.25,20 Z" id="Path" fill="#C6EFDC" sketch:type="MSShapeGroup"></path>
                <path d="M10.75,20 C10.06,20 9.5,20.56 9.5,21.25 C9.5,21.94 10.06,22.5 10.75,22.5 C11.44,22.5 12,21.94 12,21.25 C12,20.56 11.44,20 10.75,20 L10.75,20 Z" id="Path" fill="#C6EFDC" sketch:type="MSShapeGroup"></path>
            </g>
            <path d="M13,91.5 L13,89 L15.5,89 L15.5,91.5 L13,91.5 Z" id="Path-Copy-3" fill="#C6EFDC" sketch:type="MSShapeGroup"></path>
            <path d="M40.5,91.5 L40.5,89 L43,89 L43,91.5 L40.5,91.5 L40.5,91.5 Z" id="Path-Copy-4" fill="#C6EFDC" sketch:type="MSShapeGroup"></path>
            <g id="Path-421-Copy-3-+-Path-421-Copy-6-Copy-Copy" sketch:type="MSLayerGroup" transform="translate(6.000000, 71.000000)" stroke="#15C19C" stroke-width="2" fill="#C6EFDC" stroke-linecap="round" stroke-linejoin="round">
                <path d="M38.3711181,2.93657428 L43.8518527,3.51511859 L43.6394984,2.30370803 C43.4724713,1.35087381 42.5495661,0.493096905 41.589513,0.3890432 L38,0 L38.3711181,2.93657428 Z" id="Path-421-Copy-3" sketch:type="MSShapeGroup"></path>
                <path d="M5.48073464,2.93657428 L0,3.51511859 L0.212354302,2.30370803 C0.379381446,1.35087381 1.30228661,0.493096905 2.2623397,0.3890432 L5.8518527,0 L5.48073464,2.93657428 Z" id="Path-421-Copy-6" sketch:type="MSShapeGroup"></path>
            </g>
        </g>
    </g>
</svg>