<?xml version="1.0" encoding="UTF-8" standalone="no"?>
<svg width="40px" height="40px" viewBox="0 0 40 40" version="1.1" xmlns="http://www.w3.org/2000/svg" xmlns:xlink="http://www.w3.org/1999/xlink" xmlns:sketch="http://www.bohemiancoding.com/sketch/ns">
    <!-- Generator: Sketch 3.3.3 (12072) - http://www.bohemiancoding.com/sketch -->
    <title>map_objlist_estate_disabled</title>
    <desc>Created with Sketch.</desc>
    <defs></defs>
    <g id="Page-1" stroke="none" stroke-width="1" fill="none" fill-rule="evenodd" sketch:type="MSPage">
        <g id="Artboard-7-Copy" sketch:type="MSArtboardGroup" transform="translate(-80.000000, 0.000000)">
            <rect id="Rectangle-336-Copy-17" fill="#F2F2F2" sketch:type="MSShapeGroup" x="80" y="0" width="40" height="40"></rect>
            <path d="M110.740948,21.1164059 C111.140074,20.8557714 111.022323,20.2331535 110.761212,19.9604292 L100.498771,9.21005252 C100.369221,9.0749734 100.191497,9 100.005386,9 C99.8189047,9 99.6411801,9.0749734 99.5121063,9.21005252 L89.1957235,19.9601646 C88.9343748,20.2319631 88.9028405,20.7387346 89.2984482,20.9920146 C89.6617279,21.1977549 90.086542,21.0904535 90.3485521,20.8166974 L91.0442121,20.150323 L91.0442121,30.2916267 C91.0442121,30.5146422 91.3919363,30.8620754 91.7700044,30.8620754 L95.0611623,30.8620754 L95.0611623,30.8750383 L104.833022,30.8750383 L104.833022,30.8620754 L108.20336,30.8620754 C108.581428,30.8620754 108.969734,30.5146422 108.969734,30.1366799 L108.969734,20.1818309 C108.969734,20.1818309 109.4805,20.6968035 109.649548,20.9005862 C109.818727,21.1043159 110.361848,21.3639451 110.740948,21.1164059 L110.740948,21.1164059 Z M102.661995,29.5568927 L97.3699939,29.5568927 L97.3653908,21.7437856 L102.661995,21.7437856 L102.661995,29.5568927 L102.661995,29.5568927 Z M107.628625,29.5252525 L103.998923,29.5252525 L103.998923,21.0907181 C103.998923,20.7133114 103.693315,20.4071744 103.315247,20.4071744 L96.7099952,20.4071744 C96.3334879,20.4071744 96.0272716,20.7115653 96.0261075,21.0887075 L96.0201023,29.5252525 L92.3706911,29.5252525 L92.3706911,18.7667806 L100.005386,10.8447055 L107.628652,18.8298228 L107.628625,29.5252525 L107.628625,29.5252525 Z M105.149371,11.8038307 L106.631987,11.8038307 L106.631987,14.0609164 L107.968545,15.7580032 L107.968545,11.1921652 C107.968545,10.8140971 107.662911,10.4512142 107.285266,10.4512142 L104.263791,10.4512142 L103.108528,10.4450767 L104.558393,11.805709 L105.149371,11.8038307 L105.149371,11.8038307 Z" id="Shape" stroke="#CCCCCC" stroke-width="0.1" fill="#CCCCCC" sketch:type="MSShapeGroup"></path>
        </g>
    </g>
</svg>