<?xml version="1.0" encoding="UTF-8" standalone="no"?>
<svg width="40px" height="40px" viewBox="0 0 40 40" version="1.1" xmlns="http://www.w3.org/2000/svg" xmlns:xlink="http://www.w3.org/1999/xlink" xmlns:sketch="http://www.bohemiancoding.com/sketch/ns">
    <!-- Generator: Sketch 3.3.3 (12072) - http://www.bohemiancoding.com/sketch -->
    <title>map_objlist_people_disabled</title>
    <desc>Created with Sketch.</desc>
    <defs></defs>
    <g id="Page-1" stroke="none" stroke-width="1" fill="none" fill-rule="evenodd" sketch:type="MSPage">
        <g id="Artboard-7-Copy" sketch:type="MSArtboardGroup" transform="translate(-80.000000, -40.000000)">
            <rect id="Rectangle-336-Copy-17" fill="#F2F2F2" sketch:type="MSShapeGroup" x="80" y="40" width="40" height="40"></rect>
            <path d="M99.869489,50 C99.8188646,50 99.7683354,50.0006658 99.7179013,50.0019261 C99.706987,50.0022114 99.6961202,50.0028059 99.6852059,50.003115 C99.6454008,50.0043277 99.6056432,50.0056593 99.5659807,50.0076329 C99.5573016,50.0080847 99.5486462,50.0087505 99.5399433,50.009226 C99.4978078,50.0115088 99.4556248,50.0140769 99.4136321,50.0172394 C99.4095422,50.0175485 99.4054998,50.0179527 99.4013862,50.0182856 C98.0372633,50.1238382 96.7657575,50.6896468 95.7687028,51.6408566 C95.7465412,51.6619957 95.7247602,51.6835865 95.702884,51.7050823 C95.6906143,51.717138 95.6781306,51.7289321 95.665956,51.7411066 C95.6539717,51.753091 95.642344,51.7653845 95.6304548,51.7774639 C95.6087688,51.7995065 95.5870115,51.8214778 95.5656347,51.8438534 C94.6142584,52.8410746 94.0484498,54.1127706 93.9430399,55.477155 C93.9427308,55.4810071 93.9423503,55.4848117 93.9420412,55.48864 C93.9388549,55.5308706 93.9362868,55.5732438 93.9340041,55.6156646 C93.9335285,55.6241297 93.9328865,55.6325473 93.9324585,55.6410124 C93.9304611,55.6808651 93.9291057,55.7208605 93.927893,55.7608559 C93.9275601,55.77158 93.9269894,55.7822327 93.9267279,55.7929568 C93.9254676,55.8433909 93.9248018,55.8939202 93.9248018,55.9445445 L93.9248018,55.9451152 C93.9248018,55.9955493 93.9254676,56.0458645 93.9267041,56.0960846 C93.9269894,56.107213 93.9275839,56.1182937 93.9279168,56.1293983 C93.9291295,56.1689894 93.9304611,56.208533 93.9324109,56.2479815 C93.9328627,56.2568984 93.9335523,56.2657202 93.9340279,56.2746371 C93.9363106,56.3166061 93.9388549,56.3585038 93.9419937,56.4003063 C93.9423266,56.4046102 93.9427546,56.4088903 93.9430875,56.4131942 C94.0451208,57.7299742 94.5760226,58.9603195 95.4684283,59.9408719 C95.4747772,59.947839 95.4812925,59.9546159 95.4876651,59.9615354 C95.5131081,59.9892611 95.5386224,60.0168917 95.5646122,60.0442131 C95.631287,60.1141932 95.6996739,60.1825562 95.7696539,60.2492786 C95.7969516,60.2753398 95.8246535,60.3008303 95.8523792,60.3262495 C95.8592987,60.3326221 95.8660756,60.3391136 95.8730189,60.3454625 C96.2530463,60.6913202 96.6706912,60.982654 97.1162521,61.215992 C96.6234672,61.3339094 96.1403601,61.492702 95.6693088,61.6919655 C94.5638956,62.1594739 93.5711685,62.8287663 92.7188295,63.6810578 C91.8997328,64.5001545 91.2502478,65.4492005 90.7858544,66.5030145 C90.6837735,66.7217288 90.5911088,66.9440812 90.5080031,67.1694297 C90.1707531,68.0203896 90,68.6718957 90,69.7163409 C90,69.9665141 90.2027114,70.1692017 90.4528133,70.1692017 L90.5217708,70.1692017 L90.5217708,70.1725307 L109.536885,70.1725307 C109.795547,70.169606 110.002848,69.9575972 109.99997,69.6988637 C109.99959,69.6593439 109.998781,69.6203948 109.997878,69.5815883 L109.998021,69.5814219 C109.997973,69.5810652 109.997925,69.5807323 109.997878,69.5803756 C109.96378,68.1263702 109.607174,67.2310397 108.925683,65.9229626 C108.25846,64.6422308 107.29158,63.5084737 106.129669,62.6444119 C106.115806,62.634092 106.101491,62.6248184 106.086915,62.6162344 C105.185521,61.9441361 104.103625,61.4149227 102.813096,61.111985 C103.187464,60.8979313 103.540384,60.6417184 103.865745,60.3456289 C103.874163,60.3379485 103.882414,60.3300541 103.890855,60.3223498 C103.917059,60.2982147 103.943215,60.2741747 103.969063,60.2495402 C104.039209,60.1826751 104.107739,60.1141694 104.174604,60.0439754 C104.196955,60.0205298 104.218784,59.9967038 104.240708,59.9729491 C104.250742,59.9621061 104.260943,59.9514771 104.270859,59.9405628 C105.162932,58.9601768 105.693691,57.7301644 105.795819,56.4137411 C105.796176,56.4092708 105.796604,56.4048242 105.796961,56.4003539 C105.800123,56.3586227 105.80262,56.3167726 105.80495,56.2748749 C105.805449,56.2659342 105.806115,56.2570411 105.806543,56.2481004 C105.808517,56.2086519 105.809848,56.1691083 105.811014,56.1295172 C105.811394,56.1183888 105.811941,56.1073319 105.81225,56.0962035 C105.81351,56.0459834 105.814129,55.9956444 105.814176,55.9452341 L105.814176,55.9446634 C105.814176,55.894039 105.81351,55.8435098 105.81225,55.7930757 C105.811989,55.7823516 105.811418,55.7717226 105.811061,55.7610223 C105.809848,55.7210032 105.808541,55.6810078 105.806543,55.6411313 C105.806091,55.6326424 105.805449,55.6242248 105.804998,55.6157597 C105.802691,55.5733627 105.800171,55.531037 105.796961,55.4888303 C105.796651,55.4848592 105.796271,55.4809358 105.795938,55.4769886 C105.694095,54.1597568 105.163027,52.928936 104.270264,51.9480982 C104.266507,51.9439845 104.262655,51.9399659 104.258874,51.9358285 C104.230887,51.9052732 104.202781,51.8748367 104.174104,51.8447807 C104.107596,51.7749672 104.039423,51.7067943 103.969609,51.640286 C103.938436,51.6105629 103.906858,51.5813629 103.875185,51.552377 C103.872213,51.5496662 103.869288,51.5468604 103.866316,51.5441259 C102.885573,50.6513634 101.654824,50.1202952 100.337663,50.018357 C100.333573,50.0180241 100.329531,50.0176198 100.325441,50.0173107 C100.283424,50.0141482 100.241289,50.0115801 100.19913,50.0092974 C100.190451,50.0088218 100.181795,50.008156 100.173092,50.0077042 C100.13343,50.0057306 100.093672,50.0043752 100.053867,50.0031863 C100.042953,50.0028534 100.032086,50.002259 100.021148,50.0019974 C99.9706664,50.0006658 99.9201371,50 99.869489,50 L99.869489,50 L99.869489,50 Z M99.869489,50.9511385 C99.9116007,50.9511385 99.9540214,50.9516854 99.9956337,50.952803 L100.000223,50.9529695 C100.008284,50.9533024 100.016345,50.9536353 100.025547,50.9539206 C100.054913,50.9548004 100.089202,50.9558942 100.122302,50.9575112 L100.124989,50.9576776 C100.132336,50.9581532 100.139707,50.9586287 100.147507,50.9590568 C100.187169,50.9611968 100.219674,50.9632418 100.24935,50.9654294 C100.253773,50.9658336 100.258172,50.9661903 100.262595,50.966547 C100.263118,50.9665708 100.263665,50.9666183 100.264164,50.9666659 C101.373905,51.0525537 102.396498,51.4941197 103.221753,52.2436645 C103.225653,52.2473263 103.229529,52.2509169 103.233048,52.2540794 C103.266385,52.2845872 103.291043,52.307581 103.313348,52.3288389 C103.371985,52.3846945 103.429838,52.4425713 103.485813,52.5013041 C103.51078,52.5274604 103.535938,52.5548294 103.557434,52.578275 C103.561452,52.582674 103.565518,52.5870255 103.569584,52.5913532 C104.319842,53.4169414 104.761741,54.4400336 104.847582,55.5502976 C104.847701,55.5517481 104.847819,55.5531986 104.847938,55.554649 L104.848747,55.5640891 C104.850911,55.5928373 104.852908,55.6248668 104.855238,55.6680485 C104.855643,55.6752058 104.856071,55.6823632 104.856546,55.6895205 L104.856689,55.6917557 C104.858211,55.7230957 104.859328,55.7572653 104.860303,55.789604 C104.860351,55.7905076 104.860374,55.7914112 104.860398,55.7923148 C104.860636,55.7994959 104.860898,55.806677 104.86123,55.8138581 L104.861397,55.8180669 C104.862467,55.8612248 104.86299,55.903812 104.86299,55.9443543 C104.862943,55.9868702 104.862443,56.0292196 104.861421,56.070285 L104.861135,56.0770857 C104.86085,56.0840052 104.860612,56.0909009 104.860374,56.0978205 C104.860327,56.0989143 104.860303,56.0999843 104.860256,56.1010781 C104.859328,56.132751 104.858211,56.1663976 104.856617,56.1992832 L104.856403,56.2023268 C104.855975,56.2091512 104.855571,56.2159994 104.855191,56.2222532 C104.853502,56.2531414 104.85141,56.2892371 104.848771,56.3244292 C104.848343,56.3293276 104.847938,56.3342735 104.847463,56.3401706 C104.761266,57.4510766 104.318606,58.4747395 103.566945,59.3008033 C103.564306,59.3037042 103.561571,59.3065339 103.558908,59.3094111 C103.553439,59.3152368 103.547993,59.3210625 103.542548,59.326912 C103.542215,59.3272449 103.541906,59.3275778 103.541597,59.3279345 L103.531325,59.3390628 C103.516344,59.3553035 103.501435,59.371568 103.48586,59.3879038 C103.430052,59.4464701 103.371795,59.5047511 103.312658,59.5611537 C103.29423,59.5787259 103.273186,59.5981054 103.250905,59.6186024 L103.247576,59.6216461 C103.241299,59.6274242 103.235069,59.6332262 103.228839,59.6390281 L103.224273,59.6432845 C102.953247,59.8897958 102.656063,60.1061085 102.340951,60.2863017 C102.001632,60.4802864 101.815542,60.8620972 101.871802,61.2488539 C101.928062,61.6356106 102.215187,61.9486541 102.595666,62.037966 C103.684601,62.2935844 104.667912,62.7447095 105.518301,63.3787622 C105.538417,63.3937664 105.559105,63.4079383 105.580315,63.4213018 C106.619481,64.1984296 107.484328,65.2150302 108.082071,66.3624124 C108.394092,66.9613444 108.63511,67.4659471 108.79697,67.9817496 C108.921427,68.3783743 108.995687,68.7719554 109.02881,69.2213922 L90.9678786,69.2213922 C91.014199,68.5826789 91.1564418,68.1148614 91.3922528,67.5198529 C91.3950587,67.5127669 91.3977694,67.5056572 91.4004088,67.4985236 C91.4741934,67.2984516 91.557418,67.0988314 91.6477762,66.905251 C91.6506771,66.8990448 91.653483,66.8928386 91.6562413,66.8865611 C92.0733393,65.9401069 92.6571244,65.0878868 93.3913796,64.3536554 C94.156737,63.5883218 95.0477873,62.9875589 96.0398724,62.5679404 C96.4602043,62.390125 96.8968244,62.2465031 97.337582,62.1410456 C97.7232211,62.0487614 98.0111308,61.7269199 98.0600906,61.3334577 C98.1090505,60.9399479 97.9087645,60.5573999 97.557509,60.373426 C97.1821422,60.1768256 96.8314336,59.9313606 96.5151325,59.6438076 L96.5123266,59.6411682 C96.5069527,59.6361509 96.5015788,59.6311337 96.4961811,59.6261402 C96.495872,59.6258549 96.4955628,59.6255695 96.4952537,59.6252842 C96.4709521,59.60298 96.4473877,59.5813178 96.4258919,59.560797 C96.3669213,59.5045847 96.3088543,59.4465177 96.2533316,59.3882367 C96.2338571,59.3677872 96.2132649,59.3455068 96.1877744,59.3177335 C96.1827096,59.3122407 96.177621,59.3067717 96.1724849,59.3013264 L96.1704637,59.2991388 C95.4197063,58.4735743 94.9774268,57.4502919 94.8913012,56.3387914 C94.8909446,56.3343211 94.8905641,56.3298745 94.8901361,56.3248097 C94.8879247,56.2948964 94.8859035,56.2624626 94.8837873,56.2234659 C94.8833592,56.215619 94.8828837,56.2077959 94.8823605,56.1999965 L94.8822179,56.1978803 C94.8806961,56.166136 94.8795785,56.1322041 94.8786035,56.1001745 L94.8786035,56.1001745 C94.8783658,56.0918283 94.8780329,56.0834821 94.8777,56.075112 L94.8775097,56.0701661 C94.8764873,56.0273173 94.8759641,55.9852532 94.8759641,55.9445445 C94.8759641,55.9034315 94.8764873,55.8611297 94.8775573,55.8184949 L94.8777475,55.8138818 C94.8780804,55.8057734 94.8783895,55.7976412 94.8786273,55.7897943 C94.879626,55.7575269 94.8807436,55.7232383 94.8823368,55.6909947 L94.8825032,55.6884505 C94.8829312,55.6819827 94.8833355,55.675515 94.8836921,55.6690234 C94.8837397,55.6681912 94.8837873,55.6673827 94.8838348,55.6665505 C94.8859035,55.6279105 94.887996,55.5945017 94.8902074,55.5646122 L94.891111,55.5542924 C94.8912061,55.5529845 94.891325,55.5517005 94.8914201,55.5503927 C94.9355054,54.9795431 95.0749423,54.4277401 95.3057836,53.9103445 C95.5372194,53.3916173 95.8562075,52.917237 96.2536645,52.5006383 C96.2682407,52.4853725 96.2830785,52.4703683 96.2978925,52.4553166 L96.3082837,52.4447827 C96.3151081,52.4378394 96.3218849,52.4308723 96.328638,52.4239052 C96.3319908,52.4204336 96.3353198,52.4169619 96.3388152,52.4134665 C96.342168,52.4101375 96.3455683,52.4068798 96.3489686,52.4035984 C96.3559357,52.3968453 96.3629266,52.3900922 96.369537,52.3835769 L96.3829005,52.3704512 C96.3970249,52.3565646 96.4111255,52.3426304 96.425345,52.3290529 C96.8421339,51.9314295 97.3164667,51.6124652 97.8350988,51.3810294 C98.352423,51.1501881 98.9041309,51.0107511 99.4748854,50.9665945 C99.4760268,50.9664994 99.4771919,50.9664043 99.4783095,50.9663092 L99.4879398,50.9654769 C99.517972,50.9632418 99.5509289,50.9611493 99.5920657,50.9589379 C99.5996034,50.9585336 99.6071412,50.9580581 99.614679,50.9575587 L99.6169855,50.957416 C99.6455197,50.9560369 99.6761463,50.9549906 99.7129316,50.9538731 C99.7220387,50.9536115 99.7310983,50.9532548 99.7401579,50.9528744 L99.7443429,50.9527079 C99.7864546,50.9516617 99.82859,50.9511385 99.869489,50.9511385 L99.869489,50.9511385 L99.869489,50.9511385 Z" id="Path-Copy-2" stroke="#CCCCCC" stroke-width="0.6" fill="#CCCCCC" sketch:type="MSShapeGroup"></path>
        </g>
    </g>
</svg>