<?xml version="1.0" encoding="UTF-8" standalone="no"?>
<svg width="40px" height="40px" viewBox="0 0 40 40" version="1.1" xmlns="http://www.w3.org/2000/svg" xmlns:xlink="http://www.w3.org/1999/xlink" xmlns:sketch="http://www.bohemiancoding.com/sketch/ns">
    <!-- Generator: Sketch 3.3.3 (12072) - http://www.bohemiancoding.com/sketch -->
    <title>map_legend_poi</title>
    <desc>Created with Sketch.</desc>
    <defs></defs>
    <g id="Page-1" stroke="none" stroke-width="1" fill="none" fill-rule="evenodd" sketch:type="MSPage">
        <g id="Artboard-4" sketch:type="MSArtboardGroup">
            <g id="Rectangle-38-Copy-+-Rectangle-38-+-P-Copy" sketch:type="MSLayerGroup" transform="translate(5.000000, 7.000000)">
                <path d="M0,1.99160851 C0,0.891673503 0.89784041,0 1.99161703,0 L28.008383,0 C29.1083227,0 30,0.899834106 30,1.99160851 L30,19.5894192 C30,20.6893542 29.1108154,21.5810277 27.9945972,21.5810277 L19.2087875,21.5810277 C18.7152902,21.5810277 15.9148815,25.6258023 15.0030694,25.6258023 C14.0959877,25.6258023 11.3635987,21.5810277 10.9095911,21.5810277 L2.00610796,21.5810277 C0.898165129,21.5810277 0,20.6811936 0,19.5894192 L0,1.99160851 Z" id="Rectangle-38-Copy" fill="#FFFFFF" sketch:type="MSShapeGroup"></path>
                <g id="Rectangle-38-+-P-Copy" stroke="#15C19C" sketch:type="MSShapeGroup">
                    <path d="M0,1.99160851 C0,0.891673503 0.89784041,0 1.99161703,0 L28.008383,0 C29.1083227,0 30,0.899834106 30,1.99160851 L30,19.5894192 C30,20.6893542 29.1108154,21.5810277 27.9945972,21.5810277 L19.2087875,21.5810277 C18.7152902,21.5810277 15.9148815,25.6258023 15.0030694,25.6258023 C14.0959877,25.6258023 11.3635987,21.5810277 10.9095911,21.5810277 L2.00610796,21.5810277 C0.898165129,21.5810277 0,20.6811936 0,19.5894192 L0,1.99160851 Z" id="Rectangle-38" stroke-width="1.5"></path>
                    <path d="M5.84902359,11.72563 L8.81500665,11.72563 C10.9016938,11.72563 12.1090852,10.5872335 12.1090852,8.62448075 C12.1090852,6.7664082 10.9410653,5.70652174 8.86750192,5.70652174 L5.95401414,5.70652174 C5.022223,5.70652174 4.61538462,6.1121573 4.61538462,7.11970368 L4.61538462,15.4156051 C4.61538462,15.7950706 4.86473717,15.9782609 5.2322041,15.9782609 C5.58654721,15.9782609 5.84902359,15.7950706 5.84902359,15.4286901 L5.84902359,11.72563 Z M5.84902359,10.6264885 L5.84902359,7.2767239 C5.84902359,6.9888535 5.98026178,6.81874827 6.26898579,6.81874827 L8.78875901,6.81874827 C10.1011409,6.81874827 10.8229509,7.47299917 10.8229509,8.65065079 C10.8229509,9.91989754 10.1142647,10.6264885 8.78875901,10.6264885 L5.84902359,10.6264885 Z M17.5751557,5.70652174 C14.9886698,5.70652174 13.3645972,7.61366311 13.3645972,10.5523401 C13.3645972,13.5270008 15.0006999,15.4221476 17.5751557,15.4221476 C20.1496115,15.4221476 21.761654,13.5150062 21.761654,10.5643347 C21.761654,7.60166851 20.1496115,5.70652174 17.5751557,5.70652174 Z M17.5751557,6.73805732 C19.4037412,6.73805732 20.5706674,8.2253877 20.5706674,10.4923671 C20.5706674,12.9032816 19.4518618,14.3786174 17.5751557,14.3786174 C15.7345401,14.3786174 14.5555837,12.8792924 14.5555837,10.5643347 C14.5555837,8.2493769 15.7104798,6.73805732 17.5751557,6.73805732 Z M24.3011129,15.0116072 C24.3011129,15.3465903 24.5635893,15.5202852 24.9179324,15.5202852 C25.2853993,15.5202852 25.5609995,15.3465903 25.5609995,15.0116072 L25.5609995,6.21519975 C25.5609995,5.86780989 25.2853993,5.70652174 24.9179324,5.70652174 C24.5635893,5.70652174 24.3011129,5.86780989 24.3011129,6.21519975 L24.3011129,15.0116072 Z" id="P" stroke-width="0.6" fill="#15C19C"></path>
                </g>
            </g>
        </g>
    </g>
</svg>