<?xml version="1.0" encoding="UTF-8" standalone="no"?>
<svg width="40px" height="40px" viewBox="0 0 40 40" version="1.1" xmlns="http://www.w3.org/2000/svg" xmlns:xlink="http://www.w3.org/1999/xlink" xmlns:sketch="http://www.bohemiancoding.com/sketch/ns">
    <!-- Generator: Sketch 3.3.3 (12072) - http://www.bohemiancoding.com/sketch -->
    <title>map_objlist_blog_active</title>
    <desc>Created with Sketch.</desc>
    <defs></defs>
    <g id="Page-1" stroke="none" stroke-width="1" fill="none" fill-rule="evenodd" sketch:type="MSPage">
        <g id="Artboard-7-Copy" sketch:type="MSArtboardGroup" transform="translate(-40.000000, -120.000000)">
            <rect id="Rectangle-336-Copy-31" fill="#C6EFDC" sketch:type="MSShapeGroup" x="40" y="120" width="40" height="40"></rect>
            <path d="M60.0000249,129 C53.9250763,129 49,133.282401 49,138.565214 C49,141.657867 50.6881476,144.407437 53.3065507,146.155897 L53.3043327,150.193908 L56.8999454,147.745127 C57.8832111,147.995822 58.9235243,148.130453 60,148.130453 C66.0749735,148.130453 71,143.848027 71,138.565214 C71.0000249,133.282401 66.0749985,129 60.0000249,129 L60.0000249,129 Z M60.0000249,147.173929 C58.8037968,147.173929 57.6565165,146.994562 56.5925269,146.665636 L55.7312068,147.383428 C55.7478301,147.389509 55.7645281,147.39539 55.7812012,147.401446 L54.2762586,148.469548 L54.2608566,146.508799 L54.2608566,145.630781 C51.658977,144.075121 49.956499,141.490687 49.956499,138.565239 C49.956499,133.810632 54.4532829,129.956524 60,129.956524 C65.5467171,129.956524 70.043501,133.810632 70.043501,138.565239 C70.043526,143.319846 65.5467172,147.173929 60.0000249,147.173929 L60.0000249,147.173929 Z M64.4128396,138.112197 C64.4128396,138.720174 64.9057019,139.213036 65.5136783,139.213036 C66.1216548,139.213036 66.614517,138.720174 66.614517,138.112197 C66.614517,137.504221 66.1216548,137.011359 65.5136783,137.011359 C64.9057019,137.011359 64.4128396,137.504221 64.4128396,138.112197 L64.4128396,138.112197 Z M58.8991613,138.112197 C58.8991613,138.720174 59.3920236,139.213036 60,139.213036 C60.6079764,139.213036 61.1008387,138.720174 61.1008387,138.112197 C61.1008387,137.504221 60.6079764,137.011359 60,137.011359 C59.3920236,137.011359 58.8991613,137.504221 58.8991613,138.112197 L58.8991613,138.112197 Z M53.385483,138.112197 C53.385483,138.720174 53.8783452,139.213036 54.4863217,139.213036 C55.0942981,139.213036 55.5871604,138.720174 55.5871604,138.112197 C55.5871604,137.504221 55.0942981,137.011359 54.4863217,137.011359 C53.8783452,137.011359 53.385483,137.504221 53.385483,138.112197 L53.385483,138.112197 Z" id="Shape-Copy-17" stroke="#15C19C" stroke-width="0.6" stroke-linecap="round" stroke-linejoin="round" fill="#15C19C" sketch:type="MSShapeGroup"></path>
        </g>
    </g>
</svg>