<?xml version="1.0" encoding="UTF-8" standalone="no"?>
<svg width="52px" height="43px" viewBox="0 0 52 43" version="1.1" xmlns="http://www.w3.org/2000/svg" xmlns:xlink="http://www.w3.org/1999/xlink" xmlns:sketch="http://www.bohemiancoding.com/sketch/ns">
    <!-- Generator: Sketch 3.3.3 (12072) - http://www.bohemiancoding.com/sketch -->
    <title>map_obj_car_unoccupied</title>
    <desc>Created with Sketch.</desc>
    <defs>
        <path d="M38.9227376,12.1000093 C38.4282363,9.49590409 37.6693229,6.04539658 36.8675,4.44 C36.105,2.915 34.1475,1.7475 31.0525,0.975 C28.5375,0.3475 25.3225,0 22,0 C18.6775,0 15.4625,0.345 12.9475,0.975 C9.8525,1.75 7.895,2.915 7.1325,4.44 C6.33230881,6.04038237 5.57485271,9.48081556 5.08028467,12.0836251 L5.08028467,12.0836251 L2.2623397,12.3890432 C1.30228661,12.4930969 0.379381446,13.3508738 0.212354302,14.303708 L0,15.5151186 L4.19361631,15.072442 C2.72282132,16.2525435 2,17.8860337 2,20 L2,26.25 C2,27.88 3.045,29.27 4.5,29.785 L4.5,32.5 C4.5,33.8775 5.6225,35 7,35 L9.5,35 C10.8775,35 12,33.8775 12,32.5 L12,30 L32,30 L32,32.5 C32,33.8775 33.1225,35 34.5,35 L37,35 C38.3775,35 39.5,33.8775 39.5,32.5 L39.5,29.785 C40.955,29.27 42,27.88 42,26.25 L42,20 C42,17.896758 41.2844939,16.2691294 39.8287102,15.0904372 L43.8518527,15.5151186 L43.6394984,14.303708 C43.4724713,13.3508738 42.5495661,12.4930969 41.589513,12.3890432 L38.9227376,12.1000093 Z" id="path-1"></path>
    </defs>
    <g id="Page-1" stroke="none" stroke-width="1" fill="none" fill-rule="evenodd" sketch:type="MSPage">
        <g id="car-copy-2" sketch:type="MSArtboardGroup" transform="translate(-1.000000, 0.000000)">
            <g id="Path-+-Shape-Copy-24" sketch:type="MSLayerGroup" transform="translate(5.000000, 4.000000)">
                <g id="Path">
                    <use stroke="#FFFFFF" stroke-width="4" stroke-linecap="round" stroke-linejoin="round" fill="#FFFFFF" fill-rule="evenodd" sketch:type="MSShapeGroup" xlink:href="#path-1"></use>
                    <use stroke="none" fill="none" xlink:href="#path-1"></use>
                </g>
            </g>
            <path d="M44.395,18.7675 C44.07,16.7875 43.0125,10.7325 41.8675,8.44 C41.105,6.915 39.1475,5.7475 36.0525,4.975 C33.5375,4.3475 30.3225,4 27,4 C23.6775,4 20.4625,4.345 17.9475,4.975 C14.8525,5.75 12.895,6.915 12.1325,8.44 C10.9875,10.73 9.93,16.7875 9.605,18.7675 C7.8575,19.965 7,21.6975 7,24 L7,30.25 C7,31.88 8.045,33.27 9.5,33.785 L9.5,36.5 C9.5,37.8775 10.6225,39 12,39 L14.5,39 C15.8775,39 17,37.8775 17,36.5 L17,34 L37,34 L37,36.5 C37,37.8775 38.1225,39 39.5,39 L42,39 C43.3775,39 44.5,37.8775 44.5,36.5 L44.5,33.785 C45.955,33.27 47,31.88 47,30.25 L47,24 C47,21.6975 46.1425,19.965 44.395,18.7675 L44.395,18.7675 Z M14.3675,9.56 C15.11,8.0775 19.7875,6.5 27,6.5 C34.2125,6.5 38.89,8.075 39.6325,9.56 C40.35,10.9975 41.1475,14.8 41.64,17.5175 C41.395,17.445 41.1425,17.3775 40.8825,17.3175 C40.215,17.16 39.495,17.0325 38.725,16.9275 L31.4775,11.735 C30.9175,11.3325 30.135,11.4625 29.7325,12.0225 C29.33,12.5825 29.46,13.365 30.02,13.7675 L33.935,16.5725 C31.81,16.5025 29.48,16.5025 26.9975,16.5025 L26.125,16.5025 L18.94,11.7125 C18.365,11.33 17.59,11.485 17.2075,12.06 C16.825,12.635 16.98,13.41 17.555,13.7925 L21.665,16.5325 C18.3125,16.5925 15.3975,16.775 13.115,17.3175 C12.855,17.38 12.6025,17.4475 12.3575,17.5175 C12.8525,14.8 13.6475,10.9975 14.3675,9.56 L14.3675,9.56 Z M44.5,30.25 C44.5,30.94 43.94,31.5 43.25,31.5 L10.75,31.5 C10.06,31.5 9.5,30.94 9.5,30.25 L9.5,24 C9.5,21.69 10.715,20.4575 13.695,19.7475 C16.8325,19 21.545,19 27,19 C32.455,19 37.165,19 40.305,19.7475 C43.285,20.4575 44.5,21.69 44.5,24 L44.5,30.25 L44.5,30.25 Z M38.25,29 C36.1825,29 34.5,27.3175 34.5,25.25 C34.5,23.1825 36.1825,21.5 38.25,21.5 C40.3175,21.5 42,23.1825 42,25.25 C42,27.3175 40.3175,29 38.25,29 L38.25,29 Z M15.75,29 C13.6825,29 12,27.3175 12,25.25 C12,23.1825 13.6825,21.5 15.75,21.5 C17.8175,21.5 19.5,23.1825 19.5,25.25 C19.5,27.3175 17.8175,29 15.75,29 L15.75,29 Z" id="Shape-Copy-18" fill="#15C19C" sketch:type="MSShapeGroup"></path>
            <path d="M38.25,24 C37.56,24 37,24.56 37,25.25 C37,25.94 37.56,26.5 38.25,26.5 C38.94,26.5 39.5,25.94 39.5,25.25 C39.5,24.56 38.94,24 38.25,24 L38.25,24 Z" id="Path" fill="#C6EFDC" sketch:type="MSShapeGroup"></path>
            <path d="M15.75,24 C15.06,24 14.5,24.56 14.5,25.25 C14.5,25.94 15.06,26.5 15.75,26.5 C16.44,26.5 17,25.94 17,25.25 C17,24.56 16.44,24 15.75,24 L15.75,24 Z" id="Path" fill="#C6EFDC" sketch:type="MSShapeGroup"></path>
            <path d="M39.5,36.5 L39.5,34 L42,34 L42,36.5 L39.5,36.5 L39.5,36.5 Z" id="Path" fill="#C6EFDC" sketch:type="MSShapeGroup"></path>
            <path d="M14.5,36.5 L12,36.5 L12,34 L14.5,34 L14.5,36.5 L14.5,36.5 Z" id="Path" fill="#C6EFDC" sketch:type="MSShapeGroup"></path>
            <path d="M43.3711181,18.9365743 L48.8518527,19.5151186 L48.6394984,18.303708 C48.4724713,17.3508738 47.5495661,16.4930969 46.589513,16.3890432 L43,16 L43.3711181,18.9365743 Z" id="Path-421-Copy-3" stroke="#15C19C" stroke-width="2" stroke-linecap="round" stroke-linejoin="round" fill="#C6EFDC" sketch:type="MSShapeGroup"></path>
            <path d="M10.4807346,18.9365743 L5,19.5151186 L5.2123543,18.303708 C5.37938145,17.3508738 6.30228661,16.4930969 7.2623397,16.3890432 L10.8518527,16 L10.4807346,18.9365743 Z" id="Path-421-Copy-6" stroke="#15C19C" stroke-width="2" stroke-linecap="round" stroke-linejoin="round" fill="#C6EFDC" sketch:type="MSShapeGroup"></path>
        </g>
    </g>
</svg>