<?xml version="1.0" encoding="UTF-8" standalone="no"?>
<svg width="40px" height="40px" viewBox="0 0 40 40" version="1.1" xmlns="http://www.w3.org/2000/svg" xmlns:xlink="http://www.w3.org/1999/xlink" xmlns:sketch="http://www.bohemiancoding.com/sketch/ns">
    <!-- Generator: Sketch 3.3.3 (12072) - http://www.bohemiancoding.com/sketch -->
    <title>map_legend_estate</title>
    <desc>Created with Sketch.</desc>
    <defs></defs>
    <g id="Page-1" stroke="none" stroke-width="1" fill="none" fill-rule="evenodd" sketch:type="MSPage">
        <g id="Artboard-4" sketch:type="MSArtboardGroup" transform="translate(-80.000000, 0.000000)">
            <g id="Path-+-Shape-Copy-5" sketch:type="MSLayerGroup" transform="translate(85.000000, 5.000000)">
                <path d="M29.4090357,17.1629613 C29.9113575,16.8317184 29.8661035,15.9979761 29.4465489,15.5554581 L16.1909612,1.53329669 C16.0118478,1.3447051 15.765683,1.23913043 15.5069567,1.23913043 C15.2477127,1.23913043 15.001515,1.34473586 14.8231105,1.53327375 L1.49787856,15.5550581 C1.09967363,15.9732505 1.13163717,16.6708539 1.6423395,17.0010309 C2.11928208,17.2739051 2.70247927,17.1610578 3.08020371,16.7625252 L3.97678241,15.8953437 L3.867524,29.0760349 C3.867524,29.438095 4.38548953,29.8853157 4.86958904,29.8853157 L9.12066793,29.8853157 L9.0560846,29.8370065 L21.7426537,29.9022239 L21.8072371,29.8200984 L26.0960065,29.8853157 C26.6282728,29.8853157 27.1504898,29.3953535 27.1504898,28.8739304 L27.1504898,15.8893446 C27.1582051,16.0555661 27.3355775,16.2384902 27.5128628,16.4259926 C27.5271664,16.4411281 27.5271664,16.4411281 27.5414526,16.4562769 C27.7115814,16.6367756 27.84101,16.7792829 27.9142923,16.8684904 C28.2237432,17.2447966 28.9578843,17.4604398 29.4090339,17.1629624 L29.4090357,17.1629613 Z" id="Path" fill="#FFFFFF" sketch:type="MSShapeGroup"></path>
                <path d="M29.3737241,17.1083555 C29.8892621,16.7683975 29.737167,15.9562872 29.3998991,15.6005598 L16.144246,1.57832937 C15.9769106,1.40213922 15.7473497,1.30434783 15.5069567,1.30434783 C15.2660852,1.30434783 15.0365243,1.40213922 14.869804,1.57832937 L1.54447623,15.6002147 C1.2069008,15.9547344 1.16616896,16.6157408 1.67716227,16.9461059 C2.1463986,17.2144629 2.69511671,17.0745046 3.03354641,16.7174314 L3.93210733,15.8482474 L3.93210733,29.0760349 C3.93210733,29.3669246 4.38125111,29.8200984 4.86958904,29.8200984 L9.12066793,29.8200984 L9.12066793,29.8370065 L21.7426537,29.8370065 L21.7426537,29.8200984 L26.0960065,29.8200984 C26.5843444,29.8200984 27.0859065,29.3669246 27.0859065,28.8739304 L27.0859065,15.8893446 C27.0859065,15.8893446 27.7456462,16.561048 27.963999,16.8268515 C28.1825226,17.092586 28.8840535,17.4312327 29.3737241,17.1083555 L29.3737241,17.1083555 Z M18.9384097,28.1176861 L12.1029088,28.1176861 L12.0969631,17.9266769 L18.9384097,17.9266769 L18.9384097,28.1176861 L18.9384097,28.1176861 Z M25.3536412,28.0764163 L20.6652759,28.0764163 L20.6652759,17.0748497 C20.6652759,16.58258 20.2705324,16.1832709 19.7821945,16.1832709 L11.2504104,16.1832709 C10.7640886,16.1832709 10.3685591,16.5803026 10.3670556,17.0722272 L10.3592988,28.0764163 L5.64547603,28.0764163 L5.64547603,14.0436269 L15.5069567,3.71048548 L25.3536754,14.1258559 L25.3536412,28.0764163 L25.3536412,28.0764163 Z M22.1512707,4.96151833 L24.0663167,4.96151833 L24.0663167,7.90554318 L25.7927046,10.1191346 L25.7927046,4.16369374 C25.7927046,3.67056147 25.3979269,3.19723593 24.9101357,3.19723593 L21.0073961,3.19723593 L19.5151822,3.18923042 L21.3879245,4.96396829 L22.1512707,4.96151833 L22.1512707,4.96151833 Z" id="Shape-Copy-5" stroke="#15C19C" stroke-width="0.1" fill="#15C19C" sketch:type="MSShapeGroup"></path>
            </g>
        </g>
    </g>
</svg>