<?xml version="1.0" encoding="UTF-8" standalone="no"?>
<svg width="40px" height="40px" viewBox="0 0 40 40" version="1.1" xmlns="http://www.w3.org/2000/svg" xmlns:xlink="http://www.w3.org/1999/xlink" xmlns:sketch="http://www.bohemiancoding.com/sketch/ns">
    <!-- Generator: Sketch 3.3.3 (12072) - http://www.bohemiancoding.com/sketch -->
    <title>map_objlist_car_active</title>
    <desc>Created with Sketch.</desc>
    <defs></defs>
    <g id="Page-1" stroke="none" stroke-width="1" fill="none" fill-rule="evenodd" sketch:type="MSPage">
        <g id="Artboard-7-Copy" sketch:type="MSArtboardGroup" transform="translate(0.000000, -120.000000)">
            <rect id="Rectangle-336-Copy-30" fill="#C6EFDC" sketch:type="MSShapeGroup" x="0" y="120" width="40" height="40"></rect>
            <path d="M30.437,138.8605 C30.242,137.6725 29.6075,134.0395 28.9205,132.664 C28.463,131.749 27.2885,131.0485 25.4315,130.585 C23.9225,130.2085 21.9935,130 20,130 C18.0065,130 16.0775,130.207 14.5685,130.585 C12.7115,131.05 11.537,131.749 11.0795,132.664 C10.3925,134.038 9.758,137.6725 9.563,138.8605 C8.5145,139.579 8,140.6185 8,142 L8,145.75 C8,146.728 8.627,147.562 9.5,147.871 L9.5,149.5 C9.5,150.3265 10.1735,151 11,151 L12.5,151 C13.3265,151 14,150.3265 14,149.5 L14,148 L26,148 L26,149.5 C26,150.3265 26.6735,151 27.5,151 L29,151 C29.8265,151 30.5,150.3265 30.5,149.5 L30.5,147.871 C31.373,147.562 32,146.728 32,145.75 L32,142 C32,140.6185 31.4855,139.579 30.437,138.8605 L30.437,138.8605 Z M12.4205,133.336 C12.866,132.4465 15.6725,131.5 20,131.5 C24.3275,131.5 27.134,132.445 27.5795,133.336 C28.01,134.1985 28.4885,136.48 28.784,138.1105 C28.637,138.067 28.4855,138.0265 28.3295,137.9905 C27.929,137.896 27.497,137.8195 27.035,137.7565 L22.6865,134.641 C22.3505,134.3995 21.881,134.4775 21.6395,134.8135 C21.398,135.1495 21.476,135.619 21.812,135.8605 L24.161,137.5435 C22.886,137.5015 21.488,137.5015 19.9985,137.5015 L19.475,137.5015 L15.164,134.6275 C14.819,134.398 14.354,134.491 14.1245,134.836 C13.895,135.181 13.988,135.646 14.333,135.8755 L16.799,137.5195 C14.7875,137.5555 13.0385,137.665 11.669,137.9905 C11.513,138.028 11.3615,138.0685 11.2145,138.1105 C11.5115,136.48 11.9885,134.1985 12.4205,133.336 L12.4205,133.336 Z M12.5,149.5 L11,149.5 L11,148 L12.5,148 L12.5,149.5 L12.5,149.5 Z M27.5,149.5 L27.5,148 L29,148 L29,149.5 L27.5,149.5 L27.5,149.5 Z M30.5,145.75 C30.5,146.164 30.164,146.5 29.75,146.5 L10.25,146.5 C9.836,146.5 9.5,146.164 9.5,145.75 L9.5,142 C9.5,140.614 10.229,139.8745 12.017,139.4485 C13.8995,139 16.727,139 20,139 C23.273,139 26.099,139 27.983,139.4485 C29.771,139.8745 30.5,140.614 30.5,142 L30.5,145.75 L30.5,145.75 Z M26.75,145 C25.5095,145 24.5,143.9905 24.5,142.75 C24.5,141.5095 25.5095,140.5 26.75,140.5 C27.9905,140.5 29,141.5095 29,142.75 C29,143.9905 27.9905,145 26.75,145 L26.75,145 Z M26.75,142 C26.336,142 26,142.336 26,142.75 C26,143.164 26.336,143.5 26.75,143.5 C27.164,143.5 27.5,143.164 27.5,142.75 C27.5,142.336 27.164,142 26.75,142 L26.75,142 Z M13.25,145 C12.0095,145 11,143.9905 11,142.75 C11,141.5095 12.0095,140.5 13.25,140.5 C14.4905,140.5 15.5,141.5095 15.5,142.75 C15.5,143.9905 14.4905,145 13.25,145 L13.25,145 Z M13.25,142 C12.836,142 12.5,142.336 12.5,142.75 C12.5,143.164 12.836,143.5 13.25,143.5 C13.664,143.5 14,143.164 14,142.75 C14,142.336 13.664,142 13.25,142 L13.25,142 Z" id="Shape-Copy-16" fill="#15C19C" sketch:type="MSShapeGroup"></path>
        </g>
    </g>
</svg>