<?xml version="1.0" encoding="UTF-8" standalone="no"?>
<svg width="18px" height="22px" viewBox="0 0 18 22" version="1.1" xmlns="http://www.w3.org/2000/svg" xmlns:xlink="http://www.w3.org/1999/xlink" xmlns:sketch="http://www.bohemiancoding.com/sketch/ns">
    <!-- Generator: Sketch 3.3.3 (12072) - http://www.bohemiancoding.com/sketch -->
    <title>map_point</title>
    <desc>Created with Sketch.</desc>
    <defs></defs>
    <g id="Page-1" stroke="none" stroke-width="1" fill="none" fill-rule="evenodd" sketch:type="MSPage">
        <g id="Artboard-8" sketch:type="MSArtboardGroup" transform="translate(-32.000000, -279.000000)" fill="#15C19C">
            <path d="M40.5957786,280 C36.4003225,280 33,283.352919 33,287.489937 C33,291.626475 40.5957786,299.973655 40.5957786,299.973655 C40.5957786,299.973655 48.1915571,291.626475 48.1915571,287.489937 C48.1915571,283.352919 44.7907703,280 40.5957786,280 L40.5957786,280 Z M40.6353159,292.444205 C37.8383374,292.444205 35.5715022,290.208429 35.5715022,287.450928 C35.5715022,284.692923 37.8383606,282.457629 40.6353159,282.457629 C43.4318068,282.457629 45.6991992,284.692923 45.6991992,287.450928 C45.6991992,290.208429 43.4318068,292.444205 40.6353159,292.444205 L40.6353159,292.444205 Z M40.6353159,284.408138 C38.8872014,284.408138 37.4704294,285.805191 37.4704294,287.528924 C37.4704294,289.25268 38.8872014,290.649733 40.6353159,290.649733 C42.3824552,290.649733 43.8002023,289.252703 43.8002023,287.528924 C43.8002023,285.805191 42.3824552,284.408138 40.6353159,284.408138 L40.6353159,284.408138 Z" id="Shape-Copy-8" sketch:type="MSShapeGroup"></path>
        </g>
    </g>
</svg>