<?xml version="1.0" encoding="UTF-8" standalone="no"?>
<svg width="40px" height="40px" viewBox="0 0 40 40" version="1.1" xmlns="http://www.w3.org/2000/svg" xmlns:xlink="http://www.w3.org/1999/xlink" xmlns:sketch="http://www.bohemiancoding.com/sketch/ns">
    <!-- Generator: Sketch 3.3.3 (12072) - http://www.bohemiancoding.com/sketch -->
    <title>map_legend_blog</title>
    <desc>Created with Sketch.</desc>
    <defs></defs>
    <g id="Page-1" stroke="none" stroke-width="1" fill="none" fill-rule="evenodd" sketch:type="MSPage">
        <g id="Artboard-4" sketch:type="MSArtboardGroup" transform="translate(-40.000000, -40.000000)">
            <g id="Path-+-Shape" sketch:type="MSLayerGroup" transform="translate(45.000000, 46.000000)">
                <path d="M15.0000312,23.5924117 C13.5677684,23.5924117 12.1698449,23.3813593 10.851416,22.9737742 C10.7301299,22.9362792 10.5981085,22.9626931 10.5005845,23.0439659 L9.4239344,23.9412055 C9.20194757,24.126201 9.26379866,24.4821847 9.53517659,24.5814595 C9.5537114,24.5881947 9.5537114,24.5881947 9.57082503,24.5943275 C9.5775723,24.5967449 9.5775723,24.5967449 9.58408049,24.5990808 C9.59143777,24.6017271 9.59143777,24.6017271 9.598475,24.6042768 L9.72650153,24.251808 L9.50946086,23.9460003 L7.62828263,25.2811275 L8.22031173,25.5839896 L8.20105914,23.1330529 L8.20107071,22.0384758 C8.20107071,21.9065454 8.13174322,21.7843205 8.01850903,21.7166179 C4.78147661,19.7812012 2.82062371,16.631093 2.82062371,13.2065488 C2.82062371,7.4844514 8.26184089,2.82065489 15,2.82065489 C21.7381591,2.82065489 27.1793763,7.4844514 27.1793763,13.2065488 C27.1794063,18.9286273 21.7381815,23.5924117 15.0000312,23.5924117 L15.0000312,23.5924117 Z" id="Path" fill="#FFFFFF" sketch:type="MSShapeGroup"></path>
                <path d="M15.0000312,0.875 C7.20985378,0.875 0.875,6.38344954 0.875,13.2065177 C0.875,17.1013033 2.95552739,20.6900041 6.42494028,23.0067327 L6.25818849,22.694665 L6.25541588,27.7421791 C6.25525038,28.0434657 6.5924833,28.2219263 6.84150391,28.0523316 L11.3360198,24.9913554 L11.032285,25.0447841 C12.3108874,25.3707786 13.6429841,25.5380665 15,25.5380665 C22.7901856,25.5380665 29.125,20.0296055 29.125,13.2065177 C29.1250322,6.3834404 22.7902286,0.875 15.0000312,0.875 L15.0000312,0.875 Z M15.0000312,23.5924117 C13.5677684,23.5924117 12.1698449,23.3813593 10.851416,22.9737742 C10.7301299,22.9362792 10.5981085,22.9626931 10.5005845,23.0439659 L9.4239344,23.9412055 C9.20194757,24.126201 9.26379866,24.4821847 9.53517659,24.5814595 C9.5537114,24.5881947 9.5537114,24.5881947 9.57082503,24.5943275 C9.5775723,24.5967449 9.5775723,24.5967449 9.58408049,24.5990808 C9.59143777,24.6017271 9.59143777,24.6017271 9.598475,24.6042768 L9.72650153,24.251808 L9.50946086,23.9460003 L7.62828263,25.2811275 L8.22031173,25.5839896 L8.20105914,23.1330529 L8.20107071,22.0384758 C8.20107071,21.9065454 8.13174322,21.7843205 8.01850903,21.7166179 C4.78147661,19.7812012 2.82062371,16.631093 2.82062371,13.2065488 C2.82062371,7.4844514 8.26184089,2.82065489 15,2.82065489 C21.7381591,2.82065489 27.1793763,7.4844514 27.1793763,13.2065488 C27.1794063,18.9286273 21.7381815,23.5924117 15.0000312,23.5924117 L15.0000312,23.5924117 Z M20.1410496,12.6402467 C20.1410496,13.607324 20.9250206,14.3912951 21.8920979,14.3912951 C22.8591752,14.3912951 23.6431463,13.607324 23.6431463,12.6402467 C23.6431463,11.6731694 22.8591752,10.8891983 21.8920979,10.8891983 C20.9250206,10.8891983 20.1410496,11.6731694 20.1410496,12.6402467 L20.1410496,12.6402467 Z M13.2489516,12.6402467 C13.2489516,13.607324 14.0329227,14.3912951 15,14.3912951 C15.9670773,14.3912951 16.7510484,13.607324 16.7510484,12.6402467 C16.7510484,11.6731694 15.9670773,10.8891983 15,10.8891983 C14.0329227,10.8891983 13.2489516,11.6731694 13.2489516,12.6402467 L13.2489516,12.6402467 Z M6.35685369,12.6402467 C6.35685369,13.607324 7.14082475,14.3912951 8.10790207,14.3912951 C9.07497938,14.3912951 9.85895044,13.607324 9.85895044,12.6402467 C9.85895044,11.6731694 9.07497938,10.8891983 8.10790207,10.8891983 C7.14082475,10.8891983 6.35685369,11.6731694 6.35685369,12.6402467 L6.35685369,12.6402467 Z" id="Shape" fill="#15C19C" sketch:type="MSShapeGroup"></path>
            </g>
        </g>
    </g>
</svg>