<?xml version="1.0" encoding="UTF-8" standalone="no"?>
<svg width="40px" height="40px" viewBox="0 0 40 40" version="1.1" xmlns="http://www.w3.org/2000/svg" xmlns:xlink="http://www.w3.org/1999/xlink" xmlns:sketch="http://www.bohemiancoding.com/sketch/ns">
    <!-- Generator: Sketch 3.3.3 (12072) - http://www.bohemiancoding.com/sketch -->
    <title>map_objlist_socialnet_disabled</title>
    <desc>Created with Sketch.</desc>
    <defs></defs>
    <g id="Page-1" stroke="none" stroke-width="1" fill="none" fill-rule="evenodd" sketch:type="MSPage">
        <g id="Artboard-7-Copy" sketch:type="MSArtboardGroup" transform="translate(-40.000000, 0.000000)">
            <rect id="Rectangle-336-Copy-17" fill="#F2F2F2" sketch:type="MSShapeGroup" x="40" y="0" width="40" height="40"></rect>
            <path d="M56.7850817,10 C56.7348879,10 56.6847586,10.0006443 56.6347581,10.0018686 C56.6239332,10.0021907 56.6131728,10.0027706 56.602348,10.0030284 C56.5628502,10.0042526 56.5234812,10.0056057 56.4841123,10.0075387 C56.4755426,10.0079898 56.4669729,10.0086341 56.4583388,10.0091496 C56.4165214,10.0114047 56.374704,10.0139177 56.3330799,10.0170749 C56.3290206,10.0173971 56.3250257,10.0177837 56.3209664,10.0181058 C54.9685049,10.122746 53.7078612,10.6837051 52.7193207,11.6268198 C52.6973489,11.6477608 52.6757636,11.6691527 52.6541139,11.6904803 C52.641936,11.7024005 52.6295647,11.7141274 52.6174512,11.7261765 C52.6055954,11.7380967 52.5940618,11.7502746 52.5822704,11.7622593 C52.5607496,11.7841023 52.5392288,11.8058809 52.5180301,11.828046 C51.5747865,12.8167798 51.0138275,14.0775523 50.9093161,15.4302716 C50.908994,15.4340731 50.9086074,15.4378747 50.9082852,15.4416763 C50.9051279,15.4835582 50.902615,15.5255689 50.9003599,15.567644 C50.8998444,15.5760204 50.8992001,15.5843323 50.8988135,15.5927087 C50.896816,15.6322709 50.8954629,15.6718976 50.8943031,15.7115887 C50.8939165,15.7222203 50.893401,15.7327874 50.8931433,15.7434189 C50.8918546,15.7934194 50.8912103,15.8434843 50.8912103,15.8936781 L50.8912103,15.894258 C50.8912103,15.9442585 50.8918546,15.9941301 50.8930789,16.0439373 C50.893401,16.0549554 50.8939809,16.0659736 50.8943031,16.0769273 C50.8955273,16.1162318 50.896816,16.1554074 50.898749,16.1945186 C50.8992001,16.203346 50.8998444,16.212109 50.9003599,16.2209364 C50.902615,16.2625605 50.9051279,16.3041202 50.9082208,16.345551 C50.9086074,16.3498036 50.908994,16.3540563 50.9093161,16.3583089 C51.0104769,17.6638627 51.5368351,18.8836554 52.4216375,19.8558298 C52.4279519,19.8627242 52.4343953,19.8694253 52.4407098,19.8763197 C52.4659033,19.9038328 52.4912258,19.9312171 52.5169992,19.9582792 C52.5831081,20.0276742 52.6508922,20.0954584 52.7202872,20.1615673 C52.7473494,20.1874052 52.7747981,20.2127276 52.8023112,20.2379211 C52.8091412,20.2442356 52.8159067,20.250679 52.8227367,20.2569935 C53.1995445,20.5998447 53.6135948,20.8887006 54.0553517,21.1200173 C53.566816,21.2369643 53.0878166,21.3943756 52.6208017,21.591929 C51.5248504,22.0554645 50.540627,22.7190018 49.6955157,23.5640486 C48.8834589,24.3761054 48.2395094,25.3170295 47.7791312,26.3618205 C47.677906,26.578704 47.5860237,26.7991314 47.5036131,27.0225872 C47.1692671,27.8662809 47,28.5121635 47,29.547676 C47,29.7957454 47.2009684,29.9966495 47.448909,29.9966495 L47.517273,29.9966495 L47.517273,30 L66.3697748,30 C66.6262206,29.9971005 66.8317638,29.7868536 66.8288643,29.5303434 C66.8285422,29.4911678 66.8277045,29.452572 66.8268024,29.4141052 L66.8269313,29.4139119 C66.8269313,29.4135897 66.8268669,29.4132675 66.8268024,29.4128809 C66.7930392,27.9713077 66.4394276,27.0836703 65.7637767,25.7867505 C65.1023012,24.5169573 64.143658,23.3929129 62.9917138,22.5362681 C62.977925,22.5260231 62.9637496,22.5168091 62.9493165,22.5083039 C62.0556223,21.8419315 60.982996,21.3172486 59.7034733,21.0169235 C60.0746753,20.8046792 60.4245499,20.5506819 60.7471045,20.2571223 C60.7554809,20.2495192 60.763664,20.2416583 60.7720403,20.2340551 C60.7980071,20.2100858 60.8239094,20.1863098 60.849554,20.1618895 C60.9190778,20.0955873 60.9870553,20.0276742 61.0533575,19.9580215 C61.0755226,19.9348254 61.0971723,19.9111783 61.1188865,19.88766 C61.1288092,19.8768996 61.1389253,19.8663325 61.1487837,19.8555076 C62.0331994,18.8835266 62.5594287,17.664056 62.6607184,16.3588888 C62.6610405,16.3544429 62.6614916,16.3499969 62.6618137,16.3456155 C62.664971,16.3042491 62.6674195,16.2626894 62.6697391,16.2211941 C62.6702545,16.2123023 62.6708989,16.2034749 62.6713499,16.1946475 C62.6732829,16.1555363 62.674636,16.1162962 62.6757314,16.0770562 C62.676118,16.066038 62.6766979,16.0550843 62.6770201,16.0440661 C62.6782443,15.994259 62.6788242,15.9443229 62.6788886,15.8943869 L62.6788886,15.893807 C62.6788886,15.8436132 62.6782443,15.7934838 62.6770201,15.7434833 C62.6766979,15.7328518 62.6761824,15.7223491 62.6757958,15.7117176 C62.674636,15.6720265 62.6732829,15.6323998 62.6713499,15.5928376 C62.6708989,15.5844612 62.6702545,15.5760848 62.6698035,15.5677085 C62.6674839,15.5256977 62.6650354,15.483687 62.6618137,15.4418696 C62.6614916,15.4379392 62.6611694,15.4340087 62.6608472,15.4301427 C62.5598153,14.1241378 62.0333283,12.9038296 61.1482038,11.9313975 C61.1444666,11.9273382 61.140665,11.9233433 61.1369279,11.9192196 C61.109157,11.8889358 61.0812572,11.8587809 61.052842,11.8290125 C60.9869264,11.7597464 60.9193356,11.6921555 60.8501339,11.6262399 C60.8192057,11.5967938 60.787891,11.5677987 60.7565118,11.5390613 C60.7535479,11.5363551 60.7506484,11.5335844 60.7476844,11.5308782 C59.7753168,10.6457537 58.5551375,10.1192666 57.249197,10.0181703 C57.2451377,10.0178481 57.2411428,10.0174615 57.2370835,10.0171393 C57.1954594,10.0139821 57.1536419,10.0114692 57.111889,10.009214 C57.1032549,10.0086985 57.0946852,10.0080542 57.0860511,10.0076032 C57.0467466,10.0056702 57.0073132,10.0043171 56.9678798,10.0031572 C56.957055,10.0028351 56.9462302,10.0021907 56.9354053,10.001933 C56.8853404,10.0006443 56.8352755,10 56.7850817,10 L56.7850817,10 Z M56.7850817,10.9429859 C56.8268347,10.9429859 56.8688454,10.9435014 56.9100829,10.9446612 L56.9146577,10.9447901 C56.9226474,10.9451122 56.9306372,10.9454344 56.9397868,10.9457566 C56.9689108,10.9465942 57.0028673,10.9476896 57.0357284,10.9493004 L57.0383702,10.9494293 C57.0456512,10.9499447 57.0529322,10.9503958 57.0606642,10.9508468 C57.1000332,10.9529731 57.13225,10.9549706 57.1616962,10.9571613 C57.1660776,10.9575479 57.1703947,10.9579345 57.1747762,10.9582567 C57.1752916,10.9582567 57.1758715,10.9583211 57.1763226,10.9583856 C58.2765909,11.0435024 59.2904538,11.4813287 60.1086318,12.2244416 C60.1124979,12.2281143 60.1163639,12.2316582 60.1198433,12.234751 C60.1528977,12.2650348 60.1773181,12.2878443 60.1994832,12.3089141 C60.2576024,12.3642625 60.3149483,12.4216729 60.3704256,12.4799209 C60.3951681,12.5058232 60.4201684,12.5329497 60.4414315,12.5562103 C60.4454263,12.5605918 60.4494857,12.5648444 60.4534805,12.5691614 C61.1973666,13.387726 61.6354507,14.40204 61.7205675,15.5028238 C61.7206964,15.5042413 61.7208253,15.5056589 61.7208897,15.5071409 L61.7217273,15.5164837 C61.7238536,15.5449634 61.7258511,15.5767292 61.7281707,15.6195775 C61.7285573,15.6266652 61.7290083,15.6337529 61.7294594,15.6408406 L61.7295882,15.6430313 C61.7311346,15.6740883 61.73223,15.7079804 61.7331965,15.7400684 C61.7331965,15.7409704 61.733261,15.7418725 61.733261,15.7427746 C61.7335187,15.7498623 61.7337764,15.7570144 61.7340986,15.7641021 L61.7342919,15.7682903 C61.7353228,15.8110742 61.7358383,15.8532782 61.7358383,15.8934848 C61.7357739,15.9356244 61.7353228,15.9776351 61.7342919,16.0183571 L61.7340342,16.0250582 C61.733712,16.0319526 61.7335187,16.0387826 61.733261,16.045677 C61.7331965,16.0467079 61.7331965,16.0478033 61.7331321,16.0488987 C61.73223,16.0802778 61.7311346,16.1136544 61.7295238,16.1462579 L61.7293305,16.1492218 C61.7288795,16.1560518 61.7284929,16.1628173 61.7281063,16.1690029 C61.726431,16.1996089 61.7243691,16.235434 61.7217273,16.2702926 C61.7213407,16.2751895 61.7208897,16.2800865 61.7204387,16.2859499 C61.6349997,17.3873137 61.1961424,18.4022075 60.4509032,19.2212231 C60.4482614,19.2241227 60.4455552,19.2268933 60.4429134,19.2297928 C60.437501,19.2355274 60.4320886,19.2413264 60.4266762,19.2471255 C60.426354,19.2474476 60.4260318,19.2477698 60.4257741,19.2481564 L60.4155936,19.2591745 C60.4007094,19.2752829 60.3859541,19.2913913 60.37049,19.3075642 C60.3151416,19.3656833 60.2574091,19.4234158 60.1987745,19.4793442 C60.1804753,19.4968057 60.1596633,19.5160069 60.1375625,19.5363035 L60.1342764,19.5393319 C60.1280264,19.5450665 60.1218407,19.5508011 60.1156551,19.5565357 L60.1111448,19.5607883 C59.8424566,19.805185 59.5478017,20.01962 59.2353631,20.1982944 C58.8989552,20.3906288 58.7144818,20.7691762 58.7702169,21.1526207 C58.8260164,21.5360651 59.1106841,21.8464418 59.4878784,21.9349736 C60.567528,22.188391 61.5424086,22.6356891 62.3855224,23.2643035 C62.4054968,23.2791876 62.4259867,23.2932341 62.4470565,23.3065075 C63.4772855,24.0769402 64.3347681,25.0848752 64.927364,26.2224506 C65.2367742,26.8162708 65.475694,27.3165333 65.6361982,27.8279429 C65.7595885,28.2211813 65.8331717,28.6113912 65.8660329,29.0569496 L47.9595454,29.0569496 C48.0054865,28.4236961 48.1465317,27.959903 48.3802968,27.3700132 C48.3830675,27.36299 48.3857737,27.3559023 48.3884155,27.3488146 C48.4615476,27.1504879 48.5440871,26.9525479 48.6336498,26.7606646 C48.6365493,26.7544789 48.63932,26.7483577 48.6420262,26.7421077 C49.0555611,25.803761 49.6343682,24.958843 50.3623392,24.2308721 C51.1211739,23.4721019 52.0045587,22.8764775 52.9882022,22.4604297 C53.4048944,22.2841393 53.8378238,22.1417411 54.2748126,22.0371653 C54.6571616,21.9456696 54.9426025,21.6265943 54.991121,21.2365132 C55.0396396,20.8463677 54.8411196,20.4671115 54.4928559,20.2846999 C54.1206874,20.0897882 53.7730036,19.8464225 53.4594052,19.5613037 L53.4565701,19.558662 C53.4512866,19.5537006 53.4459386,19.5487392 53.4405906,19.5437778 C53.4402684,19.5435201 53.4400107,19.5431979 53.4396885,19.5429402 C53.4155904,19.5208394 53.392201,19.4993186 53.3709379,19.479022 C53.3124321,19.423287 53.2548929,19.3656833 53.1998022,19.3079508 C53.1805365,19.2876542 53.1601111,19.2655535 53.1348531,19.2380403 C53.1298273,19.2325635 53.124737,19.227151 53.1196468,19.2217386 L53.1176493,19.2196123 C52.3733122,18.4011121 51.9348415,17.3865405 51.849467,16.2845324 C51.8490804,16.2800865 51.8486938,16.275705 51.8483072,16.2706792 C51.8461164,16.2410397 51.844119,16.2088873 51.8419927,16.1702272 C51.8415416,16.1624307 51.8410906,16.1546987 51.8405751,16.1469666 L51.8404463,16.1448403 C51.8388999,16.1133967 51.8378045,16.0797624 51.836838,16.0479966 C51.8366447,16.0396847 51.8362581,16.0314372 51.8359359,16.0231252 L51.8357426,16.0182283 C51.8347761,15.9757665 51.8342606,15.9340135 51.8342606,15.8936781 C51.8342606,15.8528916 51.8347761,15.8109453 51.835807,15.7686769 L51.8360003,15.7641665 C51.8363225,15.7561123 51.8366447,15.7480581 51.8369024,15.7402617 C51.8378689,15.7082382 51.8389643,15.6742816 51.8405751,15.6423226 L51.840704,15.6397452 C51.841155,15.6333663 51.8415416,15.6269229 51.8418638,15.620544 C51.8419282,15.6197064 51.8419927,15.6188687 51.8420571,15.6180311 C51.844119,15.5797575 51.8461809,15.5466387 51.8483716,15.5169992 L51.8492737,15.5067543 C51.8493381,15.5054656 51.849467,15.5041769 51.8495314,15.5028882 C51.8932818,14.9369034 52.0314919,14.389862 52.2603601,13.8768416 C52.4898082,13.3625969 52.8061128,12.892296 53.2001244,12.4792121 C53.2146219,12.4640702 53.2293128,12.449186 53.2440036,12.4343019 L53.254313,12.4238636 C53.2610786,12.4169692 53.2677796,12.4100748 53.2744807,12.403116 C53.2778313,12.399701 53.2811174,12.396286 53.2845968,12.3928066 C53.2878829,12.3895205 53.2912979,12.3862988 53.2946485,12.3830127 C53.3015429,12.3763116 53.3085017,12.3696105 53.3150095,12.3631672 L53.3282828,12.3501516 C53.3422649,12.3363628 53.356247,12.322574 53.370358,12.3091074 C53.7835707,11.9149025 54.2538717,11.5986624 54.7680519,11.3692143 C55.2809434,11.1403461 55.8279204,11.0020715 56.3938408,10.9583211 C56.3949362,10.9581923 56.396096,10.9581278 56.3971913,10.9579989 L56.4067919,10.9571613 C56.4365603,10.9549706 56.4692281,10.9529087 56.5100146,10.950718 C56.5174889,10.9503313 56.5249632,10.9498159 56.5324375,10.9493648 L56.5346927,10.949236 C56.562979,10.9478184 56.5933917,10.9467875 56.6298611,10.9456921 C56.6388818,10.9454344 56.6478381,10.9450478 56.6567944,10.9447256 L56.6609825,10.9445323 C56.7027355,10.9435014 56.7444885,10.9429859 56.7850817,10.9429859 Z M72.4829138,28.093345 L67.8300338,28.093345 C67.5703019,28.093345 67.3597329,27.8827759 67.3597329,27.6229796 C67.3597329,27.3632477 67.5703019,27.1526787 67.8300338,27.1526787 L71.9509499,27.1526787 C71.918862,26.9754862 71.8765291,26.8041573 71.8224693,26.6320551 C71.6850968,26.1942287 71.47485,25.7549847 71.2014581,25.230173 C70.6908862,24.2501377 69.9527347,23.3804773 69.0661282,22.7143626 C69.0424811,22.6988985 69.019285,22.6827257 68.9966043,22.6657796 C68.2724994,22.1259548 67.4332516,21.7412862 66.5022503,21.5227273 C65.9630699,21.3961153 65.5631304,20.9601575 65.4834261,20.4120852 C65.4036573,19.8640129 65.6628737,19.3321778 66.1437417,19.057304 C66.4006385,18.910331 66.6431667,18.7339762 66.8644317,18.5330722 C66.8659137,18.5317191 66.8674601,18.5302371 66.8677822,18.5299149 L66.8858881,18.5131622 C66.8868546,18.5122601 66.8909139,18.5085874 66.8919448,18.5076853 C66.9076022,18.4931878 66.9249993,18.4772727 66.9401412,18.4628395 C66.9881442,18.4170272 67.0360184,18.3690886 67.0819596,18.3208923 C67.0919468,18.310454 67.1014185,18.3001447 67.1108902,18.2898353 L67.127643,18.2717294 C67.1286095,18.2706985 67.129576,18.2696031 67.1306069,18.2685077 L67.144589,18.2534947 C67.14562,18.2523993 67.1490994,18.2487266 67.1501948,18.2476313 C67.7636672,17.5733979 68.1260418,16.7356321 68.1965966,15.8265383 L68.1980142,15.8090123 C68.1998183,15.7849142 68.201558,15.7554036 68.2028467,15.7301456 L68.2042642,15.7081737 C68.2054885,15.6827224 68.2062617,15.6568846 68.2070349,15.6323998 C68.2070993,15.6292426 68.2072282,15.6261497 68.207357,15.6229925 L68.2080658,15.604049 C68.2080658,15.6039846 68.2080658,15.6026959 68.2081302,15.6012784 C68.2089034,15.568675 68.2093545,15.5352339 68.2093545,15.5015996 C68.2093545,15.4684163 68.2089679,15.4335577 68.2080658,15.3983125 L68.2075503,15.3854258 L68.2075503,15.3849103 C68.207357,15.3814309 68.2072282,15.377887 68.2070993,15.3743432 C68.2063261,15.3485053 68.2054885,15.3211854 68.2042642,15.2959919 L68.20304,15.2764041 C68.2010425,15.2392903 68.1994317,15.212937 68.1976276,15.1892898 L68.1974343,15.1868414 C68.197241,15.1843929 68.1969832,15.1813001 68.1967255,15.1780784 C68.1264928,14.2700799 67.7650203,13.4330873 67.1515479,12.7576297 L67.1393055,12.7443564 C67.1235837,12.7272171 67.102836,12.7046653 67.0822817,12.6831445 C67.0361473,12.634626 66.9885308,12.587074 66.9404633,12.5412617 C66.9221642,12.5238646 66.9018032,12.5048567 66.8742256,12.4796631 L66.8647538,12.4709002 C66.1894896,11.8576855 65.3526903,11.4964062 64.4448851,11.4261091 L64.4273592,11.4246916 C64.4084801,11.4233385 64.381869,11.4216632 64.3493945,11.4199235 L64.325554,11.4184415 C64.3015847,11.4172817 64.2735561,11.4163797 64.2495224,11.4156709 L64.2201407,11.4145755 C64.1604751,11.4130291 64.0894693,11.4128358 64.0203965,11.4145755 L63.9903704,11.4156709 C63.9627284,11.4165085 63.9379214,11.4173462 63.9147898,11.4184415 L63.8933334,11.4197302 C63.8590547,11.4215988 63.8321214,11.4233385 63.8074434,11.4251426 L63.8040284,11.4254648 C63.8021598,11.4256581 63.799518,11.4258514 63.7969407,11.4260447 C63.3296037,11.462192 62.8781818,11.5762395 62.4551751,11.7649655 C62.217995,11.8707011 61.9397707,11.7642567 61.8339707,11.5270766 C61.7281707,11.2898321 61.8346795,11.0117366 62.0718596,10.9058722 C62.5934497,10.6732024 63.1493829,10.5326082 63.724324,10.4880846 L63.7247106,10.4880846 L63.7321849,10.4874403 C63.7678167,10.4847341 63.801,10.4826078 63.8424308,10.480417 L63.8560907,10.4795794 C63.8591836,10.4793861 63.8644671,10.4790639 63.8676244,10.4788706 C63.896104,10.4775175 63.9266456,10.4764866 63.9633727,10.4753268 L63.9830894,10.474618 C63.9857956,10.4744891 63.9923678,10.4742314 63.9950741,10.474167 C64.0812862,10.4720406 64.1656298,10.4720406 64.2484914,10.4742958 C64.2502312,10.4743603 64.256159,10.4745536 64.2578988,10.474618 L64.2792263,10.4754556 C64.3067394,10.4762288 64.3412758,10.4773886 64.3746525,10.4789995 C64.3770365,10.4791283 64.3793561,10.4792572 64.3817402,10.4793861 L64.4015857,10.4806103 C64.4399237,10.4826722 64.472656,10.4847341 64.5024887,10.4869892 L64.5147956,10.4879557 C64.5157621,10.4880202 64.5167286,10.4880846 64.5175018,10.488149 C65.6356183,10.5747478 66.666105,11.0196619 67.4976208,11.7748239 C67.4994249,11.7765636 67.5012935,11.7782388 67.5031621,11.7799785 C67.5039353,11.7806873 67.5082523,11.7846822 67.5090255,11.785391 C67.5423377,11.8158681 67.5670158,11.8388709 67.5893098,11.860134 C67.6484599,11.9165134 67.7069012,11.9748902 67.7630228,12.033847 C67.787572,12.059556 67.81283,12.0869403 67.8344153,12.1104585 L67.8422117,12.1188993 C67.8438226,12.1206391 67.8454334,12.1223788 67.8469798,12.1241185 C68.6028505,12.9558275 69.0481512,13.9867653 69.1346211,15.1055906 C69.1346211,15.1059772 69.1346856,15.1064282 69.1346856,15.1068793 L69.1353299,15.113387 C69.1379717,15.1483745 69.1399691,15.1805269 69.1423532,15.2238263 L69.1431264,15.2373573 C69.1433197,15.2403213 69.1436419,15.2452827 69.1437707,15.2482466 C69.1451883,15.2782082 69.1463481,15.3107472 69.1473146,15.3418042 C69.1474434,15.3442527 69.1475079,15.3467656 69.1475723,15.3492141 L69.1480233,15.3598456 C69.1480233,15.3622297 69.1481522,15.3646137 69.1482166,15.3670622 C69.1482811,15.3681576 69.1484099,15.3731189 69.1484744,15.3742787 C69.1495697,15.4177714 69.1500852,15.4606842 69.1500852,15.5015996 C69.1500852,15.5443835 69.1495053,15.5870385 69.1484744,15.6284049 C69.1484099,15.630789 69.1483455,15.6332374 69.1482166,15.6356859 L69.1475079,15.6552093 C69.1475079,15.656498 69.1474434,15.6577222 69.1474434,15.6590109 C69.1464125,15.6906478 69.1453171,15.7241533 69.1437707,15.75695 C69.1435774,15.7599784 69.1433841,15.7629423 69.1431908,15.7659707 L69.1419666,15.7862673 C69.1406135,15.8115897 69.1384872,15.8479947 69.1358454,15.8834976 L69.1344278,15.9011524 C69.0476358,17.0188823 68.6014974,18.0504644 67.8444025,18.8824956 L67.8177914,18.9109753 C67.8174048,18.9114263 67.8169538,18.9118774 67.8165027,18.9123284 L67.8025206,18.9275992 C67.7895051,18.9417101 67.776425,18.9558211 67.762894,18.9699965 C67.7067723,19.0288888 67.6482666,19.0873945 67.5890521,19.1439672 C67.5700442,19.1620087 67.5489744,19.1814676 67.5266159,19.2020219 C67.5257783,19.2027951 67.5218478,19.206339 67.5209458,19.2071766 L67.5078013,19.219419 C67.5066415,19.2205144 67.5012935,19.2254758 67.5001337,19.2265067 C67.2273862,19.4745761 66.9281565,19.6924262 66.6106921,19.8739356 C66.4677139,19.9556375 66.3906513,20.1137575 66.4143629,20.2766457 C66.4380745,20.4396628 66.5569545,20.5692387 66.7172653,20.606868 C67.7746209,20.8551307 68.7308157,21.2941813 69.5591098,21.9118419 C69.5678083,21.9182853 69.5764424,21.9241488 69.5853343,21.9297545 C69.5959658,21.9364556 69.6062752,21.9435433 69.6163268,21.951082 C70.621169,22.7025712 71.457775,23.6861503 72.0357445,24.7955038 C72.3321392,25.3645815 72.5620383,25.8467382 72.7200939,26.3504158 C72.8456106,26.7506129 72.9193227,27.1439157 72.9520549,27.5885076 C72.9616556,27.7188568 72.916552,27.8474019 72.8275048,27.9431502 C72.738522,28.038963 72.6137141,28.093345 72.4829138,28.093345 Z" id="Fill-1" stroke="#CCCCCC" stroke-width="0.6" fill="#CCCCCC" sketch:type="MSShapeGroup"></path>
        </g>
    </g>
</svg>