<?xml version="1.0" encoding="UTF-8" standalone="no"?>
<svg width="40px" height="40px" viewBox="0 0 40 40" version="1.1" xmlns="http://www.w3.org/2000/svg" xmlns:xlink="http://www.w3.org/1999/xlink" xmlns:sketch="http://www.bohemiancoding.com/sketch/ns">
    <!-- Generator: Sketch 3.3.3 (12072) - http://www.bohemiancoding.com/sketch -->
    <title>map_legend_people</title>
    <desc>Created with Sketch.</desc>
    <defs></defs>
    <g id="Page-1" stroke="none" stroke-width="1" fill="none" fill-rule="evenodd" sketch:type="MSPage">
        <g id="Artboard-4" sketch:type="MSArtboardGroup" transform="translate(-80.000000, -40.000000)">
            <g id="Path-+-Path-Copy-7" sketch:type="MSLayerGroup" transform="translate(87.000000, 47.000000)">
                <path d="M13.3238101,0 C13.2554673,0 13.1872528,0.000898825915 13.1191667,0.00260017497 C13.1044324,0.00298538607 13.0897623,0.00378790921 13.075028,0.00420522124 C13.021291,0.00584236844 12.9676183,0.00764002027 12.9140739,0.0103043971 C12.9023571,0.0109143147 12.8906724,0.0118131406 12.8789234,0.0124551591 C12.8220406,0.015536848 12.7650935,0.0190037479 12.7084033,0.023273171 C12.7028819,0.023690483 12.6974248,0.0242361988 12.6918713,0.0246856117 C10.8503054,0.16718162 9.13377264,0.931023143 7.78774873,2.21515647 C7.75783067,2.24369419 7.72842622,2.27284183 7.69889337,2.30186107 C7.68232929,2.31813624 7.66547631,2.33405829 7.64904063,2.35049397 C7.63286177,2.36667283 7.61716441,2.38326901 7.60111395,2.39957628 C7.57183791,2.42933384 7.54246556,2.4589951 7.51360683,2.48920207 C6.2292488,3.83545068 5.46540728,5.55224028 5.32310387,7.39415929 C5.32268656,7.39935964 5.32217295,7.40449578 5.32175563,7.40966403 C5.31745411,7.46667528 5.31398721,7.52387913 5.31090552,7.58114718 C5.3102635,7.59257511 5.30939678,7.60393883 5.30881896,7.61536676 C5.30612248,7.66916791 5.30429273,7.72316167 5.30265558,7.77715543 C5.30220617,7.79163295 5.30143575,7.80601416 5.30108264,7.82049168 C5.29938129,7.88857774 5.29848246,7.95679221 5.29848246,8.02513508 L5.29848246,8.0259055 C5.29848246,8.09399156 5.29938129,8.16191712 5.30105054,8.22971428 C5.30143575,8.24473751 5.30223827,8.25969654 5.30268768,8.27468767 C5.30432483,8.32813571 5.30612248,8.38151955 5.30875476,8.43477499 C5.30936468,8.44681284 5.3102956,8.45872228 5.31093762,8.47076013 C5.31401931,8.52741826 5.31745411,8.58398009 5.32169143,8.64041352 C5.32214085,8.64622378 5.32271866,8.65200195 5.32316808,8.65781222 C5.46091315,10.4354652 6.17763051,12.0964313 7.38237825,13.4201771 C7.39094919,13.4295827 7.39974485,13.4387315 7.40834789,13.4480728 C7.44269588,13.4855025 7.47714018,13.5228038 7.51222649,13.5596877 C7.60223748,13.6541608 7.69455975,13.7464509 7.78903277,13.8365261 C7.82588463,13.8717087 7.86328221,13.9061209 7.90071189,13.9404368 C7.91005326,13.9490399 7.91920202,13.9578034 7.92857549,13.9663744 C8.44161249,14.4332823 9.00543314,14.8265829 9.60694028,15.1415893 C8.9416807,15.3007777 8.2894862,15.5151477 7.65356686,15.7841535 C6.16125904,16.4152898 4.8210775,17.3188345 3.67041982,18.469428 C2.56463924,19.5752086 1.68783456,20.8564207 1.06090349,22.2790695 C0.923094214,22.5743339 0.797996908,22.8745096 0.685804173,23.1787301 C0.230516746,24.3275259 0,25.2070592 0,26.6170602 C0,26.954794 0.27366039,27.2284223 0.611297925,27.2284223 L0.704390609,27.2284223 L0.704390609,27.2329165 L26.3747945,27.2329165 C26.7239884,27.2289681 27.0038443,26.9427562 26.9999601,26.593466 C26.9994464,26.5401143 26.998355,26.487533 26.9971352,26.4351443 L26.9973278,26.4349196 C26.9972636,26.434438 26.9971994,26.4339886 26.9971352,26.4335071 C26.9511024,24.4705997 26.4696849,23.2619036 25.5496723,21.4959996 C24.6489204,19.7670116 23.3436325,18.2364395 21.7750529,17.0699561 C21.7563381,17.0560243 21.7370133,17.0435049 21.7173354,17.0319165 C20.5004536,16.1245838 19.0398936,15.4101456 17.29768,15.0011798 C17.803077,14.7122073 18.2795189,14.3663198 18.7187559,13.9665991 C18.7301196,13.9562305 18.7412586,13.945573 18.7526545,13.9351723 C18.7880297,13.9025898 18.8233407,13.8701358 18.8582344,13.8368792 C18.9529321,13.7466114 19.045447,13.6541287 19.1357148,13.5593667 C19.1658897,13.5277152 19.1953583,13.4955501 19.2249554,13.4634813 C19.238502,13.4488433 19.2522733,13.4344941 19.2656594,13.4197598 C20.4699577,12.0962387 21.1864824,10.435722 21.3243559,8.65855054 C21.3248374,8.65251557 21.3254152,8.64651269 21.3258968,8.64047772 C21.3301662,8.58414059 21.3335368,8.52764297 21.3366827,8.47108113 C21.3373568,8.45901119 21.3382556,8.44700544 21.3388334,8.43493549 C21.3414978,8.38168006 21.3432955,8.32829622 21.3448684,8.27484818 C21.345382,8.25982494 21.3461203,8.24489801 21.3465377,8.22987478 C21.348239,8.16207763 21.3490736,8.09411997 21.3491378,8.026066 L21.3491378,8.02529558 C21.3491378,7.95695271 21.348239,7.88873824 21.3465377,7.82065218 C21.3461845,7.80617466 21.3454141,7.79182555 21.3449326,7.77738013 C21.3432955,7.72335428 21.3415299,7.66936052 21.3388334,7.61552727 C21.3382235,7.60406724 21.3373568,7.59270351 21.3367469,7.58127558 C21.3336331,7.52403963 21.3302304,7.46689998 21.3258968,7.40992084 C21.3254794,7.40455999 21.3249658,7.39926333 21.3245164,7.39393458 C21.1870282,5.61567171 20.4700861,3.9540636 19.2648568,2.62993253 C19.2597849,2.62437907 19.2545845,2.61895401 19.2494805,2.61336845 C19.2116977,2.57211876 19.1737544,2.53102957 19.1350407,2.490454 C19.0452544,2.39620569 18.9532211,2.30417233 18.8589727,2.21438604 C18.8168884,2.17425989 18.7742584,2.13483995 18.7315,2.09570892 C18.7274873,2.09204942 18.7235389,2.08826151 18.7195263,2.0845699 C17.3955236,0.879340653 15.7340118,0.162398582 13.9558453,0.0247819145 C13.9503239,0.0243325015 13.9448668,0.0237867858 13.9393454,0.0233694738 C13.8826231,0.0191000507 13.8257402,0.0156331507 13.7688253,0.0125514619 C13.7571084,0.0119094434 13.7454237,0.0110106175 13.7336748,0.0104006999 C13.6801304,0.00773632305 13.6264577,0.0059065703 13.5727207,0.00430152402 C13.5579864,0.00385211106 13.5433163,0.00304958792 13.5285498,0.00269647774 C13.4603996,0.000898825915 13.3921851,0 13.3238101,0 L13.3238101,0 L13.3238101,0 Z" id="Path" fill="#FFFFFF" sketch:type="MSShapeGroup"></path>
                <path d="M13.3238101,0 C13.2554673,0 13.1872528,0.000898825915 13.1191667,0.00260017497 C13.1044324,0.00298538607 13.0897623,0.00378790921 13.075028,0.00420522124 C13.021291,0.00584236844 12.9676183,0.00764002027 12.9140739,0.0103043971 C12.9023571,0.0109143147 12.8906724,0.0118131406 12.8789234,0.0124551591 C12.8220406,0.015536848 12.7650935,0.0190037479 12.7084033,0.023273171 C12.7028819,0.023690483 12.6974248,0.0242361988 12.6918713,0.0246856117 C10.8503054,0.16718162 9.13377264,0.931023143 7.78774873,2.21515647 C7.75783067,2.24369419 7.72842622,2.27284183 7.69889337,2.30186107 C7.68232929,2.31813624 7.66547631,2.33405829 7.64904063,2.35049397 C7.63286177,2.36667283 7.61716441,2.38326901 7.60111395,2.39957628 C7.57183791,2.42933384 7.54246556,2.4589951 7.51360683,2.48920207 C6.2292488,3.83545068 5.46540728,5.55224028 5.32310387,7.39415929 C5.32268656,7.39935964 5.32217295,7.40449578 5.32175563,7.40966403 C5.31745411,7.46667528 5.31398721,7.52387913 5.31090552,7.58114718 C5.3102635,7.59257511 5.30939678,7.60393883 5.30881896,7.61536676 C5.30612248,7.66916791 5.30429273,7.72316167 5.30265558,7.77715543 C5.30220617,7.79163295 5.30143575,7.80601416 5.30108264,7.82049168 C5.29938129,7.88857774 5.29848246,7.95679221 5.29848246,8.02513508 L5.29848246,8.0259055 C5.29848246,8.09399156 5.29938129,8.16191712 5.30105054,8.22971428 C5.30143575,8.24473751 5.30223827,8.25969654 5.30268768,8.27468767 C5.30432483,8.32813571 5.30612248,8.38151955 5.30875476,8.43477499 C5.30936468,8.44681284 5.3102956,8.45872228 5.31093762,8.47076013 C5.31401931,8.52741826 5.31745411,8.58398009 5.32169143,8.64041352 C5.32214085,8.64622378 5.32271866,8.65200195 5.32316808,8.65781222 C5.46091315,10.4354652 6.17763051,12.0964313 7.38237825,13.4201771 C7.39094919,13.4295827 7.39974485,13.4387315 7.40834789,13.4480728 C7.44269588,13.4855025 7.47714018,13.5228038 7.51222649,13.5596877 C7.60223748,13.6541608 7.69455975,13.7464509 7.78903277,13.8365261 C7.82588463,13.8717087 7.86328221,13.9061209 7.90071189,13.9404368 C7.91005326,13.9490399 7.91920202,13.9578034 7.92857549,13.9663744 C8.44161249,14.4332823 9.00543314,14.8265829 9.60694028,15.1415893 C8.9416807,15.3007777 8.2894862,15.5151477 7.65356686,15.7841535 C6.16125904,16.4152898 4.8210775,17.3188345 3.67041982,18.469428 C2.56463924,19.5752086 1.68783456,20.8564207 1.06090349,22.2790695 C0.923094214,22.5743339 0.797996908,22.8745096 0.685804173,23.1787301 C0.230516746,24.3275259 0,25.2070592 0,26.6170602 C0,26.954794 0.27366039,27.2284223 0.611297925,27.2284223 L0.704390609,27.2284223 L0.704390609,27.2329165 L26.3747945,27.2329165 C26.7239884,27.2289681 27.0038443,26.9427562 26.9999601,26.593466 C26.9994464,26.5401143 26.998355,26.487533 26.9971352,26.4351443 L26.9973278,26.4349196 C26.9972636,26.434438 26.9971994,26.4339886 26.9971352,26.4335071 C26.9511024,24.4705997 26.4696849,23.2619036 25.5496723,21.4959996 C24.6489204,19.7670116 23.3436325,18.2364395 21.7750529,17.0699561 C21.7563381,17.0560243 21.7370133,17.0435049 21.7173354,17.0319165 C20.5004536,16.1245838 19.0398936,15.4101456 17.29768,15.0011798 C17.803077,14.7122073 18.2795189,14.3663198 18.7187559,13.9665991 C18.7301196,13.9562305 18.7412586,13.945573 18.7526545,13.9351723 C18.7880297,13.9025898 18.8233407,13.8701358 18.8582344,13.8368792 C18.9529321,13.7466114 19.045447,13.6541287 19.1357148,13.5593667 C19.1658897,13.5277152 19.1953583,13.4955501 19.2249554,13.4634813 C19.238502,13.4488433 19.2522733,13.4344941 19.2656594,13.4197598 C20.4699577,12.0962387 21.1864824,10.435722 21.3243559,8.65855054 C21.3248374,8.65251557 21.3254152,8.64651269 21.3258968,8.64047772 C21.3301662,8.58414059 21.3335368,8.52764297 21.3366827,8.47108113 C21.3373568,8.45901119 21.3382556,8.44700544 21.3388334,8.43493549 C21.3414978,8.38168006 21.3432955,8.32829622 21.3448684,8.27484818 C21.345382,8.25982494 21.3461203,8.24489801 21.3465377,8.22987478 C21.348239,8.16207763 21.3490736,8.09411997 21.3491378,8.026066 L21.3491378,8.02529558 C21.3491378,7.95695271 21.348239,7.88873824 21.3465377,7.82065218 C21.3461845,7.80617466 21.3454141,7.79182555 21.3449326,7.77738013 C21.3432955,7.72335428 21.3415299,7.66936052 21.3388334,7.61552727 C21.3382235,7.60406724 21.3373568,7.59270351 21.3367469,7.58127558 C21.3336331,7.52403963 21.3302304,7.46689998 21.3258968,7.40992084 C21.3254794,7.40455999 21.3249658,7.39926333 21.3245164,7.39393458 C21.1870282,5.61567171 20.4700861,3.9540636 19.2648568,2.62993253 C19.2597849,2.62437907 19.2545845,2.61895401 19.2494805,2.61336845 C19.2116977,2.57211876 19.1737544,2.53102957 19.1350407,2.490454 C19.0452544,2.39620569 18.9532211,2.30417233 18.8589727,2.21438604 C18.8168884,2.17425989 18.7742584,2.13483995 18.7315,2.09570892 C18.7274873,2.09204942 18.7235389,2.08826151 18.7195263,2.0845699 C17.3955236,0.879340653 15.7340118,0.162398582 13.9558453,0.0247819145 C13.9503239,0.0243325015 13.9448668,0.0237867858 13.9393454,0.0233694738 C13.8826231,0.0191000507 13.8257402,0.0156331507 13.7688253,0.0125514619 C13.7571084,0.0119094434 13.7454237,0.0110106175 13.7336748,0.0104006999 C13.6801304,0.00773632305 13.6264577,0.0059065703 13.5727207,0.00430152402 C13.5579864,0.00385211106 13.5433163,0.00304958792 13.5285498,0.00269647774 C13.4603996,0.000898825915 13.3921851,0 13.3238101,0 L13.3238101,0 L13.3238101,0 Z M13.3238101,1.28403702 C13.3806609,1.28403702 13.4379289,1.28477534 13.4941056,1.28628409 L13.500301,1.28650879 C13.5111832,1.28695821 13.5220655,1.28740762 13.5344885,1.28779283 C13.5741332,1.28898056 13.6204227,1.29045721 13.6651072,1.29264007 L13.6687346,1.29286478 C13.6786538,1.29350679 13.6886051,1.29414881 13.6991342,1.29472663 C13.7526785,1.29761571 13.7965605,1.30037639 13.8366224,1.30332968 C13.8425932,1.30387539 13.8485319,1.30435691 13.8545026,1.30483842 C13.8552089,1.30487052 13.8559472,1.30493472 13.8566213,1.30499893 C15.3547715,1.42094747 16.7352718,2.01706166 17.8493665,3.02894703 C17.8546311,3.03389057 17.8598635,3.03873781 17.8646145,3.04300723 C17.90962,3.08419272 17.9429086,3.11523432 17.9730193,3.14393254 C18.0521802,3.21933762 18.1302817,3.29747127 18.2058473,3.37676056 C18.2395533,3.41207158 18.2735161,3.44901974 18.3025353,3.48067125 C18.3079603,3.48660992 18.3134496,3.49248439 18.3189389,3.49832676 C19.3317873,4.6128709 19.9283509,5.99404532 20.0442352,7.49290173 C20.0443957,7.49485989 20.0445562,7.49681805 20.0447167,7.4987762 L20.0458082,7.51152027 C20.0487293,7.55033029 20.0514258,7.59357023 20.0545717,7.65186552 C20.0551174,7.66152789 20.0556952,7.67119027 20.0563373,7.68085265 L20.0565299,7.68387014 C20.0585843,7.72617916 20.0600931,7.77230819 20.0614092,7.81596545 C20.0614734,7.81718528 20.0615055,7.81840512 20.0615376,7.81962495 C20.0618586,7.82931943 20.0622117,7.83901391 20.0626611,7.84870839 L20.0628858,7.85439025 C20.0643304,7.91265343 20.0650366,7.97014619 20.0650366,8.02487827 C20.0649724,8.08227472 20.0642983,8.13944647 20.0629179,8.19488477 L20.0625327,8.20406564 C20.0621475,8.21340701 20.0618265,8.22271627 20.0615055,8.23205764 C20.0614413,8.23353429 20.0614092,8.23497883 20.061345,8.23645547 C20.0600931,8.2792139 20.0585843,8.32463671 20.0564336,8.36903229 L20.0561447,8.37314121 C20.0555668,8.38235418 20.0550211,8.39159924 20.0545075,8.40004179 C20.0522283,8.44174089 20.0494035,8.49047009 20.0458403,8.53797946 C20.0452624,8.54459225 20.0447167,8.55126925 20.0440747,8.55923028 C19.9277088,10.0589534 19.330118,11.4408983 18.3153757,12.5560844 C18.3118125,12.5600007 18.3081209,12.5638207 18.3045255,12.5677049 C18.2971423,12.5755697 18.2897912,12.5834344 18.2824401,12.5913312 C18.2819907,12.5917806 18.2815734,12.5922301 18.2811561,12.5927116 L18.2672885,12.6077348 C18.2470649,12.6296597 18.2269376,12.6516168 18.2059115,12.6736701 C18.1305706,12.7527347 18.0519234,12.8314141 17.9720884,12.9075574 C17.9472101,12.93128 17.9188008,12.9574423 17.8887223,12.9851133 L17.8842281,12.9892222 C17.8757535,12.9970227 17.867343,13.0048554 17.8589326,13.012688 L17.8527692,13.018434 C17.4868829,13.3512243 17.0856855,13.6432465 16.660284,13.8865073 C16.2022038,14.1483866 15.950982,14.6638312 16.0269328,15.1859527 C16.1028836,15.7080743 16.4905022,16.130683 17.0041492,16.251254 C18.474211,16.596339 19.8016806,17.2053578 20.949706,18.0613289 C20.9768634,18.0815846 21.0047912,18.1007168 21.0334252,18.1187575 C22.4362999,19.1678799 23.6038426,20.5402908 24.4107957,22.0892568 C24.832024,22.8978149 25.157399,23.5790286 25.37591,24.2753619 C25.5439263,24.8108053 25.6441775,25.3421399 25.6888941,25.9488794 L1.30663607,25.9488794 C1.36916868,25.0866165 1.56119641,24.4550629 1.87954129,23.6518014 C1.8833292,23.6422353 1.8869887,23.6326372 1.89055191,23.6230069 C1.99016108,23.3529097 2.10251432,23.0834224 2.22449784,22.8220888 C2.22841415,22.8137105 2.23220206,22.8053321 2.23592577,22.7968575 C2.7990081,21.5191443 3.58711792,20.3686472 4.5783624,19.3774348 C5.61159489,18.3442344 6.81451287,17.5332045 8.15382769,16.9667195 C8.72127575,16.7266688 9.31071294,16.5327792 9.9057357,16.3904116 C10.4263485,16.2658279 10.8150265,15.8313418 10.8811223,15.3001678 C10.9472181,14.7689296 10.676832,14.2524899 10.2026372,14.0041251 C9.69589195,13.7387146 9.2224354,13.4073368 8.79542889,13.0191403 L8.79164098,13.0155771 C8.78438617,13.0088038 8.77713136,13.0020305 8.76984445,12.9952893 C8.76942714,12.9949041 8.76900982,12.9945189 8.76859251,12.9941336 C8.73578537,12.964023 8.70397335,12.934779 8.67495411,12.9070759 C8.59534382,12.8311893 8.51695336,12.7527989 8.4419977,12.6741195 C8.41570704,12.6465127 8.38790764,12.6164342 8.35349544,12.5789403 C8.34665795,12.571525 8.33978835,12.5641417 8.33285455,12.5567906 L8.33012597,12.5538373 C7.31660345,11.4393253 6.71952623,10.0578941 6.60325668,8.55736842 C6.60277517,8.55133345 6.60226155,8.54533058 6.60168374,8.53849308 C6.59869835,8.49811011 6.59596977,8.45432445 6.59311279,8.40167893 C6.59253497,8.39108563 6.59189295,8.38052442 6.59118673,8.36999532 L6.59099413,8.36713834 C6.58893967,8.3242836 6.58743093,8.27847558 6.58611479,8.23523563 L6.58611479,8.23523563 C6.58579378,8.22396821 6.58534437,8.21270079 6.58489495,8.20140126 L6.58463815,8.19472427 C6.58325781,8.1368784 6.58255159,8.08009186 6.58255159,8.02513508 C6.58255159,7.96963258 6.58325781,7.91252503 6.58470235,7.85496807 L6.58495915,7.84874049 C6.58540857,7.83779408 6.58582588,7.82681556 6.58614689,7.81622225 C6.58749513,7.7726613 6.58900387,7.72637176 6.59115463,7.68284291 L6.59137934,7.67940811 C6.59195716,7.67067666 6.59250287,7.66194521 6.59298439,7.65318165 C6.59304859,7.65205812 6.59311279,7.65096669 6.59317699,7.64984316 C6.59596977,7.59767915 6.59879465,7.55257735 6.60178004,7.51222649 L6.60299987,7.49829469 C6.60312828,7.49652914 6.60328878,7.49479569 6.60341719,7.49303014 C6.6629323,6.72238322 6.85117213,5.97744914 7.16280792,5.2789651 C7.47524622,4.57868341 7.90588014,3.93826995 8.44244711,3.37586173 C8.46212498,3.35525294 8.48215595,3.33499725 8.50215483,3.31467737 L8.51618294,3.30045666 C8.5253959,3.29108319 8.53454466,3.28167762 8.54366133,3.27227204 C8.54818756,3.26758531 8.55268169,3.26289857 8.55740052,3.25817974 C8.56192675,3.25368561 8.56651719,3.24928778 8.57110762,3.24485785 C8.58051319,3.23574119 8.58995086,3.22662453 8.59887492,3.21782888 L8.61691564,3.20010916 C8.63598359,3.18136222 8.65501944,3.16255108 8.67421579,3.14422145 C9.23688081,2.60742978 9.87723008,2.17682796 10.5773834,1.86438965 C11.2757711,1.55275387 12.0205768,1.36451404 12.7910953,1.30490262 C12.7926361,1.30477422 12.7942091,1.30464582 12.7957178,1.30451741 L12.8087187,1.30339388 C12.8492622,1.30037639 12.893754,1.29755151 12.9492886,1.29456612 C12.9594646,1.29402041 12.9696406,1.29337839 12.9798166,1.29270427 L12.9829304,1.29251167 C13.0214515,1.29064981 13.0627975,1.28923737 13.1124577,1.28772863 C13.1247523,1.28737552 13.1369828,1.286894 13.1492132,1.28638039 L13.154863,1.28615568 C13.2117137,1.28474324 13.2685966,1.28403702 13.3238101,1.28403702 L13.3238101,1.28403702 L13.3238101,1.28403702 Z" id="Path-Copy-7" stroke="#15C19C" stroke-width="0.6" fill="#15C19C" sketch:type="MSShapeGroup"></path>
            </g>
        </g>
    </g>
</svg>