<?xml version="1.0" encoding="UTF-8" standalone="no"?>
<svg width="40px" height="40px" viewBox="0 0 40 40" version="1.1" xmlns="http://www.w3.org/2000/svg" xmlns:xlink="http://www.w3.org/1999/xlink" xmlns:sketch="http://www.bohemiancoding.com/sketch/ns">
    <!-- Generator: Sketch 3.3.3 (12072) - http://www.bohemiancoding.com/sketch -->
    <title>map_objlist_socialnet_active</title>
    <desc>Created with Sketch.</desc>
    <defs></defs>
    <g id="Page-1" stroke="none" stroke-width="1" fill="none" fill-rule="evenodd" sketch:type="MSPage">
        <g id="Artboard-7-Copy" sketch:type="MSArtboardGroup" transform="translate(-40.000000, -80.000000)">
            <rect id="Rectangle-336-Copy-32" fill="#C6EFDC" sketch:type="MSShapeGroup" x="40" y="80" width="40" height="40"></rect>
            <path d="M56.7850817,90 C56.7348879,90 56.6847586,90.0006443 56.6347581,90.0018686 C56.6239332,90.0021907 56.6131728,90.0027706 56.602348,90.0030284 C56.5628502,90.0042526 56.5234812,90.0056057 56.4841123,90.0075387 C56.4755426,90.0079898 56.4669729,90.0086341 56.4583388,90.0091496 C56.4165214,90.0114047 56.374704,90.0139177 56.3330799,90.0170749 C56.3290206,90.0173971 56.3250257,90.0177837 56.3209664,90.0181058 C54.9685049,90.122746 53.7078612,90.6837051 52.7193207,91.6268198 C52.6973489,91.6477608 52.6757636,91.6691527 52.6541139,91.6904803 C52.641936,91.7024005 52.6295647,91.7141274 52.6174512,91.7261765 C52.6055954,91.7380967 52.5940618,91.7502746 52.5822704,91.7622593 C52.5607496,91.7841023 52.5392288,91.8058809 52.5180301,91.828046 C51.5747865,92.8167798 51.0138275,94.0775523 50.9093161,95.4302716 C50.908994,95.4340731 50.9086074,95.4378747 50.9082852,95.4416763 C50.9051279,95.4835582 50.902615,95.5255689 50.9003599,95.567644 C50.8998444,95.5760204 50.8992001,95.5843323 50.8988135,95.5927087 C50.896816,95.6322709 50.8954629,95.6718976 50.8943031,95.7115887 C50.8939165,95.7222203 50.893401,95.7327874 50.8931433,95.7434189 C50.8918546,95.7934194 50.8912103,95.8434843 50.8912103,95.8936781 L50.8912103,95.894258 C50.8912103,95.9442585 50.8918546,95.9941301 50.8930789,96.0439373 C50.893401,96.0549554 50.8939809,96.0659736 50.8943031,96.0769273 C50.8955273,96.1162318 50.896816,96.1554074 50.898749,96.1945186 C50.8992001,96.203346 50.8998444,96.212109 50.9003599,96.2209364 C50.902615,96.2625605 50.9051279,96.3041202 50.9082208,96.345551 C50.9086074,96.3498036 50.908994,96.3540563 50.9093161,96.3583089 C51.0104769,97.6638627 51.5368351,98.8836554 52.4216375,99.8558298 C52.4279519,99.8627242 52.4343953,99.8694253 52.4407098,99.8763197 C52.4659033,99.9038328 52.4912258,99.9312171 52.5169992,99.9582792 C52.5831081,100.027674 52.6508922,100.095458 52.7202872,100.161567 C52.7473494,100.187405 52.7747981,100.212728 52.8023112,100.237921 C52.8091412,100.244236 52.8159067,100.250679 52.8227367,100.256993 C53.1995445,100.599845 53.6135948,100.888701 54.0553517,101.120017 C53.566816,101.236964 53.0878166,101.394376 52.6208017,101.591929 C51.5248504,102.055464 50.540627,102.719002 49.6955157,103.564049 C48.8834589,104.376105 48.2395094,105.317029 47.7791312,106.361821 C47.677906,106.578704 47.5860237,106.799131 47.5036131,107.022587 C47.1692671,107.866281 47,108.512163 47,109.547676 C47,109.795745 47.2009684,109.996649 47.448909,109.996649 L47.517273,109.996649 L47.517273,110 L66.3697748,110 C66.6262206,109.9971 66.8317638,109.786854 66.8288643,109.530343 C66.8285422,109.491168 66.8277045,109.452572 66.8268024,109.414105 L66.8269313,109.413912 C66.8269313,109.41359 66.8268669,109.413268 66.8268024,109.412881 C66.7930392,107.971308 66.4394276,107.08367 65.7637767,105.786751 C65.1023012,104.516957 64.143658,103.392913 62.9917138,102.536268 C62.977925,102.526023 62.9637496,102.516809 62.9493165,102.508304 C62.0556223,101.841931 60.982996,101.317249 59.7034733,101.016923 C60.0746753,100.804679 60.4245499,100.550682 60.7471045,100.257122 C60.7554809,100.249519 60.763664,100.241658 60.7720403,100.234055 C60.7980071,100.210086 60.8239094,100.18631 60.849554,100.161889 C60.9190778,100.095587 60.9870553,100.027674 61.0533575,99.9580215 C61.0755226,99.9348254 61.0971723,99.9111783 61.1188865,99.88766 C61.1288092,99.8768996 61.1389253,99.8663325 61.1487837,99.8555076 C62.0331994,98.8835266 62.5594287,97.664056 62.6607184,96.3588888 C62.6610405,96.3544429 62.6614916,96.3499969 62.6618137,96.3456155 C62.664971,96.3042491 62.6674195,96.2626894 62.6697391,96.2211941 C62.6702545,96.2123023 62.6708989,96.2034749 62.6713499,96.1946475 C62.6732829,96.1555363 62.674636,96.1162962 62.6757314,96.0770562 C62.676118,96.066038 62.6766979,96.0550843 62.6770201,96.0440661 C62.6782443,95.994259 62.6788242,95.9443229 62.6788886,95.8943869 L62.6788886,95.893807 C62.6788886,95.8436132 62.6782443,95.7934838 62.6770201,95.7434833 C62.6766979,95.7328518 62.6761824,95.7223491 62.6757958,95.7117176 C62.674636,95.6720265 62.6732829,95.6323998 62.6713499,95.5928376 C62.6708989,95.5844612 62.6702545,95.5760848 62.6698035,95.5677085 C62.6674839,95.5256977 62.6650354,95.483687 62.6618137,95.4418696 C62.6614916,95.4379392 62.6611694,95.4340087 62.6608472,95.4301427 C62.5598153,94.1241378 62.0333283,92.9038296 61.1482038,91.9313975 C61.1444666,91.9273382 61.140665,91.9233433 61.1369279,91.9192196 C61.109157,91.8889358 61.0812572,91.8587809 61.052842,91.8290125 C60.9869264,91.7597464 60.9193356,91.6921555 60.8501339,91.6262399 C60.8192057,91.5967938 60.787891,91.5677987 60.7565118,91.5390613 C60.7535479,91.5363551 60.7506484,91.5335844 60.7476844,91.5308782 C59.7753168,90.6457537 58.5551375,90.1192666 57.249197,90.0181703 C57.2451377,90.0178481 57.2411428,90.0174615 57.2370835,90.0171393 C57.1954594,90.0139821 57.1536419,90.0114692 57.111889,90.009214 C57.1032549,90.0086985 57.0946852,90.0080542 57.0860511,90.0076032 C57.0467466,90.0056702 57.0073132,90.0043171 56.9678798,90.0031572 C56.957055,90.0028351 56.9462302,90.0021907 56.9354053,90.001933 C56.8853404,90.0006443 56.8352755,90 56.7850817,90 L56.7850817,90 Z M56.7850817,90.9429859 C56.8268347,90.9429859 56.8688454,90.9435014 56.9100829,90.9446612 L56.9146577,90.9447901 C56.9226474,90.9451122 56.9306372,90.9454344 56.9397868,90.9457566 C56.9689108,90.9465942 57.0028673,90.9476896 57.0357284,90.9493004 L57.0383702,90.9494293 C57.0456512,90.9499447 57.0529322,90.9503958 57.0606642,90.9508468 C57.1000332,90.9529731 57.13225,90.9549706 57.1616962,90.9571613 C57.1660776,90.9575479 57.1703947,90.9579345 57.1747762,90.9582567 C57.1752916,90.9582567 57.1758715,90.9583211 57.1763226,90.9583856 C58.2765909,91.0435024 59.2904538,91.4813287 60.1086318,92.2244416 C60.1124979,92.2281143 60.1163639,92.2316582 60.1198433,92.234751 C60.1528977,92.2650348 60.1773181,92.2878443 60.1994832,92.3089141 C60.2576024,92.3642625 60.3149483,92.4216729 60.3704256,92.4799209 C60.3951681,92.5058232 60.4201684,92.5329497 60.4414315,92.5562103 C60.4454263,92.5605918 60.4494857,92.5648444 60.4534805,92.5691614 C61.1973666,93.387726 61.6354507,94.40204 61.7205675,95.5028238 C61.7206964,95.5042413 61.7208253,95.5056589 61.7208897,95.5071409 L61.7217273,95.5164837 C61.7238536,95.5449634 61.7258511,95.5767292 61.7281707,95.6195775 C61.7285573,95.6266652 61.7290083,95.6337529 61.7294594,95.6408406 L61.7295882,95.6430313 C61.7311346,95.6740883 61.73223,95.7079804 61.7331965,95.7400684 C61.7331965,95.7409704 61.733261,95.7418725 61.733261,95.7427746 C61.7335187,95.7498623 61.7337764,95.7570144 61.7340986,95.7641021 L61.7342919,95.7682903 C61.7353228,95.8110742 61.7358383,95.8532782 61.7358383,95.8934848 C61.7357739,95.9356244 61.7353228,95.9776351 61.7342919,96.0183571 L61.7340342,96.0250582 C61.733712,96.0319526 61.7335187,96.0387826 61.733261,96.045677 C61.7331965,96.0467079 61.7331965,96.0478033 61.7331321,96.0488987 C61.73223,96.0802778 61.7311346,96.1136544 61.7295238,96.1462579 L61.7293305,96.1492218 C61.7288795,96.1560518 61.7284929,96.1628173 61.7281063,96.1690029 C61.726431,96.1996089 61.7243691,96.235434 61.7217273,96.2702926 C61.7213407,96.2751895 61.7208897,96.2800865 61.7204387,96.2859499 C61.6349997,97.3873137 61.1961424,98.4022075 60.4509032,99.2212231 C60.4482614,99.2241227 60.4455552,99.2268933 60.4429134,99.2297928 C60.437501,99.2355274 60.4320886,99.2413264 60.4266762,99.2471255 C60.426354,99.2474476 60.4260318,99.2477698 60.4257741,99.2481564 L60.4155936,99.2591745 C60.4007094,99.2752829 60.3859541,99.2913913 60.37049,99.3075642 C60.3151416,99.3656833 60.2574091,99.4234158 60.1987745,99.4793442 C60.1804753,99.4968057 60.1596633,99.5160069 60.1375625,99.5363035 L60.1342764,99.5393319 C60.1280264,99.5450665 60.1218407,99.5508011 60.1156551,99.5565357 L60.1111448,99.5607883 C59.8424566,99.805185 59.5478017,100.01962 59.2353631,100.198294 C58.8989552,100.390629 58.7144818,100.769176 58.7702169,101.152621 C58.8260164,101.536065 59.1106841,101.846442 59.4878784,101.934974 C60.567528,102.188391 61.5424086,102.635689 62.3855224,103.264303 C62.4054968,103.279188 62.4259867,103.293234 62.4470565,103.306507 C63.4772855,104.07694 64.3347681,105.084875 64.927364,106.222451 C65.2367742,106.816271 65.475694,107.316533 65.6361982,107.827943 C65.7595885,108.221181 65.8331717,108.611391 65.8660329,109.05695 L47.9595454,109.05695 C48.0054865,108.423696 48.1465317,107.959903 48.3802968,107.370013 C48.3830675,107.36299 48.3857737,107.355902 48.3884155,107.348815 C48.4615476,107.150488 48.5440871,106.952548 48.6336498,106.760665 C48.6365493,106.754479 48.63932,106.748358 48.6420262,106.742108 C49.0555611,105.803761 49.6343682,104.958843 50.3623392,104.230872 C51.1211739,103.472102 52.0045587,102.876478 52.9882022,102.46043 C53.4048944,102.284139 53.8378238,102.141741 54.2748126,102.037165 C54.6571616,101.94567 54.9426025,101.626594 54.991121,101.236513 C55.0396396,100.846368 54.8411196,100.467111 54.4928559,100.2847 C54.1206874,100.089788 53.7730036,99.8464225 53.4594052,99.5613037 L53.4565701,99.558662 C53.4512866,99.5537006 53.4459386,99.5487392 53.4405906,99.5437778 C53.4402684,99.5435201 53.4400107,99.5431979 53.4396885,99.5429402 C53.4155904,99.5208394 53.392201,99.4993186 53.3709379,99.479022 C53.3124321,99.423287 53.2548929,99.3656833 53.1998022,99.3079508 C53.1805365,99.2876542 53.1601111,99.2655535 53.1348531,99.2380403 C53.1298273,99.2325635 53.124737,99.227151 53.1196468,99.2217386 L53.1176493,99.2196123 C52.3733122,98.4011121 51.9348415,97.3865405 51.849467,96.2845324 C51.8490804,96.2800865 51.8486938,96.275705 51.8483072,96.2706792 C51.8461164,96.2410397 51.844119,96.2088873 51.8419927,96.1702272 C51.8415416,96.1624307 51.8410906,96.1546987 51.8405751,96.1469666 L51.8404463,96.1448403 C51.8388999,96.1133967 51.8378045,96.0797624 51.836838,96.0479966 C51.8366447,96.0396847 51.8362581,96.0314372 51.8359359,96.0231252 L51.8357426,96.0182283 C51.8347761,95.9757665 51.8342606,95.9340135 51.8342606,95.8936781 C51.8342606,95.8528916 51.8347761,95.8109453 51.835807,95.7686769 L51.8360003,95.7641665 C51.8363225,95.7561123 51.8366447,95.7480581 51.8369024,95.7402617 C51.8378689,95.7082382 51.8389643,95.6742816 51.8405751,95.6423226 L51.840704,95.6397452 C51.841155,95.6333663 51.8415416,95.6269229 51.8418638,95.620544 C51.8419282,95.6197064 51.8419927,95.6188687 51.8420571,95.6180311 C51.844119,95.5797575 51.8461809,95.5466387 51.8483716,95.5169992 L51.8492737,95.5067543 C51.8493381,95.5054656 51.849467,95.5041769 51.8495314,95.5028882 C51.8932818,94.9369034 52.0314919,94.389862 52.2603601,93.8768416 C52.4898082,93.3625969 52.8061128,92.892296 53.2001244,92.4792121 C53.2146219,92.4640702 53.2293128,92.449186 53.2440036,92.4343019 L53.254313,92.4238636 C53.2610786,92.4169692 53.2677796,92.4100748 53.2744807,92.403116 C53.2778313,92.399701 53.2811174,92.396286 53.2845968,92.3928066 C53.2878829,92.3895205 53.2912979,92.3862988 53.2946485,92.3830127 C53.3015429,92.3763116 53.3085017,92.3696105 53.3150095,92.3631672 L53.3282828,92.3501516 C53.3422649,92.3363628 53.356247,92.322574 53.370358,92.3091074 C53.7835707,91.9149025 54.2538717,91.5986624 54.7680519,91.3692143 C55.2809434,91.1403461 55.8279204,91.0020715 56.3938408,90.9583211 C56.3949362,90.9581923 56.396096,90.9581278 56.3971913,90.9579989 L56.4067919,90.9571613 C56.4365603,90.9549706 56.4692281,90.9529087 56.5100146,90.950718 C56.5174889,90.9503313 56.5249632,90.9498159 56.5324375,90.9493648 L56.5346927,90.949236 C56.562979,90.9478184 56.5933917,90.9467875 56.6298611,90.9456921 C56.6388818,90.9454344 56.6478381,90.9450478 56.6567944,90.9447256 L56.6609825,90.9445323 C56.7027355,90.9435014 56.7444885,90.9429859 56.7850817,90.9429859 Z M72.4829138,108.093345 L67.8300338,108.093345 C67.5703019,108.093345 67.3597329,107.882776 67.3597329,107.62298 C67.3597329,107.363248 67.5703019,107.152679 67.8300338,107.152679 L71.9509499,107.152679 C71.918862,106.975486 71.8765291,106.804157 71.8224693,106.632055 C71.6850968,106.194229 71.47485,105.754985 71.2014581,105.230173 C70.6908862,104.250138 69.9527347,103.380477 69.0661282,102.714363 C69.0424811,102.698899 69.019285,102.682726 68.9966043,102.66578 C68.2724994,102.125955 67.4332516,101.741286 66.5022503,101.522727 C65.9630699,101.396115 65.5631304,100.960157 65.4834261,100.412085 C65.4036573,99.8640129 65.6628737,99.3321778 66.1437417,99.057304 C66.4006385,98.910331 66.6431667,98.7339762 66.8644317,98.5330722 C66.8659137,98.5317191 66.8674601,98.5302371 66.8677822,98.5299149 L66.8858881,98.5131622 C66.8868546,98.5122601 66.8909139,98.5085874 66.8919448,98.5076853 C66.9076022,98.4931878 66.9249993,98.4772727 66.9401412,98.4628395 C66.9881442,98.4170272 67.0360184,98.3690886 67.0819596,98.3208923 C67.0919468,98.310454 67.1014185,98.3001447 67.1108902,98.2898353 L67.127643,98.2717294 C67.1286095,98.2706985 67.129576,98.2696031 67.1306069,98.2685077 L67.144589,98.2534947 C67.14562,98.2523993 67.1490994,98.2487266 67.1501948,98.2476313 C67.7636672,97.5733979 68.1260418,96.7356321 68.1965966,95.8265383 L68.1980142,95.8090123 C68.1998183,95.7849142 68.201558,95.7554036 68.2028467,95.7301456 L68.2042642,95.7081737 C68.2054885,95.6827224 68.2062617,95.6568846 68.2070349,95.6323998 C68.2070993,95.6292426 68.2072282,95.6261497 68.207357,95.6229925 L68.2080658,95.604049 C68.2080658,95.6039846 68.2080658,95.6026959 68.2081302,95.6012784 C68.2089034,95.568675 68.2093545,95.5352339 68.2093545,95.5015996 C68.2093545,95.4684163 68.2089679,95.4335577 68.2080658,95.3983125 L68.2075503,95.3854258 L68.2075503,95.3849103 C68.207357,95.3814309 68.2072282,95.377887 68.2070993,95.3743432 C68.2063261,95.3485053 68.2054885,95.3211854 68.2042642,95.2959919 L68.20304,95.2764041 C68.2010425,95.2392903 68.1994317,95.212937 68.1976276,95.1892898 L68.1974343,95.1868414 C68.197241,95.1843929 68.1969832,95.1813001 68.1967255,95.1780784 C68.1264928,94.2700799 67.7650203,93.4330873 67.1515479,92.7576297 L67.1393055,92.7443564 C67.1235837,92.7272171 67.102836,92.7046653 67.0822817,92.6831445 C67.0361473,92.634626 66.9885308,92.587074 66.9404633,92.5412617 C66.9221642,92.5238646 66.9018032,92.5048567 66.8742256,92.4796631 L66.8647538,92.4709002 C66.1894896,91.8576855 65.3526903,91.4964062 64.4448851,91.4261091 L64.4273592,91.4246916 C64.4084801,91.4233385 64.381869,91.4216632 64.3493945,91.4199235 L64.325554,91.4184415 C64.3015847,91.4172817 64.2735561,91.4163797 64.2495224,91.4156709 L64.2201407,91.4145755 C64.1604751,91.4130291 64.0894693,91.4128358 64.0203965,91.4145755 L63.9903704,91.4156709 C63.9627284,91.4165085 63.9379214,91.4173462 63.9147898,91.4184415 L63.8933334,91.4197302 C63.8590547,91.4215988 63.8321214,91.4233385 63.8074434,91.4251426 L63.8040284,91.4254648 C63.8021598,91.4256581 63.799518,91.4258514 63.7969407,91.4260447 C63.3296037,91.462192 62.8781818,91.5762395 62.4551751,91.7649655 C62.217995,91.8707011 61.9397707,91.7642567 61.8339707,91.5270766 C61.7281707,91.2898321 61.8346795,91.0117366 62.0718596,90.9058722 C62.5934497,90.6732024 63.1493829,90.5326082 63.724324,90.4880846 L63.7247106,90.4880846 L63.7321849,90.4874403 C63.7678167,90.4847341 63.801,90.4826078 63.8424308,90.480417 L63.8560907,90.4795794 C63.8591836,90.4793861 63.8644671,90.4790639 63.8676244,90.4788706 C63.896104,90.4775175 63.9266456,90.4764866 63.9633727,90.4753268 L63.9830894,90.474618 C63.9857956,90.4744891 63.9923678,90.4742314 63.9950741,90.474167 C64.0812862,90.4720406 64.1656298,90.4720406 64.2484914,90.4742958 C64.2502312,90.4743603 64.256159,90.4745536 64.2578988,90.474618 L64.2792263,90.4754556 C64.3067394,90.4762288 64.3412758,90.4773886 64.3746525,90.4789995 C64.3770365,90.4791283 64.3793561,90.4792572 64.3817402,90.4793861 L64.4015857,90.4806103 C64.4399237,90.4826722 64.472656,90.4847341 64.5024887,90.4869892 L64.5147956,90.4879557 C64.5157621,90.4880202 64.5167286,90.4880846 64.5175018,90.488149 C65.6356183,90.5747478 66.666105,91.0196619 67.4976208,91.7748239 C67.4994249,91.7765636 67.5012935,91.7782388 67.5031621,91.7799785 C67.5039353,91.7806873 67.5082523,91.7846822 67.5090255,91.785391 C67.5423377,91.8158681 67.5670158,91.8388709 67.5893098,91.860134 C67.6484599,91.9165134 67.7069012,91.9748902 67.7630228,92.033847 C67.787572,92.059556 67.81283,92.0869403 67.8344153,92.1104585 L67.8422117,92.1188993 C67.8438226,92.1206391 67.8454334,92.1223788 67.8469798,92.1241185 C68.6028505,92.9558275 69.0481512,93.9867653 69.1346211,95.1055906 C69.1346211,95.1059772 69.1346856,95.1064282 69.1346856,95.1068793 L69.1353299,95.113387 C69.1379717,95.1483745 69.1399691,95.1805269 69.1423532,95.2238263 L69.1431264,95.2373573 C69.1433197,95.2403213 69.1436419,95.2452827 69.1437707,95.2482466 C69.1451883,95.2782082 69.1463481,95.3107472 69.1473146,95.3418042 C69.1474434,95.3442527 69.1475079,95.3467656 69.1475723,95.3492141 L69.1480233,95.3598456 C69.1480233,95.3622297 69.1481522,95.3646137 69.1482166,95.3670622 C69.1482811,95.3681576 69.1484099,95.3731189 69.1484744,95.3742787 C69.1495697,95.4177714 69.1500852,95.4606842 69.1500852,95.5015996 C69.1500852,95.5443835 69.1495053,95.5870385 69.1484744,95.6284049 C69.1484099,95.630789 69.1483455,95.6332374 69.1482166,95.6356859 L69.1475079,95.6552093 C69.1475079,95.656498 69.1474434,95.6577222 69.1474434,95.6590109 C69.1464125,95.6906478 69.1453171,95.7241533 69.1437707,95.75695 C69.1435774,95.7599784 69.1433841,95.7629423 69.1431908,95.7659707 L69.1419666,95.7862673 C69.1406135,95.8115897 69.1384872,95.8479947 69.1358454,95.8834976 L69.1344278,95.9011524 C69.0476358,97.0188823 68.6014974,98.0504644 67.8444025,98.8824956 L67.8177914,98.9109753 C67.8174048,98.9114263 67.8169538,98.9118774 67.8165027,98.9123284 L67.8025206,98.9275992 C67.7895051,98.9417101 67.776425,98.9558211 67.762894,98.9699965 C67.7067723,99.0288888 67.6482666,99.0873945 67.5890521,99.1439672 C67.5700442,99.1620087 67.5489744,99.1814676 67.5266159,99.2020219 C67.5257783,99.2027951 67.5218478,99.206339 67.5209458,99.2071766 L67.5078013,99.219419 C67.5066415,99.2205144 67.5012935,99.2254758 67.5001337,99.2265067 C67.2273862,99.4745761 66.9281565,99.6924262 66.6106921,99.8739356 C66.4677139,99.9556375 66.3906513,100.113758 66.4143629,100.276646 C66.4380745,100.439663 66.5569545,100.569239 66.7172653,100.606868 C67.7746209,100.855131 68.7308157,101.294181 69.5591098,101.911842 C69.5678083,101.918285 69.5764424,101.924149 69.5853343,101.929754 C69.5959658,101.936456 69.6062752,101.943543 69.6163268,101.951082 C70.621169,102.702571 71.457775,103.68615 72.0357445,104.795504 C72.3321392,105.364581 72.5620383,105.846738 72.7200939,106.350416 C72.8456106,106.750613 72.9193227,107.143916 72.9520549,107.588508 C72.9616556,107.718857 72.916552,107.847402 72.8275048,107.94315 C72.738522,108.038963 72.6137141,108.093345 72.4829138,108.093345 Z" id="Fill-1-Copy-3" stroke="#15C19C" stroke-width="0.6" fill="#15C19C" sketch:type="MSShapeGroup"></path>
        </g>
    </g>
</svg>