<?xml version="1.0" encoding="UTF-8" standalone="no"?>
<svg width="40px" height="40px" viewBox="0 0 40 40"  version="1.1" xmlns="http://www.w3.org/2000/svg" xmlns:xlink="http://www.w3.org/1999/xlink" xmlns:sketch="http://www.bohemiancoding.com/sketch/ns">
    <!-- Generator: Sketch 3.3.3 (12072) - http://www.bohemiancoding.com/sketch -->
    <title>query_history</title>
    <desc>Created with Sketch.</desc>
    <defs></defs>
    <g id="Page-1" stroke="none" stroke-width="1" fill="none" fill-rule="evenodd" sketch:type="MSPage">
        <g id="Artboard-8" sketch:type="MSArtboardGroup" transform="translate(-215.000000, -270.000000)" fill="#FFFFFF">
            <path d="M225.656592,292.499162 L225.611715,292.357197 L225.632007,292.350783 L225.822405,292.456113 C226.955961,296.822322 230.911547,299.925058 235.492447,299.925058 C241.015233,299.925058 245.492472,295.461158 245.492472,289.955309 C245.492472,284.449202 241.015325,279.985409 235.492447,279.985409 C232.208257,279.985409 229.194825,281.57756 227.331313,284.203679 L227.208983,283.966873 L229.246086,283.966873 C229.975696,283.966873 230.567323,284.556627 230.567323,285.28454 C230.567323,286.012288 229.975611,286.602232 229.246086,286.602232 L224.171087,286.602232 C223.441602,286.602232 222.85,286.012303 222.85,285.28454 L222.85,280.613796 C222.85,279.885941 223.441544,279.296104 224.171087,279.296104 C224.900644,279.296104 225.492298,279.885955 225.492298,280.613771 L225.492298,282.711549 L225.220458,282.624055 C227.580048,279.338194 231.36758,277.35 235.492447,277.35 C242.47454,277.35 248.134769,282.993372 248.13482,289.955259 C248.13482,296.916981 242.474605,302.560393 235.492472,302.560393 C229.810479,302.560393 224.885826,298.777789 223.361012,293.413026 C223.347926,293.381107 223.347926,293.381107 223.340366,293.357988 C223.336185,293.345294 223.336185,293.345294 223.32908,293.324463 C223.326915,293.31764 223.326915,293.31764 223.320113,293.300773 C223.320028,293.300565 223.320028,293.300565 223.319943,293.300356 C223.310399,293.277233 223.310399,293.277233 223.29916,293.241943 L223.399641,293.058911 L223.411871,293.055143 L223.456045,293.19849 L223.31221,293.241052 C223.309476,293.231833 223.309476,293.231833 223.306686,293.22249 C223.30511,293.21722 223.30511,293.21722 223.303521,293.21191 C223.256909,293.056126 223.240354,292.980428 223.240354,292.874202 C223.240354,292.146477 223.831993,291.556685 224.561615,291.556685 C225.127048,291.556685 225.615908,291.919764 225.798772,292.451435 L225.670522,292.495545 L225.656592,292.499162 Z M235.492447,282.604453 C234.762907,282.604453 234.171211,283.194337 234.171211,283.922145 L234.171211,290.928273 C234.171211,291.656077 234.762903,292.24594 235.492447,292.24594 L235.492597,292.24594 L240.567497,292.24594 C241.297031,292.24594 241.888558,291.656111 241.888558,290.928273 C241.888558,290.200349 241.297095,289.610706 240.567497,289.610706 L236.663559,289.610706 L236.813559,289.760706 L236.813559,283.92212 C236.813559,283.194289 236.221989,282.604453 235.492447,282.604453 Z" id="Shape" sketch:type="MSShapeGroup"></path>
        </g>
    </g>
</svg>