<?xml version="1.0" encoding="utf-8"?>
<!-- Generator: Adobe Illustrator 16.0.0, SVG Export Plug-In . SVG Version: 6.00 Build 0)  -->
<!DOCTYPE svg PUBLIC "-//W3C//DTD SVG 1.1//EN" "http://www.w3.org/Graphics/SVG/1.1/DTD/svg11.dtd">
<svg version="1.1" id="图层_1" xmlns:sketch="http://www.bohemiancoding.com/sketch/ns"
	 xmlns="http://www.w3.org/2000/svg" xmlns:xlink="http://www.w3.org/1999/xlink" x="0px" y="0px" width="40px" height="50px"
	 viewBox="0 0 40 50" enable-background="new 0 0 40 50" xml:space="preserve">
<title>trash</title>
<desc>Created with Sketch.</desc>
<g id="Page-1" sketch:type="MSPage">
	<g id="Artboard-8" transform="translate(-22.000000, -154.000000)" sketch:type="MSArtboardGroup">
		<g id="trash" transform="translate(22.000000, 154.000000)" sketch:type="MSLayerGroup">
			<path id="Shape-Copy" sketch:type="MSShapeGroup" fill="#FFFFFF" d="M13.857,19.429v12c0,1.42,1.152,2.571,2.572,2.571h7.714
				c1.42,0,2.572-1.151,2.572-2.571v-12H13.857L13.857,19.429z M17.289,31.297c0,0.313-0.192,0.564-0.43,0.564h-0.43
				c-0.238,0-0.431-0.252-0.431-0.564v-9.596c0-0.301,0.181-0.541,0.406-0.558h0.478c0.226,0.017,0.406,0.257,0.406,0.558
				L17.289,31.297L17.289,31.297z M21.146,31.297c0,0.313-0.193,0.564-0.431,0.564h-0.86c-0.237,0-0.43-0.252-0.43-0.564v-9.596
				c0-0.301,0.18-0.541,0.406-0.558h0.909c0.225,0.017,0.405,0.257,0.405,0.558L21.146,31.297L21.146,31.297z M24.573,21.701v9.597
				c0,0.312-0.192,0.564-0.431,0.564h-0.43c-0.238,0-0.43-0.253-0.43-0.564v-9.597c0-0.301,0.18-0.541,0.405-0.558h0.479
				C24.393,21.16,24.573,21.4,24.573,21.701L24.573,21.701z M26.715,16H13.857C13.384,16,13,16.384,13,16.857v0.429
				c0,0.474,0.384,0.857,0.857,0.857h12.858c0.473,0,0.856-0.384,0.856-0.857v-0.429C27.571,16.384,27.188,16,26.715,16L26.715,16z"
				/>
		</g>
	</g>
</g>
</svg>
