<?xml version="1.0" encoding="UTF-8" standalone="no"?>
<svg width="40px" height="50px" viewBox="0 0 40 50" version="1.1" xmlns="http://www.w3.org/2000/svg" xmlns:xlink="http://www.w3.org/1999/xlink" xmlns:sketch="http://www.bohemiancoding.com/sketch/ns">
    <!-- Generator: Sketch 3.3.3 (12072) - http://www.bohemiancoding.com/sketch -->
    <title>trash</title>
    <desc>Created with Sketch.</desc>
    <defs></defs>
    <g id="Page-1" stroke="none" stroke-width="1" fill="none" fill-rule="evenodd" sketch:type="MSPage">
        <g id="Artboard-8" sketch:type="MSArtboardGroup" transform="translate(-22.000000, -154.000000)" fill="#7C7C7D">
            <g id="trash" sketch:type="MSLayerGroup" transform="translate(22.000000, 154.000000)">
                <path d="M13.857142,30.57143 L13.857142,18.5714296 C13.857142,17.1511446 15.0087131,16 16.4285716,16 L24.1428575,16 C25.5627139,16 26.7142871,17.1511425 26.7142871,18.5714296 L26.7142871,30.57143 L13.8571429,30.57143 L13.857142,30.57143 Z M17.2887144,18.7025721 C17.2887144,18.3905723 17.0962855,18.1381437 16.8588563,18.1381437 L16.4285705,18.1381437 C16.1907127,18.1381437 15.9982838,18.3905723 15.9982838,18.7025721 L15.9982838,28.298715 C15.9982838,28.5995728 16.1787115,28.8395716 16.4041416,28.8571427 L16.8824274,28.8571427 C17.1078554,28.8395716 17.2882852,28.5995708 17.2882852,28.298715 L17.2882852,18.7025718 L17.2887144,18.7025721 Z M21.1458567,18.7025721 C21.1458567,18.3905723 20.9534278,18.1381437 20.7159986,18.1381437 L19.8554271,18.1381437 C19.6179979,18.1381437 19.425569,18.3905723 19.425569,18.7025721 L19.425569,28.298715 C19.425569,28.5995728 19.6059967,28.8395716 19.8314268,28.8571427 L20.7395697,28.8571427 C20.9649977,28.8395716 21.1454275,28.5995708 21.1454275,28.298715 L21.1454275,18.7025718 L21.1458567,18.7025721 Z M24.5731429,28.2987151 L24.5731429,18.7021434 C24.5731429,18.3901437 24.380714,18.1377151 24.1428562,18.1377151 L23.7125705,18.1377151 C23.4751413,18.1377151 23.2827124,18.3901437 23.2827124,18.7021434 L23.2827124,28.298715 C23.2827124,28.5995728 23.4631401,28.8395716 23.6885702,28.8571427 L24.1668559,28.8571427 C24.3927152,28.8395718 24.5731429,28.599573 24.5731429,28.2987151 L24.5731429,28.2987151 Z M26.7142858,34 L13.8571425,34 C13.3840006,34 13,33.6159994 13,33.1428575 L13,32.714286 C13,32.2407155 13.3840006,31.8571435 13.8571425,31.8571435 L26.7142858,31.8571435 C27.1874277,31.8571435 27.5714283,32.2407155 27.5714283,32.714286 L27.5714283,33.1428575 C27.5714283,33.6160015 27.1878584,34 26.7142858,34 L26.7142858,34 Z" id="Shape-Copy" sketch:type="MSShapeGroup" transform="translate(20.285714, 25.000000) scale(1, -1) translate(-20.285714, -25.000000) "></path>
            </g>
        </g>
    </g>
</svg>